NotoSerifKhmer-Bold.ufo
<glyph name="uni1780" format="1">
  <advance width="1450"/>
  <unicode hex="1780"/>
  <outline>
    <contour>
      <point x="1250" y="0" type="line"/>
      <point x="962" y="0" type="line"/>
      <point x="962" y="750" type="line" smooth="yes"/>
      <point x="962" y="808"/>
      <point x="856" y="906"/>
      <point x="750" y="906" type="qcurve" smooth="yes"/>
      <point x="700" y="906" type="line" smooth="yes"/>
      <point x="594" y="906"/>
      <point x="488" y="808"/>
      <point x="488" y="750" type="qcurve" smooth="yes"/>
      <point x="488" y="0" type="line"/>
      <point x="200" y="0" type="line"/>
      <point x="200" y="750" type="line" smooth="yes"/>
      <point x="200" y="850"/>
      <point x="500" y="1050"/>
      <point x="700" y="1050" type="qcurve" smooth="yes"/>
      <point x="750" y="1050" type="line" smooth="yes"/>
      <point x="950" y="1050"/>
      <point x="1250" y="850"/>
      <point x="1250" y="750" type="qcurve" smooth="yes"/>
    </contour>
    <contour>
      <point x="130" y="1127" type="qcurve" smooth="yes"/>
      <point x="130" y="1202" type="line" smooth="yes"/>
      <point x="130" y="1254"/>
      <point x="201" y="1315" type="qcurve" smooth="yes"/>
      <point x="273" y="1376" type="line" smooth="yes"/>
      <point x="415" y="1500"/>
      <point x="450" y="1500" type="qcurve" smooth="yes"/>
      <point x="491" y="1500"/>
      <point x="608" y="1388" type="qcurve" smooth="yes"/>
      <point x="667" y="1332" type="line" smooth="yes"/>
      <point x="696" y="1303"/>
      <point x="729" y="1303" type="qcurve" smooth="yes"/>
      <point x="756" y="1303"/>
      <point x="785" y="1332" type="qcurve" smooth="yes"/>
      <point x="839" y="1388" type="line" smooth="yes"/>
      <point x="949" y="1500"/>
      <point x="988" y="1500" type="qcurve" smooth="yes"/>
      <point x="1026" y="1500"/>
      <point x="1089" y="1438" type="qcurve" smooth="yes"/>
      <point x="1217" y="1313" type="line" smooth="yes"/>
      <point x="1255" y="1276"/>
      <point x="1294" y="1276" type="qcurve" smooth="yes"/>
      <point x="1323" y="1276"/>
      <point x="1350" y="1294" type="qcurve"/>
      <point x="1274" y="1127"/>
      <point x="1173" y="1127" type="qcurve" smooth="yes"/>
      <point x="1059" y="1127"/>
      <point x="1020" y="1166" type="qcurve" smooth="yes"/>
      <point x="935" y="1247" type="line" smooth="yes"/>
      <point x="911" y="1268"/>
      <point x="895" y="1268" type="qcurve" smooth="yes"/>
      <point x="878" y="1268"/>
      <point x="815" y="1208" type="qcurve"/>
      <point x="751" y="1127"/>
      <point x="646" y="1127" type="qcurve" smooth="yes"/>
      <point x="548" y="1127"/>
      <point x="454" y="1208" type="qcurve" smooth="yes"/>
      <point x="406" y="1248" type="line" smooth="yes"/>
      <point x="380" y="1268"/>
      <point x="361" y="1268" type="qcurve" smooth="yes"/>
      <point x="341" y="1268"/>
      <point x="317" y="1251" type="qcurve"/>
      <point x="293" y="1214"/>
      <point x="293" y="1178" type="qcurve" smooth="yes"/>
      <point x="293" y="1128"/>
      <point x="443" y="1058" type="qcurve"/>
      <point x="302" y="967" type="line"/>
      <point x="130" y="1028"/>
    </contour>
  </outline>
</glyph>
<glyph name="uni1783" format="1">
  <advance width="2137"/>
  <unicode hex="1783"/>
  <outline>
    <contour>
      <point x="937" y="1002" type="line"/>
      <point x="859" y="1046" type="line" smooth="yes"/>
      <point x="762" y="1099"/>
      <point x="762" y="1131" type="qcurve" smooth="yes"/>
      <point x="762" y="1162"/>
      <point x="823" y="1247" type="qcurve" smooth="yes"/>
      <point x="1008" y="1500" type="line"/>
      <point x="1126" y="1438" type="line"/>
      <point x="1186" y="1406" type="line" smooth="yes"/>
      <point x="1237" y="1379"/>
      <point x="1273" y="1379" type="qcurve" smooth="yes"/>
      <point x="1280" y="1379"/>
      <point x="1285" y="1380" type="qcurve" smooth="yes"/>
      <point x="1325" y="1385" type="line"/>
      <point x="1325" y="1350"/>
      <point x="1215" y="1172"/>
      <point x="1170" y="1166" type="qcurve" smooth="yes"/>
      <point x="1163" y="1165"/>
      <point x="1156" y="1165" type="qcurve" smooth="yes"/>
      <point x="1114" y="1165"/>
      <point x="1051" y="1199" type="qcurve" smooth="yes"/>
      <point x="977" y="1238" type="line"/>
      <point x="930" y="1163" type="line"/>
      <point x="1225" y="1004" type="line"/>
      <point x="1225" y="300" type="line" smooth="yes"/>
      <point x="1225" y="242"/>
      <point x="1331" y="144"/>
      <point x="1437" y="144" type="qcurve" smooth="yes"/>
      <point x="1543" y="144"/>
      <point x="1649" y="242"/>
      <point x="1649" y="300" type="qcurve" smooth="yes"/>
      <point x="1649" y="1002" type="line"/>
      <point x="1571" y="1046" type="line" smooth="yes"/>
      <point x="1474" y="1099"/>
      <point x="1474" y="1131" type="qcurve" smooth="yes"/>
      <point x="1474" y="1162"/>
      <point x="1535" y="1247" type="qcurve" smooth="yes"/>
      <point x="1720" y="1500" type="line"/>
      <point x="1838" y="1438" type="line"/>
      <point x="1898" y="1406" type="line" smooth="yes"/>
      <point x="1949" y="1379"/>
      <point x="1985" y="1379" type="qcurve" smooth="yes"/>
      <point x="1992" y="1379"/>
      <point x="1997" y="1380" type="qcurve" smooth="yes"/>
      <point x="2037" y="1385" type="line"/>
      <point x="2037" y="1350"/>
      <point x="1927" y="1172"/>
      <point x="1882" y="1166" type="qcurve" smooth="yes"/>
      <point x="1875" y="1165"/>
      <point x="1868" y="1165" type="qcurve" smooth="yes"/>
      <point x="1826" y="1165"/>
      <point x="1763" y="1199" type="qcurve" smooth="yes"/>
      <point x="1689" y="1238" type="line"/>
      <point x="1642" y="1163" type="line"/>
      <point x="1937" y="1005" type="line"/>
      <point x="1937" y="300" type="line" smooth="yes"/>
      <point x="1937" y="200"/>
      <point x="1687" y="0"/>
      <point x="1437" y="0" type="qcurve" smooth="yes"/>
      <point x="1237" y="0"/>
      <point x="1112" y="100" type="qcurve" smooth="yes"/>
      <point x="1095" y="113"/>
      <point x="1081" y="127" type="qcurve"/>
      <point x="1067" y="113"/>
      <point x="1050" y="100" type="qcurve" smooth="yes"/>
      <point x="925" y="0"/>
      <point x="725" y="0" type="qcurve" smooth="yes"/>
      <point x="475" y="0"/>
      <point x="225" y="200"/>
      <point x="225" y="300" type="qcurve" smooth="yes"/>
      <point x="225" y="1000" type="line"/>
      <point x="155" y="1000"/>
      <point x="118" y="1050" type="qcurve" smooth="yes"/>
      <point x="80" y="1100"/>
      <point x="80" y="1155" type="qcurve" smooth="yes"/>
      <point x="80" y="1212"/>
      <point x="102" y="1261" type="qcurve" smooth="yes"/>
      <point x="124" y="1311"/>
      <point x="225" y="1500"/>
      <point x="339" y="1500" type="qcurve" smooth="yes"/>
      <point x="513" y="1500"/>
      <point x="513" y="1400" type="qcurve" smooth="yes"/>
      <point x="513" y="300" type="line" smooth="yes"/>
      <point x="513" y="242"/>
      <point x="619" y="144"/>
      <point x="725" y="144" type="qcurve" smooth="yes"/>
      <point x="831" y="144"/>
      <point x="937" y="242"/>
      <point x="937" y="300" type="qcurve" smooth="yes"/>
    </contour>
  </outline>
</glyph>
<glyph name="uni1784" format="1">
  <advance width="1450"/>
  <unicode hex="1784"/>
  <outline>
    <contour>
      <point x="930" y="1320" type="qcurve" smooth="yes"/>
      <point x="930" y="1366"/>
      <point x="880" y="1366" type="qcurve" smooth="yes"/>
      <point x="830" y="1366"/>
      <point x="830" y="1320" type="qcurve" smooth="yes"/>
      <point x="830" y="1286"/>
      <point x="888" y="1248" type="qcurve"/>
      <point x="930" y="1273"/>
    </contour>
    <contour>
      <point x="200" y="500" type="line"/>
      <point x="170" y="500"/>
      <point x="100" y="600"/>
      <point x="100" y="655" type="qcurve" smooth="yes"/>
      <point x="100" y="712"/>
      <point x="139" y="801"/>
      <point x="250" y="900"/>
      <point x="344" y="900" type="qcurve" smooth="yes"/>
      <point x="488" y="900"/>
      <point x="488" y="800" type="qcurve" smooth="yes"/>
      <point x="488" y="227" type="line"/>
      <point x="725" y="423" type="line"/>
      <point x="962" y="227" type="line"/>
      <point x="962" y="899" type="line" smooth="yes"/>
      <point x="962" y="1007"/>
      <point x="924" y="1065"/>
      <point x="888" y="1089" type="qcurve"/>
      <point x="746" y="1000"/>
      <point x="610" y="1000" type="qcurve" smooth="yes"/>
      <point x="372" y="1000"/>
      <point x="289" y="1069" type="qcurve" smooth="yes"/>
      <point x="200" y="1144"/>
      <point x="200" y="1260" type="qcurve" smooth="yes"/>
      <point x="200" y="1325"/>
      <point x="250" y="1460"/>
      <point x="250" y="1530" type="qcurve" smooth="yes"/>
      <point x="250" y="1600"/>
      <point x="150" y="1600" type="qcurve"/>
      <point x="150" y="1700"/>
      <point x="350" y="1700" type="qcurve" smooth="yes"/>
      <point x="538" y="1700"/>
      <point x="538" y="1530" type="qcurve" smooth="yes"/>
      <point x="538" y="1445"/>
      <point x="488" y="1330"/>
      <point x="488" y="1260" type="qcurve" smooth="yes"/>
      <point x="488" y="1191"/>
      <point x="550" y="1144"/>
      <point x="610" y="1144" type="qcurve" smooth="yes"/>
      <point x="694" y="1144"/>
      <point x="767" y="1173" type="qcurve"/>
      <point x="640" y="1244"/>
      <point x="640" y="1350" type="qcurve" smooth="yes"/>
      <point x="640" y="1500"/>
      <point x="880" y="1500" type="qcurve" smooth="yes"/>
      <point x="1120" y="1500"/>
      <point x="1120" y="1360" type="qcurve" smooth="yes"/>
      <point x="1120" y="1243"/>
      <point x="992" y="1172" type="qcurve"/>
      <point x="1013" y="1161"/>
      <point x="1035" y="1150" type="qcurve" smooth="yes"/>
      <point x="1250" y="1062"/>
      <point x="1250" y="899" type="qcurve" smooth="yes"/>
      <point x="1250" y="0" type="line"/>
      <point x="1012" y="0" type="line"/>
      <point x="725" y="236" type="line"/>
      <point x="438" y="0" type="line"/>
      <point x="200" y="0" type="line"/>
    </contour>
  </outline>
</glyph>
<glyph name="uni1788" format="1">
  <advance width="2874"/>
  <unicode hex="1788"/>
  <outline>
    <contour>
      <point x="488" y="598" type="line"/>
      <point x="611" y="589"/>
      <point x="647" y="541" type="qcurve" smooth="yes"/>
      <point x="690" y="481"/>
      <point x="690" y="415" type="qcurve" smooth="yes"/>
      <point x="690" y="337"/>
      <point x="650" y="250" type="qcurve" smooth="yes"/>
      <point x="610" y="162"/>
      <point x="488" y="0" type="qcurve"/>
      <point x="200" y="0" type="line"/>
      <point x="200" y="1008" type="line"/>
      <point x="138" y="1046" type="line" smooth="yes"/>
      <point x="90" y="1075"/>
      <point x="90" y="1140" type="qcurve" smooth="yes"/>
      <point x="90" y="1205"/>
      <point x="538" y="1500"/>
      <point x="640" y="1500" type="qcurve" smooth="yes"/>
      <point x="798" y="1500"/>
      <point x="1250" y="1225"/>
      <point x="1250" y="1050" type="qcurve" smooth="yes"/>
      <point x="1250" y="300" type="line" smooth="yes"/>
      <point x="1250" y="242"/>
      <point x="1356" y="144"/>
      <point x="1462" y="144" type="qcurve" smooth="yes"/>
      <point x="1568" y="144"/>
      <point x="1674" y="242"/>
      <point x="1674" y="300" type="qcurve" smooth="yes"/>
      <point x="1674" y="1002" type="line"/>
      <point x="1596" y="1046" type="line" smooth="yes"/>
      <point x="1499" y="1099"/>
      <point x="1499" y="1131" type="qcurve" smooth="yes"/>
      <point x="1499" y="1162"/>
      <point x="1560" y="1247" type="qcurve" smooth="yes"/>
      <point x="1745" y="1500" type="line"/>
      <point x="1863" y="1438" type="line"/>
      <point x="1923" y="1406" type="line" smooth="yes"/>
      <point x="1974" y="1379"/>
      <point x="2010" y="1379" type="qcurve" smooth="yes"/>
      <point x="2017" y="1379"/>
      <point x="2022" y="1380" type="qcurve" smooth="yes"/>
      <point x="2062" y="1385" type="line"/>
      <point x="2062" y="1350"/>
      <point x="1952" y="1172"/>
      <point x="1907" y="1166" type="qcurve" smooth="yes"/>
      <point x="1900" y="1165"/>
      <point x="1893" y="1165" type="qcurve" smooth="yes"/>
      <point x="1851" y="1165"/>
      <point x="1788" y="1199" type="qcurve" smooth="yes"/>
      <point x="1714" y="1238" type="line"/>
      <point x="1667" y="1163" type="line"/>
      <point x="1962" y="1004" type="line"/>
      <point x="1962" y="300" type="line" smooth="yes"/>
      <point x="1962" y="242"/>
      <point x="2068" y="144"/>
      <point x="2174" y="144" type="qcurve" smooth="yes"/>
      <point x="2280" y="144"/>
      <point x="2386" y="242"/>
      <point x="2386" y="300" type="qcurve" smooth="yes"/>
      <point x="2386" y="1002" type="line"/>
      <point x="2308" y="1046" type="line" smooth="yes"/>
      <point x="2211" y="1099"/>
      <point x="2211" y="1131" type="qcurve" smooth="yes"/>
      <point x="2211" y="1162"/>
      <point x="2272" y="1247" type="qcurve" smooth="yes"/>
      <point x="2457" y="1500" type="line"/>
      <point x="2575" y="1438" type="line"/>
      <point x="2635" y="1406" type="line" smooth="yes"/>
      <point x="2686" y="1379"/>
      <point x="2722" y="1379" type="qcurve" smooth="yes"/>
      <point x="2729" y="1379"/>
      <point x="2734" y="1380" type="qcurve" smooth="yes"/>
      <point x="2774" y="1385" type="line"/>
      <point x="2774" y="1350"/>
      <point x="2664" y="1172"/>
      <point x="2619" y="1166" type="qcurve" smooth="yes"/>
      <point x="2612" y="1165"/>
      <point x="2605" y="1165" type="qcurve" smooth="yes"/>
      <point x="2563" y="1165"/>
      <point x="2500" y="1199" type="qcurve" smooth="yes"/>
      <point x="2426" y="1238" type="line"/>
      <point x="2379" y="1163" type="line"/>
      <point x="2674" y="1005" type="line"/>
      <point x="2674" y="300" type="line" smooth="yes"/>
      <point x="2674" y="200"/>
      <point x="2424" y="0"/>
      <point x="2174" y="0" type="qcurve" smooth="yes"/>
      <point x="1974" y="0"/>
      <point x="1849" y="100" type="qcurve" smooth="yes"/>
      <point x="1832" y="113"/>
      <point x="1818" y="127" type="qcurve"/>
      <point x="1804" y="113"/>
      <point x="1787" y="100" type="qcurve" smooth="yes"/>
      <point x="1662" y="0"/>
      <point x="1462" y="0" type="qcurve" smooth="yes"/>
      <point x="1212" y="0"/>
      <point x="962" y="200"/>
      <point x="962" y="300" type="qcurve" smooth="yes"/>
      <point x="962" y="1050" type="line" smooth="yes"/>
      <point x="962" y="1126"/>
      <point x="729" y="1322"/>
      <point x="640" y="1322" type="qcurve" smooth="yes"/>
      <point x="536" y="1322"/>
      <point x="389" y="1173" type="qcurve"/>
      <point x="427" y="1148" type="line" smooth="yes"/>
      <point x="488" y="1110"/>
      <point x="488" y="1050" type="qcurve" smooth="yes"/>
    </contour>
    <contour>
      <point x="488" y="465" type="qcurve"/>
      <point x="488" y="241" type="line"/>
      <point x="566" y="320"/>
      <point x="566" y="389" type="qcurve" smooth="yes"/>
      <point x="566" y="429"/>
      <point x="539" y="448" type="qcurve" smooth="yes"/>
      <point x="518" y="462"/>
    </contour>
  </outline>
</glyph>
<glyph name="uni178D" format="1">
  <advance width="2162"/>
  <unicode hex="178D"/>
  <outline>
    <contour>
      <point x="962" y="366" type="line"/>
      <point x="942" y="366"/>
      <point x="922" y="345"/>
      <point x="922" y="315" type="qcurve" smooth="yes"/>
      <point x="922" y="284"/>
      <point x="962" y="234" type="qcurve"/>
    </contour>
    <contour>
      <point x="488" y="465" type="qcurve"/>
      <point x="488" y="241" type="line"/>
      <point x="566" y="320"/>
      <point x="566" y="389" type="qcurve" smooth="yes"/>
      <point x="566" y="429"/>
      <point x="539" y="448" type="qcurve" smooth="yes"/>
      <point x="518" y="462"/>
    </contour>
    <contour>
      <point x="1962" y="250" type="line" smooth="yes"/>
      <point x="1962" y="0"/>
      <point x="1612" y="0" type="qcurve" smooth="yes"/>
      <point x="1352" y="0"/>
      <point x="1352" y="250" type="qcurve" smooth="yes"/>
      <point x="1352" y="366"/>
      <point x="1250" y="366" type="qcurve"/>
      <point x="1250" y="0" type="line"/>
      <point x="962" y="0" type="line"/>
      <point x="887" y="124" type="line" smooth="yes"/>
      <point x="812" y="248"/>
      <point x="812" y="345" type="qcurve" smooth="yes"/>
      <point x="812" y="410"/>
      <point x="892" y="500"/>
      <point x="962" y="500" type="qcurve"/>
      <point x="962" y="1169" type="line" smooth="yes"/>
      <point x="962" y="1245"/>
      <point x="920" y="1313"/>
      <point x="908" y="1313" type="qcurve" smooth="yes"/>
      <point x="882" y="1313"/>
      <point x="856" y="1285" type="qcurve" smooth="yes"/>
      <point x="795" y="1225" type="line" smooth="yes"/>
      <point x="734" y="1165"/>
      <point x="671" y="1165" type="qcurve" smooth="yes"/>
      <point x="534" y="1166"/>
      <point x="474" y="1215" type="qcurve"/>
      <point x="434" y="1253" type="line" smooth="yes"/>
      <point x="407" y="1277"/>
      <point x="385" y="1277" type="qcurve" smooth="yes"/>
      <point x="370" y="1277"/>
      <point x="358" y="1268" type="qcurve" smooth="yes"/>
      <point x="310" y="1230" type="line" smooth="yes"/>
      <point x="304" y="1224"/>
      <point x="304" y="1215" type="qcurve" smooth="yes"/>
      <point x="304" y="1181"/>
      <point x="488" y="1084" type="qcurve"/>
      <point x="488" y="598" type="line"/>
      <point x="611" y="589"/>
      <point x="647" y="541" type="qcurve" smooth="yes"/>
      <point x="690" y="481"/>
      <point x="690" y="415" type="qcurve" smooth="yes"/>
      <point x="690" y="337"/>
      <point x="650" y="250" type="qcurve" smooth="yes"/>
      <point x="610" y="162"/>
      <point x="488" y="0" type="qcurve"/>
      <point x="200" y="0" type="line"/>
      <point x="200" y="1062" type="line"/>
      <point x="100" y="1169"/>
      <point x="100" y="1212" type="qcurve" smooth="yes"/>
      <point x="100" y="1255"/>
      <point x="246" y="1378" type="qcurve" smooth="yes"/>
      <point x="390" y="1500"/>
      <point x="441" y="1500" type="qcurve" smooth="yes"/>
      <point x="493" y="1500"/>
      <point x="597" y="1412" type="qcurve" smooth="yes"/>
      <point x="678" y="1340" type="line" smooth="yes"/>
      <point x="685" y="1335"/>
      <point x="694" y="1335" type="qcurve" smooth="yes"/>
      <point x="716" y="1335"/>
      <point x="748" y="1367" type="qcurve" smooth="yes"/>
      <point x="793" y="1412" type="line" smooth="yes"/>
      <point x="884" y="1500"/>
      <point x="941" y="1500" type="qcurve" smooth="yes"/>
      <point x="982" y="1500"/>
      <point x="1048" y="1462" type="qcurve" smooth="yes"/>
      <point x="1116" y="1423" type="line" smooth="yes"/>
      <point x="1250" y="1346"/>
      <point x="1250" y="1169" type="qcurve" smooth="yes"/>
      <point x="1250" y="500" type="line"/>
      <point x="1496" y="500"/>
      <point x="1496" y="250" type="qcurve" smooth="yes"/>
      <point x="1496" y="144"/>
      <point x="1612" y="144" type="qcurve" smooth="yes"/>
      <point x="1674" y="144"/>
      <point x="1674" y="250" type="qcurve" smooth="yes"/>
      <point x="1674" y="1002" type="line"/>
      <point x="1596" y="1046" type="line" smooth="yes"/>
      <point x="1499" y="1099"/>
      <point x="1499" y="1131" type="qcurve" smooth="yes"/>
      <point x="1499" y="1162"/>
      <point x="1560" y="1247" type="qcurve" smooth="yes"/>
      <point x="1745" y="1500" type="line"/>
      <point x="1863" y="1438" type="line"/>
      <point x="1923" y="1406" type="line" smooth="yes"/>
      <point x="1974" y="1379"/>
      <point x="2010" y="1379" type="qcurve" smooth="yes"/>
      <point x="2017" y="1379"/>
      <point x="2022" y="1380" type="qcurve" smooth="yes"/>
      <point x="2062" y="1385" type="line"/>
      <point x="2062" y="1350"/>
      <point x="1952" y="1172"/>
      <point x="1907" y="1166" type="qcurve" smooth="yes"/>
      <point x="1900" y="1165"/>
      <point x="1893" y="1165" type="qcurve" smooth="yes"/>
      <point x="1851" y="1165"/>
      <point x="1788" y="1199" type="qcurve" smooth="yes"/>
      <point x="1714" y="1238" type="line"/>
      <point x="1667" y="1163" type="line"/>
      <point x="1962" y="1005" type="line"/>
    </contour>
  </outline>
</glyph>
<glyph name="uni178E" format="1">
  <advance width="2824"/>
  <unicode hex="178E"/>
  <outline>
    <contour>
      <point x="488" y="465" type="qcurve"/>
      <point x="488" y="241" type="line"/>
      <point x="566" y="320"/>
      <point x="566" y="389" type="qcurve" smooth="yes"/>
      <point x="566" y="429"/>
      <point x="539" y="448" type="qcurve" smooth="yes"/>
      <point x="518" y="462"/>
    </contour>
    <contour>
      <point x="1912" y="0" type="line"/>
      <point x="1674" y="0" type="line"/>
      <point x="1412" y="215" type="line"/>
      <point x="1150" y="0" type="line"/>
      <point x="912" y="0" type="line"/>
      <point x="912" y="1050" type="line" smooth="yes"/>
      <point x="912" y="1126"/>
      <point x="729" y="1322"/>
      <point x="640" y="1322" type="qcurve" smooth="yes"/>
      <point x="536" y="1322"/>
      <point x="389" y="1173" type="qcurve"/>
      <point x="427" y="1148" type="line" smooth="yes"/>
      <point x="488" y="1110"/>
      <point x="488" y="1050" type="qcurve" smooth="yes"/>
      <point x="488" y="598" type="line"/>
      <point x="611" y="589"/>
      <point x="647" y="541" type="qcurve" smooth="yes"/>
      <point x="690" y="481"/>
      <point x="690" y="415" type="qcurve" smooth="yes"/>
      <point x="690" y="337"/>
      <point x="650" y="250" type="qcurve" smooth="yes"/>
      <point x="610" y="162"/>
      <point x="488" y="0" type="qcurve"/>
      <point x="200" y="0" type="line"/>
      <point x="200" y="1008" type="line"/>
      <point x="138" y="1046" type="line" smooth="yes"/>
      <point x="90" y="1075"/>
      <point x="90" y="1140" type="qcurve" smooth="yes"/>
      <point x="90" y="1205"/>
      <point x="538" y="1500"/>
      <point x="640" y="1500" type="qcurve" smooth="yes"/>
      <point x="798" y="1500"/>
      <point x="1200" y="1225"/>
      <point x="1200" y="1050" type="qcurve" smooth="yes"/>
      <point x="1200" y="227" type="line"/>
      <point x="1412" y="402" type="line"/>
      <point x="1624" y="227" type="line"/>
      <point x="1624" y="1008" type="line"/>
      <point x="1562" y="1046" type="line" smooth="yes"/>
      <point x="1514" y="1075"/>
      <point x="1514" y="1140" type="qcurve" smooth="yes"/>
      <point x="1514" y="1205"/>
      <point x="1962" y="1500"/>
      <point x="2064" y="1500" type="qcurve" smooth="yes"/>
      <point x="2222" y="1500"/>
      <point x="2624" y="1225"/>
      <point x="2624" y="1050" type="qcurve" smooth="yes"/>
      <point x="2624" y="0" type="line"/>
      <point x="2336" y="0" type="line"/>
      <point x="2336" y="1050" type="line" smooth="yes"/>
      <point x="2336" y="1126"/>
      <point x="2153" y="1322"/>
      <point x="2064" y="1322" type="qcurve" smooth="yes"/>
      <point x="1960" y="1322"/>
      <point x="1813" y="1173" type="qcurve"/>
      <point x="1851" y="1148" type="line" smooth="yes"/>
      <point x="1912" y="1110"/>
      <point x="1912" y="1050" type="qcurve" smooth="yes"/>
    </contour>
  </outline>
</glyph>
<glyph name="uni1791" format="1">
  <advance width="1450"/>
  <unicode hex="1791"/>
  <outline>
    <contour>
      <point x="927" y="1099" type="qcurve" smooth="yes"/>
      <point x="914" y="1092"/>
      <point x="914" y="1080" type="qcurve" smooth="yes"/>
      <point x="914" y="1030"/>
      <point x="962" y="1030" type="qcurve"/>
      <point x="962" y="1105" type="line"/>
      <point x="939" y="1105"/>
    </contour>
    <contour>
      <point x="488" y="945" type="line" smooth="yes"/>
      <point x="488" y="818"/>
      <point x="596" y="671"/>
      <point x="726" y="671" type="qcurve" smooth="yes"/>
      <point x="770" y="671" type="line"/>
      <point x="770" y="721"/>
      <point x="925" y="831"/>
      <point x="1042" y="831" type="qcurve" smooth="yes"/>
      <point x="1111" y="831"/>
      <point x="1200" y="766"/>
      <point x="1200" y="692" type="qcurve" smooth="yes"/>
      <point x="1200" y="606"/>
      <point x="1155" y="574" type="qcurve" smooth="yes"/>
      <point x="1111" y="541"/>
      <point x="1058" y="541" type="qcurve"/>
      <point x="1058" y="302" type="line" smooth="yes"/>
      <point x="1058" y="151"/>
      <point x="901" y="0"/>
      <point x="700" y="0" type="qcurve" smooth="yes"/>
      <point x="513" y="0"/>
      <point x="342" y="127"/>
      <point x="342" y="250" type="qcurve" smooth="yes"/>
      <point x="342" y="450" type="line"/>
      <point x="620" y="450" type="line"/>
      <point x="620" y="250" type="line" smooth="yes"/>
      <point x="620" y="208"/>
      <point x="640" y="144"/>
      <point x="700" y="144" type="qcurve" smooth="yes"/>
      <point x="744" y="144"/>
      <point x="770" y="221"/>
      <point x="770" y="301" type="qcurve" smooth="yes"/>
      <point x="770" y="541" type="line"/>
      <point x="726" y="541" type="line" smooth="yes"/>
      <point x="508" y="541"/>
      <point x="200" y="768"/>
      <point x="200" y="945" type="qcurve" smooth="yes"/>
      <point x="200" y="1200" type="line" smooth="yes"/>
      <point x="200" y="1300"/>
      <point x="450" y="1500"/>
      <point x="700" y="1500" type="qcurve" smooth="yes"/>
      <point x="750" y="1500" type="line" smooth="yes"/>
      <point x="1000" y="1500"/>
      <point x="1250" y="1300"/>
      <point x="1250" y="1200" type="qcurve" smooth="yes"/>
      <point x="1250" y="1030" type="line" smooth="yes"/>
      <point x="1250" y="930"/>
      <point x="1106" y="930" type="qcurve" smooth="yes"/>
      <point x="962" y="930" type="line" smooth="yes"/>
      <point x="814" y="930"/>
      <point x="814" y="1080" type="qcurve" smooth="yes"/>
      <point x="814" y="1142"/>
      <point x="888" y="1200"/>
      <point x="962" y="1200" type="qcurve"/>
      <point x="962" y="1258"/>
      <point x="856" y="1356"/>
      <point x="750" y="1356" type="qcurve" smooth="yes"/>
      <point x="700" y="1356" type="line" smooth="yes"/>
      <point x="594" y="1356"/>
      <point x="488" y="1258"/>
      <point x="488" y="1200" type="qcurve" smooth="yes"/>
    </contour>
  </outline>
</glyph>
<glyph name="uni1792" format="1">
  <advance width="1450"/>
  <unicode hex="1792"/>
  <outline>
    <contour>
      <point x="962" y="600" type="line"/>
      <point x="932" y="600"/>
      <point x="862" y="700"/>
      <point x="862" y="755" type="qcurve" smooth="yes"/>
      <point x="862" y="812"/>
      <point x="901" y="901"/>
      <point x="1012" y="1000"/>
      <point x="1106" y="1000" type="qcurve" smooth="yes"/>
      <point x="1250" y="1000"/>
      <point x="1250" y="900" type="qcurve" smooth="yes"/>
      <point x="1250" y="0" type="line"/>
      <point x="1012" y="0" type="line"/>
      <point x="725" y="236" type="line"/>
      <point x="438" y="0" type="line"/>
      <point x="200" y="0" type="line"/>
      <point x="200" y="1016" type="line"/>
      <point x="130" y="1064"/>
      <point x="130" y="1127" type="qcurve" smooth="yes"/>
      <point x="130" y="1202" type="line" smooth="yes"/>
      <point x="130" y="1254"/>
      <point x="201" y="1315" type="qcurve" smooth="yes"/>
      <point x="273" y="1376" type="line" smooth="yes"/>
      <point x="415" y="1500"/>
      <point x="450" y="1500" type="qcurve" smooth="yes"/>
      <point x="491" y="1500"/>
      <point x="608" y="1388" type="qcurve" smooth="yes"/>
      <point x="667" y="1332" type="line" smooth="yes"/>
      <point x="696" y="1303"/>
      <point x="729" y="1303" type="qcurve" smooth="yes"/>
      <point x="756" y="1303"/>
      <point x="785" y="1332" type="qcurve" smooth="yes"/>
      <point x="839" y="1388" type="line" smooth="yes"/>
      <point x="949" y="1500"/>
      <point x="988" y="1500" type="qcurve" smooth="yes"/>
      <point x="1026" y="1500"/>
      <point x="1089" y="1438" type="qcurve" smooth="yes"/>
      <point x="1217" y="1313" type="line" smooth="yes"/>
      <point x="1255" y="1276"/>
      <point x="1294" y="1276" type="qcurve" smooth="yes"/>
      <point x="1323" y="1276"/>
      <point x="1350" y="1294" type="qcurve"/>
      <point x="1274" y="1127"/>
      <point x="1173" y="1127" type="qcurve" smooth="yes"/>
      <point x="1059" y="1127"/>
      <point x="1020" y="1166" type="qcurve" smooth="yes"/>
      <point x="935" y="1247" type="line" smooth="yes"/>
      <point x="911" y="1268"/>
      <point x="895" y="1268" type="qcurve" smooth="yes"/>
      <point x="878" y="1268"/>
      <point x="815" y="1208" type="qcurve"/>
      <point x="751" y="1127"/>
      <point x="646" y="1127" type="qcurve" smooth="yes"/>
      <point x="548" y="1127"/>
      <point x="454" y="1208" type="qcurve" smooth="yes"/>
      <point x="406" y="1248" type="line" smooth="yes"/>
      <point x="380" y="1268"/>
      <point x="361" y="1268" type="qcurve" smooth="yes"/>
      <point x="341" y="1268"/>
      <point x="317" y="1251" type="qcurve"/>
      <point x="293" y="1214"/>
      <point x="293" y="1178" type="qcurve" smooth="yes"/>
      <point x="293" y="1128"/>
      <point x="488" y="1032" type="qcurve"/>
      <point x="488" y="227" type="line"/>
      <point x="725" y="423" type="line"/>
      <point x="962" y="227" type="line"/>
    </contour>
  </outline>
</glyph>
<glyph name="uni1793" format="1">
  <advance width="1450"/>
  <unicode hex="1793"/>
  <outline>
    <contour>
      <point x="927" y="1059" type="qcurve" smooth="yes"/>
      <point x="914" y="1052"/>
      <point x="914" y="1040" type="qcurve" smooth="yes"/>
      <point x="914" y="990"/>
      <point x="962" y="990" type="qcurve"/>
      <point x="962" y="1065" type="line"/>
      <point x="939" y="1065"/>
    </contour>
    <contour>
      <point x="1250" y="250" type="line" smooth="yes"/>
      <point x="1250" y="117"/>
      <point x="1176" y="58" type="qcurve" smooth="yes"/>
      <point x="1102" y="0"/>
      <point x="903" y="0" type="qcurve" smooth="yes"/>
      <point x="814" y="0"/>
      <point x="689" y="78"/>
      <point x="634" y="156" type="qcurve" smooth="yes"/>
      <point x="600" y="203"/>
      <point x="536" y="266"/>
      <point x="488" y="266" type="qcurve"/>
      <point x="488" y="0" type="line"/>
      <point x="200" y="0" type="line"/>
      <point x="200" y="673" type="line"/>
      <point x="488" y="583" type="line"/>
      <point x="488" y="400" type="line"/>
      <point x="565" y="400"/>
      <point x="682" y="312"/>
      <point x="736" y="238" type="qcurve" smooth="yes"/>
      <point x="790" y="163"/>
      <point x="844" y="144"/>
      <point x="903" y="144" type="qcurve" smooth="yes"/>
      <point x="944" y="144"/>
      <point x="962" y="197"/>
      <point x="962" y="250" type="qcurve" smooth="yes"/>
      <point x="962" y="580" type="line"/>
      <point x="645" y="689" type="line" smooth="yes"/>
      <point x="200" y="845"/>
      <point x="200" y="1050" type="qcurve" smooth="yes"/>
      <point x="200" y="1200" type="line" smooth="yes"/>
      <point x="200" y="1300"/>
      <point x="450" y="1500"/>
      <point x="700" y="1500" type="qcurve" smooth="yes"/>
      <point x="750" y="1500" type="line" smooth="yes"/>
      <point x="1000" y="1500"/>
      <point x="1250" y="1300"/>
      <point x="1250" y="1200" type="qcurve" smooth="yes"/>
      <point x="1250" y="990" type="line" smooth="yes"/>
      <point x="1250" y="890"/>
      <point x="1106" y="890" type="qcurve" smooth="yes"/>
      <point x="962" y="890" type="line" smooth="yes"/>
      <point x="814" y="890"/>
      <point x="814" y="1040" type="qcurve" smooth="yes"/>
      <point x="814" y="1102"/>
      <point x="851" y="1134" type="qcurve" smooth="yes"/>
      <point x="888" y="1165"/>
      <point x="962" y="1165" type="qcurve"/>
      <point x="962" y="1200" type="line" smooth="yes"/>
      <point x="962" y="1258"/>
      <point x="856" y="1356"/>
      <point x="750" y="1356" type="qcurve" smooth="yes"/>
      <point x="700" y="1356" type="line" smooth="yes"/>
      <point x="594" y="1356"/>
      <point x="488" y="1258"/>
      <point x="488" y="1200" type="qcurve" smooth="yes"/>
      <point x="488" y="1050" type="line" smooth="yes"/>
      <point x="488" y="895"/>
      <point x="721" y="815" type="qcurve" smooth="yes"/>
      <point x="1250" y="632" type="line"/>
    </contour>
  </outline>
</glyph>
<glyph name="uni1797" format="1">
  <advance width="1475"/>
  <unicode hex="1797"/>
  <outline>
    <contour>
      <point x="225" y="0" type="line"/>
      <point x="144" y="189"/>
      <point x="122" y="239" type="qcurve" smooth="yes"/>
      <point x="100" y="288"/>
      <point x="100" y="345" type="qcurve" smooth="yes"/>
      <point x="100" y="400"/>
      <point x="138" y="450" type="qcurve" smooth="yes"/>
      <point x="175" y="500"/>
      <point x="225" y="500" type="qcurve"/>
      <point x="225" y="750" type="line" smooth="yes"/>
      <point x="225" y="850"/>
      <point x="525" y="1050"/>
      <point x="725" y="1050" type="qcurve" smooth="yes"/>
      <point x="775" y="1050" type="line" smooth="yes"/>
      <point x="975" y="1050"/>
      <point x="1275" y="850"/>
      <point x="1275" y="750" type="qcurve" smooth="yes"/>
      <point x="1275" y="0" type="line"/>
      <point x="987" y="0" type="line"/>
      <point x="987" y="750" type="line" smooth="yes"/>
      <point x="987" y="808"/>
      <point x="881" y="906"/>
      <point x="775" y="906" type="qcurve" smooth="yes"/>
      <point x="725" y="906" type="line" smooth="yes"/>
      <point x="619" y="906"/>
      <point x="513" y="808"/>
      <point x="513" y="750" type="qcurve" smooth="yes"/>
      <point x="513" y="0" type="line"/>
    </contour>
    <contour>
      <point x="155" y="1127" type="qcurve" smooth="yes"/>
      <point x="155" y="1202" type="line" smooth="yes"/>
      <point x="155" y="1254"/>
      <point x="226" y="1315" type="qcurve" smooth="yes"/>
      <point x="298" y="1376" type="line" smooth="yes"/>
      <point x="440" y="1500"/>
      <point x="475" y="1500" type="qcurve" smooth="yes"/>
      <point x="516" y="1500"/>
      <point x="633" y="1388" type="qcurve" smooth="yes"/>
      <point x="692" y="1332" type="line" smooth="yes"/>
      <point x="721" y="1303"/>
      <point x="754" y="1303" type="qcurve" smooth="yes"/>
      <point x="781" y="1303"/>
      <point x="810" y="1332" type="qcurve" smooth="yes"/>
      <point x="864" y="1388" type="line" smooth="yes"/>
      <point x="974" y="1500"/>
      <point x="1013" y="1500" type="qcurve" smooth="yes"/>
      <point x="1051" y="1500"/>
      <point x="1114" y="1438" type="qcurve" smooth="yes"/>
      <point x="1242" y="1313" type="line" smooth="yes"/>
      <point x="1280" y="1276"/>
      <point x="1319" y="1276" type="qcurve" smooth="yes"/>
      <point x="1348" y="1276"/>
      <point x="1375" y="1294" type="qcurve"/>
      <point x="1299" y="1127"/>
      <point x="1198" y="1127" type="qcurve" smooth="yes"/>
      <point x="1084" y="1127"/>
      <point x="1045" y="1166" type="qcurve" smooth="yes"/>
      <point x="960" y="1247" type="line" smooth="yes"/>
      <point x="936" y="1268"/>
      <point x="920" y="1268" type="qcurve" smooth="yes"/>
      <point x="903" y="1268"/>
      <point x="840" y="1208" type="qcurve"/>
      <point x="776" y="1127"/>
      <point x="671" y="1127" type="qcurve" smooth="yes"/>
      <point x="573" y="1127"/>
      <point x="479" y="1208" type="qcurve" smooth="yes"/>
      <point x="431" y="1248" type="line" smooth="yes"/>
      <point x="405" y="1268"/>
      <point x="386" y="1268" type="qcurve" smooth="yes"/>
      <point x="366" y="1268"/>
      <point x="342" y="1251" type="qcurve"/>
      <point x="318" y="1214"/>
      <point x="318" y="1178" type="qcurve" smooth="yes"/>
      <point x="318" y="1128"/>
      <point x="468" y="1058" type="qcurve"/>
      <point x="327" y="967" type="line"/>
      <point x="155" y="1028"/>
    </contour>
  </outline>
</glyph>
<glyph name="uni1799" format="1">
  <advance width="2162"/>
  <unicode hex="1799"/>
  <outline>
    <contour>
      <point x="200" y="1400" type="line" smooth="yes"/>
      <point x="200" y="1500"/>
      <point x="374" y="1500" type="qcurve" smooth="yes"/>
      <point x="488" y="1500"/>
      <point x="569" y="1311"/>
      <point x="591" y="1261" type="qcurve" smooth="yes"/>
      <point x="613" y="1212"/>
      <point x="613" y="1155" type="qcurve" smooth="yes"/>
      <point x="613" y="1100"/>
      <point x="575" y="1050" type="qcurve" smooth="yes"/>
      <point x="538" y="1000"/>
      <point x="488" y="1000" type="qcurve"/>
      <point x="488" y="300" type="line" smooth="yes"/>
      <point x="488" y="242"/>
      <point x="594" y="144"/>
      <point x="725" y="144" type="qcurve" smooth="yes"/>
      <point x="856" y="144"/>
      <point x="962" y="242"/>
      <point x="962" y="300" type="qcurve" smooth="yes"/>
      <point x="962" y="1002" type="line"/>
      <point x="884" y="1046" type="line" smooth="yes"/>
      <point x="787" y="1099"/>
      <point x="787" y="1131" type="qcurve" smooth="yes"/>
      <point x="787" y="1162"/>
      <point x="848" y="1247" type="qcurve" smooth="yes"/>
      <point x="1033" y="1500" type="line"/>
      <point x="1151" y="1438" type="line"/>
      <point x="1211" y="1406" type="line" smooth="yes"/>
      <point x="1262" y="1379"/>
      <point x="1298" y="1379" type="qcurve" smooth="yes"/>
      <point x="1305" y="1379"/>
      <point x="1310" y="1380" type="qcurve" smooth="yes"/>
      <point x="1350" y="1385" type="line"/>
      <point x="1350" y="1350"/>
      <point x="1240" y="1172"/>
      <point x="1195" y="1166" type="qcurve" smooth="yes"/>
      <point x="1188" y="1165"/>
      <point x="1181" y="1165" type="qcurve" smooth="yes"/>
      <point x="1139" y="1165"/>
      <point x="1076" y="1199" type="qcurve" smooth="yes"/>
      <point x="1002" y="1238" type="line"/>
      <point x="955" y="1163" type="line"/>
      <point x="1250" y="1004" type="line"/>
      <point x="1250" y="300" type="line" smooth="yes"/>
      <point x="1250" y="242"/>
      <point x="1356" y="144"/>
      <point x="1462" y="144" type="qcurve" smooth="yes"/>
      <point x="1568" y="144"/>
      <point x="1674" y="242"/>
      <point x="1674" y="300" type="qcurve" smooth="yes"/>
      <point x="1674" y="1002" type="line"/>
      <point x="1596" y="1046" type="line" smooth="yes"/>
      <point x="1499" y="1099"/>
      <point x="1499" y="1131" type="qcurve" smooth="yes"/>
      <point x="1499" y="1162"/>
      <point x="1560" y="1247" type="qcurve" smooth="yes"/>
      <point x="1745" y="1500" type="line"/>
      <point x="1863" y="1438" type="line"/>
      <point x="1923" y="1406" type="line" smooth="yes"/>
      <point x="1974" y="1379"/>
      <point x="2010" y="1379" type="qcurve" smooth="yes"/>
      <point x="2017" y="1379"/>
      <point x="2022" y="1380" type="qcurve" smooth="yes"/>
      <point x="2062" y="1385" type="line"/>
      <point x="2062" y="1350"/>
      <point x="1952" y="1172"/>
      <point x="1907" y="1166" type="qcurve" smooth="yes"/>
      <point x="1900" y="1165"/>
      <point x="1893" y="1165" type="qcurve" smooth="yes"/>
      <point x="1851" y="1165"/>
      <point x="1788" y="1199" type="qcurve" smooth="yes"/>
      <point x="1714" y="1238" type="line"/>
      <point x="1667" y="1163" type="line"/>
      <point x="1962" y="1005" type="line"/>
      <point x="1962" y="300" type="line" smooth="yes"/>
      <point x="1962" y="200"/>
      <point x="1712" y="0"/>
      <point x="1462" y="0" type="qcurve" smooth="yes"/>
      <point x="1262" y="0"/>
      <point x="1137" y="100" type="qcurve" smooth="yes"/>
      <point x="1120" y="113"/>
      <point x="1106" y="127" type="qcurve"/>
      <point x="1092" y="113"/>
      <point x="1075" y="100" type="qcurve" smooth="yes"/>
      <point x="950" y="0"/>
      <point x="700" y="0" type="qcurve" smooth="yes"/>
      <point x="450" y="0"/>
      <point x="200" y="200"/>
      <point x="200" y="300" type="qcurve" smooth="yes"/>
    </contour>
  </outline>
</glyph>
<glyph name="uni179A" format="1">
  <advance width="713"/>
  <unicode hex="179A"/>
  <outline>
    <contour>
      <point x="513" y="0" type="line"/>
      <point x="225" y="0" type="line"/>
      <point x="144" y="189"/>
      <point x="122" y="239" type="qcurve" smooth="yes"/>
      <point x="100" y="288"/>
      <point x="100" y="345" type="qcurve" smooth="yes"/>
      <point x="100" y="400"/>
      <point x="138" y="450" type="qcurve" smooth="yes"/>
      <point x="175" y="500"/>
      <point x="225" y="500" type="qcurve"/>
      <point x="225" y="1002" type="line"/>
      <point x="147" y="1046" type="line" smooth="yes"/>
      <point x="50" y="1099"/>
      <point x="50" y="1131" type="qcurve" smooth="yes"/>
      <point x="50" y="1162"/>
      <point x="111" y="1247" type="qcurve" smooth="yes"/>
      <point x="296" y="1500" type="line"/>
      <point x="414" y="1438" type="line"/>
      <point x="474" y="1406" type="line" smooth="yes"/>
      <point x="525" y="1379"/>
      <point x="561" y="1379" type="qcurve" smooth="yes"/>
      <point x="568" y="1379"/>
      <point x="573" y="1380" type="qcurve" smooth="yes"/>
      <point x="613" y="1385" type="line"/>
      <point x="613" y="1350"/>
      <point x="503" y="1172"/>
      <point x="458" y="1166" type="qcurve" smooth="yes"/>
      <point x="451" y="1165"/>
      <point x="444" y="1165" type="qcurve" smooth="yes"/>
      <point x="402" y="1165"/>
      <point x="339" y="1199" type="qcurve" smooth="yes"/>
      <point x="265" y="1238" type="line"/>
      <point x="218" y="1163" type="line"/>
      <point x="513" y="1004" type="line"/>
    </contour>
  </outline>
</glyph>
<glyph name="uni179B" format="1">
  <advance width="2162"/>
  <unicode hex="179B"/>
  <outline>
    <contour>
      <point x="488" y="465" type="qcurve"/>
      <point x="488" y="241" type="line"/>
      <point x="566" y="320"/>
      <point x="566" y="389" type="qcurve" smooth="yes"/>
      <point x="566" y="429"/>
      <point x="539" y="448" type="qcurve" smooth="yes"/>
      <point x="518" y="462"/>
    </contour>
    <contour>
      <point x="965" y="605" type="line"/>
      <point x="962" y="605" type="line"/>
      <point x="962" y="1050" type="line" smooth="yes"/>
      <point x="962" y="1126"/>
      <point x="729" y="1322"/>
      <point x="640" y="1322" type="qcurve" smooth="yes"/>
      <point x="536" y="1322"/>
      <point x="389" y="1173" type="qcurve"/>
      <point x="427" y="1148" type="line" smooth="yes"/>
      <point x="488" y="1110"/>
      <point x="488" y="1050" type="qcurve" smooth="yes"/>
      <point x="488" y="598" type="line"/>
      <point x="611" y="589"/>
      <point x="647" y="541" type="qcurve" smooth="yes"/>
      <point x="690" y="481"/>
      <point x="690" y="415" type="qcurve" smooth="yes"/>
      <point x="690" y="337"/>
      <point x="650" y="250" type="qcurve" smooth="yes"/>
      <point x="610" y="162"/>
      <point x="488" y="0" type="qcurve"/>
      <point x="200" y="0" type="line"/>
      <point x="200" y="1008" type="line"/>
      <point x="138" y="1046" type="line" smooth="yes"/>
      <point x="90" y="1075"/>
      <point x="90" y="1140" type="qcurve" smooth="yes"/>
      <point x="90" y="1205"/>
      <point x="538" y="1500"/>
      <point x="640" y="1500" type="qcurve" smooth="yes"/>
      <point x="798" y="1500"/>
      <point x="1250" y="1225"/>
      <point x="1250" y="1050" type="qcurve" smooth="yes"/>
      <point x="1250" y="676" type="line"/>
      <point x="1253" y="676" type="line"/>
      <point x="1253" y="300" type="line" smooth="yes"/>
      <point x="1253" y="242"/>
      <point x="1359" y="144"/>
      <point x="1465" y="144" type="qcurve" smooth="yes"/>
      <point x="1571" y="144"/>
      <point x="1677" y="242"/>
      <point x="1677" y="300" type="qcurve" smooth="yes"/>
      <point x="1677" y="1002" type="line"/>
      <point x="1599" y="1046" type="line" smooth="yes"/>
      <point x="1502" y="1099"/>
      <point x="1502" y="1131" type="qcurve" smooth="yes"/>
      <point x="1502" y="1162"/>
      <point x="1563" y="1247" type="qcurve" smooth="yes"/>
      <point x="1748" y="1500" type="line"/>
      <point x="1866" y="1438" type="line"/>
      <point x="1926" y="1406" type="line" smooth="yes"/>
      <point x="1977" y="1379"/>
      <point x="2013" y="1379" type="qcurve" smooth="yes"/>
      <point x="2020" y="1379"/>
      <point x="2025" y="1380" type="qcurve" smooth="yes"/>
      <point x="2065" y="1385" type="line"/>
      <point x="2065" y="1350"/>
      <point x="1955" y="1172"/>
      <point x="1910" y="1166" type="qcurve" smooth="yes"/>
      <point x="1903" y="1165"/>
      <point x="1896" y="1165" type="qcurve" smooth="yes"/>
      <point x="1854" y="1165"/>
      <point x="1791" y="1199" type="qcurve" smooth="yes"/>
      <point x="1717" y="1238" type="line"/>
      <point x="1670" y="1163" type="line"/>
      <point x="1965" y="1004" type="line"/>
      <point x="1965" y="300" type="line" smooth="yes"/>
      <point x="1965" y="200"/>
      <point x="1715" y="0"/>
      <point x="1465" y="0" type="qcurve" smooth="yes"/>
      <point x="1215" y="0"/>
      <point x="965" y="200"/>
      <point x="965" y="300" type="qcurve" smooth="yes"/>
    </contour>
  </outline>
</glyph>
<glyph name="uni179E" format="1">
  <advance width="1475"/>
  <unicode hex="179E"/>
  <outline>
    <contour>
      <point x="1275" y="744" type="line"/>
      <point x="1350" y="744" type="line"/>
      <point x="1350" y="600" type="line"/>
      <point x="1275" y="600" type="line"/>
      <point x="1275" y="300" type="line" smooth="yes"/>
      <point x="1275" y="200"/>
      <point x="1025" y="0"/>
      <point x="775" y="0" type="qcurve" smooth="yes"/>
      <point x="725" y="0" type="line" smooth="yes"/>
      <point x="475" y="0"/>
      <point x="225" y="200"/>
      <point x="225" y="300" type="qcurve" smooth="yes"/>
      <point x="225" y="1002" type="line"/>
      <point x="147" y="1046" type="line" smooth="yes"/>
      <point x="50" y="1099"/>
      <point x="50" y="1131" type="qcurve" smooth="yes"/>
      <point x="50" y="1162"/>
      <point x="111" y="1247" type="qcurve" smooth="yes"/>
      <point x="296" y="1500" type="line"/>
      <point x="414" y="1438" type="line"/>
      <point x="474" y="1406" type="line" smooth="yes"/>
      <point x="525" y="1379"/>
      <point x="561" y="1379" type="qcurve" smooth="yes"/>
      <point x="568" y="1379"/>
      <point x="573" y="1380" type="qcurve" smooth="yes"/>
      <point x="613" y="1385" type="line"/>
      <point x="613" y="1350"/>
      <point x="503" y="1172"/>
      <point x="458" y="1166" type="qcurve" smooth="yes"/>
      <point x="451" y="1165"/>
      <point x="444" y="1165" type="qcurve" smooth="yes"/>
      <point x="402" y="1165"/>
      <point x="339" y="1199" type="qcurve" smooth="yes"/>
      <point x="265" y="1238" type="line"/>
      <point x="218" y="1163" type="line"/>
      <point x="513" y="1005" type="line"/>
      <point x="513" y="300" type="line" smooth="yes"/>
      <point x="513" y="242"/>
      <point x="619" y="144"/>
      <point x="725" y="144" type="qcurve" smooth="yes"/>
      <point x="775" y="144" type="line" smooth="yes"/>
      <point x="881" y="144"/>
      <point x="987" y="242"/>
      <point x="987" y="300" type="qcurve" smooth="yes"/>
      <point x="987" y="600" type="line"/>
      <point x="850" y="600" type="line"/>
      <point x="850" y="744" type="line"/>
      <point x="987" y="744" type="line"/>
      <point x="987" y="1002" type="line"/>
      <point x="909" y="1046" type="line" smooth="yes"/>
      <point x="812" y="1099"/>
      <point x="812" y="1131" type="qcurve" smooth="yes"/>
      <point x="812" y="1162"/>
      <point x="873" y="1247" type="qcurve" smooth="yes"/>
      <point x="1058" y="1500" type="line"/>
      <point x="1176" y="1438" type="line"/>
      <point x="1236" y="1406" type="line" smooth="yes"/>
      <point x="1287" y="1379"/>
      <point x="1323" y="1379" type="qcurve" smooth="yes"/>
      <point x="1330" y="1379"/>
      <point x="1335" y="1380" type="qcurve" smooth="yes"/>
      <point x="1375" y="1385" type="line"/>
      <point x="1375" y="1350"/>
      <point x="1265" y="1172"/>
      <point x="1220" y="1166" type="qcurve" smooth="yes"/>
      <point x="1213" y="1165"/>
      <point x="1206" y="1165" type="qcurve" smooth="yes"/>
      <point x="1164" y="1165"/>
      <point x="1101" y="1199" type="qcurve" smooth="yes"/>
      <point x="1027" y="1238" type="line"/>
      <point x="980" y="1163" type="line"/>
      <point x="1275" y="1004" type="line"/>
    </contour>
  </outline>
</glyph>
<glyph name="uni17A2" format="1">
  <advance width="1475"/>
  <unicode hex="17A2"/>
  <outline>
    <contour>
      <point x="513" y="658" type="line"/>
      <point x="513" y="0" type="line"/>
      <point x="225" y="0" type="line"/>
      <point x="144" y="189"/>
      <point x="122" y="239" type="qcurve" smooth="yes"/>
      <point x="100" y="288"/>
      <point x="100" y="345" type="qcurve" smooth="yes"/>
      <point x="100" y="400"/>
      <point x="138" y="450" type="qcurve" smooth="yes"/>
      <point x="175" y="500"/>
      <point x="225" y="500" type="qcurve"/>
      <point x="225" y="1002" type="line"/>
      <point x="147" y="1046" type="line" smooth="yes"/>
      <point x="50" y="1099"/>
      <point x="50" y="1131" type="qcurve" smooth="yes"/>
      <point x="50" y="1162"/>
      <point x="111" y="1247" type="qcurve" smooth="yes"/>
      <point x="296" y="1500" type="line"/>
      <point x="414" y="1438" type="line"/>
      <point x="474" y="1406" type="line" smooth="yes"/>
      <point x="525" y="1379"/>
      <point x="561" y="1379" type="qcurve" smooth="yes"/>
      <point x="568" y="1379"/>
      <point x="573" y="1380" type="qcurve" smooth="yes"/>
      <point x="613" y="1385" type="line"/>
      <point x="613" y="1350"/>
      <point x="503" y="1172"/>
      <point x="458" y="1166" type="qcurve" smooth="yes"/>
      <point x="451" y="1165"/>
      <point x="444" y="1165" type="qcurve" smooth="yes"/>
      <point x="402" y="1165"/>
      <point x="339" y="1199" type="qcurve" smooth="yes"/>
      <point x="265" y="1238" type="line"/>
      <point x="218" y="1163" type="line"/>
      <point x="513" y="1004" type="line"/>
      <point x="513" y="802" type="line"/>
      <point x="987" y="802" type="line"/>
      <point x="987" y="1002" type="line"/>
      <point x="909" y="1046" type="line" smooth="yes"/>
      <point x="812" y="1099"/>
      <point x="812" y="1131" type="qcurve" smooth="yes"/>
      <point x="812" y="1162"/>
      <point x="873" y="1247" type="qcurve" smooth="yes"/>
      <point x="1058" y="1500" type="line"/>
      <point x="1176" y="1438" type="line"/>
      <point x="1236" y="1406" type="line" smooth="yes"/>
      <point x="1287" y="1379"/>
      <point x="1323" y="1379" type="qcurve" smooth="yes"/>
      <point x="1330" y="1379"/>
      <point x="1335" y="1380" type="qcurve" smooth="yes"/>
      <point x="1375" y="1385" type="line"/>
      <point x="1375" y="1350"/>
      <point x="1265" y="1172"/>
      <point x="1220" y="1166" type="qcurve" smooth="yes"/>
      <point x="1213" y="1165"/>
      <point x="1206" y="1165" type="qcurve" smooth="yes"/>
      <point x="1164" y="1165"/>
      <point x="1101" y="1199" type="qcurve" smooth="yes"/>
      <point x="1027" y="1238" type="line"/>
      <point x="980" y="1163" type="line"/>
      <point x="1275" y="1004" type="line"/>
      <point x="1275" y="0" type="line"/>
      <point x="987" y="0" type="line"/>
      <point x="906" y="189"/>
      <point x="884" y="239" type="qcurve" smooth="yes"/>
      <point x="862" y="288"/>
      <point x="862" y="345" type="qcurve" smooth="yes"/>
      <point x="862" y="400"/>
      <point x="900" y="450" type="qcurve" smooth="yes"/>
      <point x="937" y="500"/>
      <point x="987" y="500" type="qcurve"/>
      <point x="987" y="658" type="line"/>
    </contour>
  </outline>
</glyph>
<glyph name="uni17A5" format="1">
  <advance width="1450"/>
  <unicode hex="17A5"/>
  <outline>
    <contour>
      <point x="488" y="500" type="line"/>
      <point x="588" y="500"/>
      <point x="625" y="450" type="qcurve" smooth="yes"/>
      <point x="663" y="400"/>
      <point x="663" y="345" type="qcurve" smooth="yes"/>
      <point x="663" y="288"/>
      <point x="641" y="239" type="qcurve" smooth="yes"/>
      <point x="619" y="189"/>
      <point x="554" y="95" type="qcurve" smooth="yes"/>
      <point x="488" y="0" type="line"/>
      <point x="200" y="0" type="line"/>
      <point x="200" y="750" type="line" smooth="yes"/>
      <point x="200" y="850"/>
      <point x="500" y="1050"/>
      <point x="700" y="1050" type="qcurve" smooth="yes"/>
      <point x="750" y="1050" type="line" smooth="yes"/>
      <point x="950" y="1050"/>
      <point x="1250" y="850"/>
      <point x="1250" y="750" type="qcurve" smooth="yes"/>
      <point x="1250" y="0" type="line"/>
      <point x="962" y="0" type="line"/>
      <point x="962" y="750" type="line" smooth="yes"/>
      <point x="962" y="808"/>
      <point x="856" y="906"/>
      <point x="750" y="906" type="qcurve" smooth="yes"/>
      <point x="700" y="906" type="line" smooth="yes"/>
      <point x="594" y="906"/>
      <point x="488" y="808"/>
      <point x="488" y="750" type="qcurve" smooth="yes"/>
    </contour>
    <contour>
      <point x="488" y="361" type="qcurve"/>
      <point x="488" y="234" type="line"/>
      <point x="538" y="284"/>
      <point x="538" y="315" type="qcurve" smooth="yes"/>
      <point x="538" y="340"/>
      <point x="523" y="351" type="qcurve" smooth="yes"/>
      <point x="508" y="361"/>
    </contour>
    <contour>
      <point x="100" y="1127"/>
      <point x="100" y="1165" type="qcurve" smooth="yes"/>
      <point x="100" y="1202"/>
      <point x="130" y="1254"/>
      <point x="442" y="1500"/>
      <point x="471" y="1500" type="qcurve" smooth="yes"/>
      <point x="550" y="1500"/>
      <point x="702" y="1388" type="qcurve"/>
      <point x="858" y="1280"/>
      <point x="940" y="1280" type="qcurve" smooth="yes"/>
      <point x="1032" y="1280"/>
      <point x="1074" y="1315" type="qcurve" smooth="yes"/>
      <point x="1116" y="1350"/>
      <point x="1116" y="1400" type="qcurve" smooth="yes"/>
      <point x="1116" y="1472"/>
      <point x="970" y="1472" type="qcurve" smooth="yes"/>
      <point x="840" y="1472"/>
      <point x="840" y="1586" type="qcurve" smooth="yes"/>
      <point x="840" y="1700"/>
      <point x="970" y="1700" type="qcurve" smooth="yes"/>
      <point x="1100" y="1700"/>
      <point x="1175" y="1619" type="qcurve" smooth="yes"/>
      <point x="1250" y="1538"/>
      <point x="1250" y="1400" type="qcurve" smooth="yes"/>
      <point x="1250" y="1278"/>
      <point x="1079" y="1106"/>
      <point x="860" y="1106" type="qcurve" smooth="yes"/>
      <point x="649" y="1106"/>
      <point x="512" y="1204" type="qcurve" smooth="yes"/>
      <point x="448" y="1249" type="line" smooth="yes"/>
      <point x="413" y="1276"/>
      <point x="386" y="1276" type="qcurve" smooth="yes"/>
      <point x="380" y="1276"/>
      <point x="375" y="1275" type="qcurve" smooth="yes"/>
      <point x="344" y="1268"/>
      <point x="312" y="1231" type="qcurve" smooth="yes"/>
      <point x="289" y="1206" type="line" smooth="yes"/>
      <point x="279" y="1195"/>
      <point x="279" y="1183" type="qcurve" smooth="yes"/>
      <point x="279" y="1166"/>
      <point x="297" y="1147" type="qcurve"/>
      <point x="406" y="1079" type="line"/>
      <point x="220" y="968" type="line"/>
      <point x="130" y="1076"/>
    </contour>
  </outline>
</glyph>
<glyph name="uni17A6" format="1">
  <advance width="2137"/>
  <unicode hex="17A6"/>
  <outline>
    <contour>
      <point x="488" y="361" type="qcurve"/>
      <point x="488" y="234" type="line"/>
      <point x="538" y="284"/>
      <point x="538" y="315" type="qcurve" smooth="yes"/>
      <point x="538" y="340"/>
      <point x="523" y="351" type="qcurve" smooth="yes"/>
      <point x="508" y="361"/>
    </contour>
    <contour>
      <point x="200" y="1200" type="line" smooth="yes"/>
      <point x="200" y="1300"/>
      <point x="500" y="1500"/>
      <point x="700" y="1500" type="qcurve" smooth="yes"/>
      <point x="750" y="1500" type="line" smooth="yes"/>
      <point x="950" y="1500"/>
      <point x="1250" y="1300"/>
      <point x="1250" y="1200" type="qcurve" smooth="yes"/>
      <point x="1250" y="0" type="line"/>
      <point x="962" y="0" type="line"/>
      <point x="962" y="1200" type="line" smooth="yes"/>
      <point x="962" y="1258"/>
      <point x="856" y="1356"/>
      <point x="750" y="1356" type="qcurve" smooth="yes"/>
      <point x="700" y="1356" type="line" smooth="yes"/>
      <point x="594" y="1356"/>
      <point x="488" y="1258"/>
      <point x="488" y="1200" type="qcurve" smooth="yes"/>
      <point x="488" y="500" type="line"/>
      <point x="588" y="500"/>
      <point x="625" y="450" type="qcurve" smooth="yes"/>
      <point x="663" y="400"/>
      <point x="663" y="345" type="qcurve" smooth="yes"/>
      <point x="663" y="288"/>
      <point x="641" y="239" type="qcurve" smooth="yes"/>
      <point x="619" y="189"/>
      <point x="554" y="95" type="qcurve" smooth="yes"/>
      <point x="488" y="0" type="line"/>
      <point x="200" y="0" type="line"/>
    </contour>
    <contour>
      <point x="1962" y="-450" type="line" smooth="yes"/>
      <point x="1962" y="-650"/>
      <point x="1675" y="-650" type="qcurve" smooth="yes"/>
      <point x="1200" y="-650" type="line" smooth="yes"/>
      <point x="912" y="-650"/>
      <point x="912" y="-450" type="qcurve" smooth="yes"/>
      <point x="912" y="-350" type="line" smooth="yes"/>
      <point x="912" y="-292"/>
      <point x="806" y="-194"/>
      <point x="725" y="-194" type="qcurve" smooth="yes"/>
      <point x="644" y="-194"/>
      <point x="538" y="-292"/>
      <point x="538" y="-350" type="qcurve" smooth="yes"/>
      <point x="538" y="-400" type="line"/>
      <point x="578" y="-400"/>
      <point x="606" y="-425" type="qcurve" smooth="yes"/>
      <point x="633" y="-450"/>
      <point x="633" y="-486" type="qcurve" smooth="yes"/>
      <point x="633" y="-562"/>
      <point x="538" y="-650"/>
      <point x="474" y="-650" type="qcurve" smooth="yes"/>
      <point x="250" y="-650"/>
      <point x="250" y="-550" type="qcurve" smooth="yes"/>
      <point x="250" y="-350" type="line" smooth="yes"/>
      <point x="250" y="-250"/>
      <point x="500" y="-50"/>
      <point x="725" y="-50" type="qcurve" smooth="yes"/>
      <point x="950" y="-50"/>
      <point x="1200" y="-250"/>
      <point x="1200" y="-350" type="qcurve" smooth="yes"/>
      <point x="1200" y="-450" type="line" smooth="yes"/>
      <point x="1200" y="-516"/>
      <point x="1344" y="-516" type="qcurve" smooth="yes"/>
      <point x="1531" y="-516" type="line" smooth="yes"/>
      <point x="1674" y="-516"/>
      <point x="1674" y="-450" type="qcurve" smooth="yes"/>
      <point x="1674" y="993" type="line"/>
      <point x="1587" y="1046" type="line" smooth="yes"/>
      <point x="1499" y="1099"/>
      <point x="1499" y="1131" type="qcurve" smooth="yes"/>
      <point x="1499" y="1162"/>
      <point x="1703" y="1500" type="qcurve"/>
      <point x="1838" y="1368"/>
      <point x="1869" y="1368" type="qcurve" smooth="yes"/>
      <point x="1872" y="1368" type="line"/>
      <point x="1899" y="1376"/>
      <point x="1899" y="1440" type="qcurve" smooth="yes"/>
      <point x="1899" y="1502"/>
      <point x="1803" y="1542" type="qcurve" smooth="yes"/>
      <point x="1720" y="1577"/>
      <point x="1720" y="1625" type="qcurve" smooth="yes"/>
      <point x="1720" y="1633"/>
      <point x="1722" y="1641" type="qcurve" smooth="yes"/>
      <point x="1737" y="1700"/>
      <point x="1805" y="1700" type="qcurve" smooth="yes"/>
      <point x="1922" y="1700"/>
      <point x="2005" y="1640" type="qcurve" smooth="yes"/>
      <point x="2087" y="1580"/>
      <point x="2087" y="1440" type="qcurve" smooth="yes"/>
      <point x="2087" y="1258"/>
      <point x="2037" y="1207" type="qcurve" smooth="yes"/>
      <point x="1986" y="1156"/>
      <point x="1942" y="1156" type="qcurve" smooth="yes"/>
      <point x="1847" y="1156"/>
      <point x="1733" y="1225" type="qcurve"/>
      <point x="1709" y="1175" type="line"/>
      <point x="1962" y="1050" type="line"/>
    </contour>
  </outline>
</glyph>
<glyph name="uni17A8" format="1">
  <advance width="1450"/>
  <unicode hex="17A8"/>
  <outline>
    <contour>
      <point x="488" y="1025" type="qcurve"/>
      <point x="488" y="950" type="line"/>
      <point x="536" y="950"/>
      <point x="536" y="1000" type="qcurve" smooth="yes"/>
      <point x="536" y="1012"/>
      <point x="523" y="1019" type="qcurve" smooth="yes"/>
      <point x="511" y="1025"/>
    </contour>
    <contour>
      <point x="488" y="250" type="line" smooth="yes"/>
      <point x="488" y="197"/>
      <point x="512" y="171" type="qcurve" smooth="yes"/>
      <point x="536" y="144"/>
      <point x="577" y="144" type="qcurve" smooth="yes"/>
      <point x="616" y="144"/>
      <point x="738" y="312"/>
      <point x="885" y="400"/>
      <point x="962" y="400" type="qcurve"/>
      <point x="962" y="583" type="line"/>
      <point x="1250" y="673" type="line"/>
      <point x="1250" y="50" type="line" smooth="yes"/>
      <point x="1250" y="-100"/>
      <point x="1046" y="-100" type="qcurve" smooth="yes"/>
      <point x="892" y="-100"/>
      <point x="892" y="-28" type="qcurve"/>
      <point x="962" y="4"/>
      <point x="962" y="60" type="qcurve" smooth="yes"/>
      <point x="962" y="266" type="line"/>
      <point x="914" y="266"/>
      <point x="867" y="235" type="qcurve" smooth="yes"/>
      <point x="820" y="203"/>
      <point x="666" y="0"/>
      <point x="527" y="0" type="qcurve" smooth="yes"/>
      <point x="348" y="0"/>
      <point x="274" y="58" type="qcurve" smooth="yes"/>
      <point x="200" y="117"/>
      <point x="200" y="250" type="qcurve" smooth="yes"/>
      <point x="200" y="526" type="line"/>
      <point x="726" y="795" type="line"/>
      <point x="962" y="923"/>
      <point x="962" y="1050" type="qcurve" smooth="yes"/>
      <point x="962" y="1200" type="line" smooth="yes"/>
      <point x="962" y="1258"/>
      <point x="856" y="1356"/>
      <point x="750" y="1356" type="qcurve" smooth="yes"/>
      <point x="700" y="1356" type="line" smooth="yes"/>
      <point x="594" y="1356"/>
      <point x="488" y="1258"/>
      <point x="488" y="1200" type="qcurve" smooth="yes"/>
      <point x="488" y="1125" type="line"/>
      <point x="562" y="1125"/>
      <point x="599" y="1094" type="qcurve" smooth="yes"/>
      <point x="636" y="1062"/>
      <point x="636" y="1000" type="qcurve" smooth="yes"/>
      <point x="636" y="850"/>
      <point x="488" y="850" type="qcurve" smooth="yes"/>
      <point x="200" y="850"/>
      <point x="200" y="950" type="qcurve" smooth="yes"/>
      <point x="200" y="1200" type="line" smooth="yes"/>
      <point x="200" y="1300"/>
      <point x="450" y="1500"/>
      <point x="700" y="1500" type="qcurve" smooth="yes"/>
      <point x="750" y="1500" type="line" smooth="yes"/>
      <point x="1000" y="1500"/>
      <point x="1250" y="1300"/>
      <point x="1250" y="1200" type="qcurve" smooth="yes"/>
      <point x="1250" y="1050" type="line" smooth="yes"/>
      <point x="1250" y="901"/>
      <point x="819" y="681" type="qcurve" smooth="yes"/>
      <point x="488" y="512" type="line"/>
    </contour>
    <contour>
      <point x="130" y="1587" type="qcurve" smooth="yes"/>
      <point x="130" y="1662" type="line" smooth="yes"/>
      <point x="130" y="1714"/>
      <point x="201" y="1775" type="qcurve" smooth="yes"/>
      <point x="273" y="1836" type="line" smooth="yes"/>
      <point x="415" y="1960"/>
      <point x="450" y="1960" type="qcurve" smooth="yes"/>
      <point x="491" y="1960"/>
      <point x="608" y="1848" type="qcurve" smooth="yes"/>
      <point x="667" y="1792" type="line" smooth="yes"/>
      <point x="696" y="1763"/>
      <point x="729" y="1763" type="qcurve" smooth="yes"/>
      <point x="756" y="1763"/>
      <point x="785" y="1792" type="qcurve" smooth="yes"/>
      <point x="839" y="1848" type="line" smooth="yes"/>
      <point x="949" y="1960"/>
      <point x="988" y="1960" type="qcurve" smooth="yes"/>
      <point x="1026" y="1960"/>
      <point x="1089" y="1898" type="qcurve" smooth="yes"/>
      <point x="1217" y="1773" type="line" smooth="yes"/>
      <point x="1255" y="1736"/>
      <point x="1294" y="1736" type="qcurve" smooth="yes"/>
      <point x="1323" y="1736"/>
      <point x="1350" y="1754" type="qcurve"/>
      <point x="1274" y="1587"/>
      <point x="1173" y="1587" type="qcurve" smooth="yes"/>
      <point x="1059" y="1587"/>
      <point x="1020" y="1626" type="qcurve" smooth="yes"/>
      <point x="935" y="1707" type="line" smooth="yes"/>
      <point x="911" y="1728"/>
      <point x="895" y="1728" type="qcurve" smooth="yes"/>
      <point x="878" y="1728"/>
      <point x="815" y="1668" type="qcurve"/>
      <point x="751" y="1587"/>
      <point x="646" y="1587" type="qcurve" smooth="yes"/>
      <point x="548" y="1587"/>
      <point x="454" y="1668" type="qcurve" smooth="yes"/>
      <point x="406" y="1708" type="line" smooth="yes"/>
      <point x="380" y="1728"/>
      <point x="361" y="1728" type="qcurve" smooth="yes"/>
      <point x="341" y="1728"/>
      <point x="317" y="1711" type="qcurve"/>
      <point x="293" y="1674"/>
      <point x="293" y="1638" type="qcurve" smooth="yes"/>
      <point x="293" y="1588"/>
      <point x="443" y="1518" type="qcurve"/>
      <point x="302" y="1427" type="line"/>
      <point x="130" y="1488"/>
    </contour>
  </outline>
</glyph>
<glyph name="uni17AA" format="1">
  <advance width="1450"/>
  <unicode hex="17AA"/>
  <outline>
    <contour>
      <point x="488" y="1025" type="qcurve"/>
      <point x="488" y="950" type="line"/>
      <point x="536" y="950"/>
      <point x="536" y="1000" type="qcurve" smooth="yes"/>
      <point x="536" y="1012"/>
      <point x="523" y="1019" type="qcurve" smooth="yes"/>
      <point x="511" y="1025"/>
    </contour>
    <contour>
      <point x="488" y="250" type="line" smooth="yes"/>
      <point x="488" y="197"/>
      <point x="512" y="171" type="qcurve" smooth="yes"/>
      <point x="536" y="144"/>
      <point x="577" y="144" type="qcurve" smooth="yes"/>
      <point x="616" y="144"/>
      <point x="738" y="312"/>
      <point x="885" y="400"/>
      <point x="962" y="400" type="qcurve"/>
      <point x="962" y="583" type="line"/>
      <point x="1250" y="673" type="line"/>
      <point x="1250" y="50" type="line" smooth="yes"/>
      <point x="1250" y="-100"/>
      <point x="1046" y="-100" type="qcurve" smooth="yes"/>
      <point x="892" y="-100"/>
      <point x="892" y="-28" type="qcurve"/>
      <point x="962" y="4"/>
      <point x="962" y="60" type="qcurve" smooth="yes"/>
      <point x="962" y="266" type="line"/>
      <point x="914" y="266"/>
      <point x="867" y="235" type="qcurve" smooth="yes"/>
      <point x="820" y="203"/>
      <point x="666" y="0"/>
      <point x="527" y="0" type="qcurve" smooth="yes"/>
      <point x="348" y="0"/>
      <point x="274" y="58" type="qcurve" smooth="yes"/>
      <point x="200" y="117"/>
      <point x="200" y="250" type="qcurve" smooth="yes"/>
      <point x="200" y="526" type="line"/>
      <point x="726" y="795" type="line"/>
      <point x="962" y="923"/>
      <point x="962" y="1050" type="qcurve" smooth="yes"/>
      <point x="962" y="1200" type="line" smooth="yes"/>
      <point x="962" y="1258"/>
      <point x="856" y="1356"/>
      <point x="750" y="1356" type="qcurve" smooth="yes"/>
      <point x="700" y="1356" type="line" smooth="yes"/>
      <point x="594" y="1356"/>
      <point x="488" y="1258"/>
      <point x="488" y="1200" type="qcurve" smooth="yes"/>
      <point x="488" y="1125" type="line"/>
      <point x="562" y="1125"/>
      <point x="599" y="1094" type="qcurve" smooth="yes"/>
      <point x="636" y="1062"/>
      <point x="636" y="1000" type="qcurve" smooth="yes"/>
      <point x="636" y="850"/>
      <point x="488" y="850" type="qcurve" smooth="yes"/>
      <point x="200" y="850"/>
      <point x="200" y="950" type="qcurve" smooth="yes"/>
      <point x="200" y="1200" type="line" smooth="yes"/>
      <point x="200" y="1300"/>
      <point x="450" y="1500"/>
      <point x="700" y="1500" type="qcurve" smooth="yes"/>
      <point x="750" y="1500" type="line" smooth="yes"/>
      <point x="1000" y="1500"/>
      <point x="1250" y="1300"/>
      <point x="1250" y="1200" type="qcurve" smooth="yes"/>
      <point x="1250" y="1050" type="line" smooth="yes"/>
      <point x="1250" y="901"/>
      <point x="819" y="681" type="qcurve" smooth="yes"/>
      <point x="488" y="512" type="line"/>
    </contour>
    <contour>
      <point x="100" y="1587"/>
      <point x="100" y="1625" type="qcurve" smooth="yes"/>
      <point x="100" y="1662"/>
      <point x="130" y="1714"/>
      <point x="442" y="1960"/>
      <point x="471" y="1960" type="qcurve" smooth="yes"/>
      <point x="550" y="1960"/>
      <point x="702" y="1848" type="qcurve"/>
      <point x="858" y="1740"/>
      <point x="940" y="1740" type="qcurve" smooth="yes"/>
      <point x="1032" y="1740"/>
      <point x="1074" y="1775" type="qcurve" smooth="yes"/>
      <point x="1116" y="1810"/>
      <point x="1116" y="1860" type="qcurve" smooth="yes"/>
      <point x="1116" y="1932"/>
      <point x="970" y="1932" type="qcurve" smooth="yes"/>
      <point x="840" y="1932"/>
      <point x="840" y="2046" type="qcurve" smooth="yes"/>
      <point x="840" y="2160"/>
      <point x="970" y="2160" type="qcurve" smooth="yes"/>
      <point x="1100" y="2160"/>
      <point x="1175" y="2079" type="qcurve" smooth="yes"/>
      <point x="1250" y="1998"/>
      <point x="1250" y="1860" type="qcurve" smooth="yes"/>
      <point x="1250" y="1738"/>
      <point x="1079" y="1566"/>
      <point x="860" y="1566" type="qcurve" smooth="yes"/>
      <point x="649" y="1566"/>
      <point x="512" y="1664" type="qcurve" smooth="yes"/>
      <point x="448" y="1709" type="line" smooth="yes"/>
      <point x="413" y="1736"/>
      <point x="386" y="1736" type="qcurve" smooth="yes"/>
      <point x="380" y="1736"/>
      <point x="375" y="1735" type="qcurve" smooth="yes"/>
      <point x="344" y="1728"/>
      <point x="312" y="1691" type="qcurve" smooth="yes"/>
      <point x="289" y="1666" type="line" smooth="yes"/>
      <point x="279" y="1655"/>
      <point x="279" y="1643" type="qcurve" smooth="yes"/>
      <point x="279" y="1626"/>
      <point x="297" y="1607" type="qcurve"/>
      <point x="406" y="1539" type="line"/>
      <point x="220" y="1428" type="line"/>
      <point x="130" y="1536"/>
    </contour>
  </outline>
</glyph>
<glyph name="uni17AB" format="1">
  <advance width="1475"/>
  <unicode hex="17AB"/>
  <outline>
    <contour>
      <point x="225" y="1002" type="line"/>
      <point x="147" y="1046" type="line" smooth="yes"/>
      <point x="50" y="1099"/>
      <point x="50" y="1131" type="qcurve" smooth="yes"/>
      <point x="50" y="1162"/>
      <point x="111" y="1247" type="qcurve" smooth="yes"/>
      <point x="296" y="1500" type="line"/>
      <point x="414" y="1438" type="line"/>
      <point x="474" y="1406" type="line" smooth="yes"/>
      <point x="525" y="1379"/>
      <point x="561" y="1379" type="qcurve" smooth="yes"/>
      <point x="568" y="1379"/>
      <point x="573" y="1380" type="qcurve" smooth="yes"/>
      <point x="613" y="1385" type="line"/>
      <point x="613" y="1350"/>
      <point x="503" y="1172"/>
      <point x="458" y="1166" type="qcurve" smooth="yes"/>
      <point x="451" y="1165"/>
      <point x="444" y="1165" type="qcurve" smooth="yes"/>
      <point x="402" y="1165"/>
      <point x="339" y="1199" type="qcurve" smooth="yes"/>
      <point x="265" y="1238" type="line"/>
      <point x="218" y="1163" type="line"/>
      <point x="513" y="1005" type="line"/>
      <point x="513" y="300" type="line" smooth="yes"/>
      <point x="513" y="242"/>
      <point x="619" y="144"/>
      <point x="725" y="144" type="qcurve" smooth="yes"/>
      <point x="775" y="144" type="line" smooth="yes"/>
      <point x="881" y="144"/>
      <point x="987" y="242"/>
      <point x="987" y="300" type="qcurve" smooth="yes"/>
      <point x="987" y="1002" type="line"/>
      <point x="909" y="1046" type="line" smooth="yes"/>
      <point x="812" y="1099"/>
      <point x="812" y="1131" type="qcurve" smooth="yes"/>
      <point x="812" y="1162"/>
      <point x="873" y="1247" type="qcurve" smooth="yes"/>
      <point x="1058" y="1500" type="line"/>
      <point x="1176" y="1438" type="line"/>
      <point x="1236" y="1406" type="line" smooth="yes"/>
      <point x="1287" y="1379"/>
      <point x="1323" y="1379" type="qcurve" smooth="yes"/>
      <point x="1330" y="1379"/>
      <point x="1335" y="1380" type="qcurve" smooth="yes"/>
      <point x="1375" y="1385" type="line"/>
      <point x="1375" y="1350"/>
      <point x="1265" y="1172"/>
      <point x="1220" y="1166" type="qcurve" smooth="yes"/>
      <point x="1213" y="1165"/>
      <point x="1206" y="1165" type="qcurve" smooth="yes"/>
      <point x="1164" y="1165"/>
      <point x="1101" y="1199" type="qcurve" smooth="yes"/>
      <point x="1027" y="1238" type="line"/>
      <point x="980" y="1163" type="line"/>
      <point x="1275" y="1004" type="line"/>
      <point x="1275" y="300" type="line" smooth="yes"/>
      <point x="1275" y="200"/>
      <point x="1025" y="0"/>
      <point x="775" y="0" type="qcurve" smooth="yes"/>
      <point x="725" y="0" type="line" smooth="yes"/>
      <point x="475" y="0"/>
      <point x="225" y="200"/>
      <point x="225" y="300" type="qcurve" smooth="yes"/>
    </contour>
    <contour>
      <point x="1275" y="-250" type="qcurve" smooth="yes"/>
      <point x="1275" y="-400"/>
      <point x="966" y="-550"/>
      <point x="657" y="-550" type="qcurve" smooth="yes"/>
      <point x="502" y="-550"/>
      <point x="394" y="-518" type="qcurve" smooth="yes"/>
      <point x="286" y="-485"/>
      <point x="225" y="-420" type="qcurve"/>
      <point x="411" y="-450"/>
      <point x="658" y="-450" type="qcurve" smooth="yes"/>
      <point x="829" y="-450"/>
      <point x="940" y="-400" type="qcurve" smooth="yes"/>
      <point x="1050" y="-350"/>
      <point x="1050" y="-250" type="qcurve" smooth="yes"/>
      <point x="1050" y="-225"/>
      <point x="1032" y="-212" type="qcurve" smooth="yes"/>
      <point x="1013" y="-200"/>
      <point x="976" y="-200" type="qcurve"/>
      <point x="976" y="-150"/>
      <point x="1007" y="-125" type="qcurve" smooth="yes"/>
      <point x="1038" y="-100"/>
      <point x="1126" y="-100" type="qcurve" smooth="yes"/>
      <point x="1213" y="-100"/>
      <point x="1244" y="-138" type="qcurve" smooth="yes"/>
      <point x="1275" y="-175"/>
    </contour>
  </outline>
</glyph>
<glyph name="uni17AC" format="1">
  <advance width="1475"/>
  <unicode hex="17AC"/>
  <outline>
    <contour>
      <point x="225" y="1002" type="line"/>
      <point x="147" y="1046" type="line" smooth="yes"/>
      <point x="50" y="1099"/>
      <point x="50" y="1131" type="qcurve" smooth="yes"/>
      <point x="50" y="1162"/>
      <point x="111" y="1247" type="qcurve" smooth="yes"/>
      <point x="296" y="1500" type="line"/>
      <point x="414" y="1438" type="line"/>
      <point x="474" y="1406" type="line" smooth="yes"/>
      <point x="525" y="1379"/>
      <point x="561" y="1379" type="qcurve" smooth="yes"/>
      <point x="568" y="1379"/>
      <point x="573" y="1380" type="qcurve" smooth="yes"/>
      <point x="613" y="1385" type="line"/>
      <point x="613" y="1350"/>
      <point x="503" y="1172"/>
      <point x="458" y="1166" type="qcurve" smooth="yes"/>
      <point x="451" y="1165"/>
      <point x="444" y="1165" type="qcurve" smooth="yes"/>
      <point x="402" y="1165"/>
      <point x="339" y="1199" type="qcurve" smooth="yes"/>
      <point x="265" y="1238" type="line"/>
      <point x="218" y="1163" type="line"/>
      <point x="513" y="1005" type="line"/>
      <point x="513" y="300" type="line" smooth="yes"/>
      <point x="513" y="242"/>
      <point x="619" y="144"/>
      <point x="725" y="144" type="qcurve" smooth="yes"/>
      <point x="775" y="144" type="line" smooth="yes"/>
      <point x="881" y="144"/>
      <point x="987" y="242"/>
      <point x="987" y="300" type="qcurve" smooth="yes"/>
      <point x="987" y="1002" type="line"/>
      <point x="909" y="1046" type="line" smooth="yes"/>
      <point x="812" y="1099"/>
      <point x="812" y="1131" type="qcurve" smooth="yes"/>
      <point x="812" y="1162"/>
      <point x="873" y="1247" type="qcurve" smooth="yes"/>
      <point x="1058" y="1500" type="line"/>
      <point x="1176" y="1438" type="line"/>
      <point x="1236" y="1406" type="line" smooth="yes"/>
      <point x="1287" y="1379"/>
      <point x="1323" y="1379" type="qcurve" smooth="yes"/>
      <point x="1330" y="1379"/>
      <point x="1335" y="1380" type="qcurve" smooth="yes"/>
      <point x="1375" y="1385" type="line"/>
      <point x="1375" y="1350"/>
      <point x="1265" y="1172"/>
      <point x="1220" y="1166" type="qcurve" smooth="yes"/>
      <point x="1213" y="1165"/>
      <point x="1206" y="1165" type="qcurve" smooth="yes"/>
      <point x="1164" y="1165"/>
      <point x="1101" y="1199" type="qcurve" smooth="yes"/>
      <point x="1027" y="1238" type="line"/>
      <point x="980" y="1163" type="line"/>
      <point x="1275" y="1004" type="line"/>
      <point x="1275" y="300" type="line" smooth="yes"/>
      <point x="1275" y="200"/>
      <point x="1025" y="0"/>
      <point x="775" y="0" type="qcurve" smooth="yes"/>
      <point x="725" y="0" type="line" smooth="yes"/>
      <point x="475" y="0"/>
      <point x="225" y="200"/>
      <point x="225" y="300" type="qcurve" smooth="yes"/>
    </contour>
    <contour>
      <point x="1275" y="-250" type="qcurve" smooth="yes"/>
      <point x="1275" y="-320"/>
      <point x="1240" y="-374" type="qcurve"/>
      <point x="1250" y="-412"/>
      <point x="1296" y="-432" type="qcurve" smooth="yes"/>
      <point x="1342" y="-451"/>
      <point x="1424" y="-451" type="qcurve"/>
      <point x="1424" y="-500"/>
      <point x="1384" y="-525" type="qcurve" smooth="yes"/>
      <point x="1343" y="-550"/>
      <point x="1262" y="-550" type="qcurve" smooth="yes"/>
      <point x="1204" y="-550"/>
      <point x="1161" y="-534" type="qcurve" smooth="yes"/>
      <point x="1119" y="-518"/>
      <point x="1093" y="-487" type="qcurve"/>
      <point x="1016" y="-518"/>
      <point x="907" y="-534" type="qcurve" smooth="yes"/>
      <point x="798" y="-550"/>
      <point x="656" y="-550" type="qcurve" smooth="yes"/>
      <point x="502" y="-550"/>
      <point x="394" y="-518" type="qcurve" smooth="yes"/>
      <point x="286" y="-485"/>
      <point x="225" y="-420" type="qcurve"/>
      <point x="410" y="-450"/>
      <point x="658" y="-450" type="qcurve" smooth="yes"/>
      <point x="828" y="-450"/>
      <point x="939" y="-400" type="qcurve" smooth="yes"/>
      <point x="1049" y="-350"/>
      <point x="1049" y="-250" type="qcurve" smooth="yes"/>
      <point x="1049" y="-200"/>
      <point x="974" y="-200" type="qcurve"/>
      <point x="974" y="-150"/>
      <point x="1006" y="-125" type="qcurve" smooth="yes"/>
      <point x="1038" y="-100"/>
      <point x="1126" y="-100" type="qcurve" smooth="yes"/>
      <point x="1213" y="-100"/>
      <point x="1244" y="-138" type="qcurve" smooth="yes"/>
      <point x="1275" y="-175"/>
    </contour>
  </outline>
</glyph>
<glyph name="uni17AE" format="1">
  <advance width="1450"/>
  <unicode hex="17AE"/>
  <outline>
    <contour>
      <point x="488" y="465" type="qcurve"/>
      <point x="488" y="241" type="line"/>
      <point x="566" y="320"/>
      <point x="566" y="389" type="qcurve" smooth="yes"/>
      <point x="566" y="429"/>
      <point x="539" y="448" type="qcurve" smooth="yes"/>
      <point x="518" y="462"/>
    </contour>
    <contour>
      <point x="1250" y="0" type="line"/>
      <point x="962" y="0" type="line"/>
      <point x="962" y="1169" type="line" smooth="yes"/>
      <point x="962" y="1245"/>
      <point x="920" y="1313"/>
      <point x="908" y="1313" type="qcurve" smooth="yes"/>
      <point x="882" y="1313"/>
      <point x="856" y="1285" type="qcurve" smooth="yes"/>
      <point x="795" y="1225" type="line" smooth="yes"/>
      <point x="734" y="1165"/>
      <point x="671" y="1165" type="qcurve" smooth="yes"/>
      <point x="534" y="1166"/>
      <point x="474" y="1215" type="qcurve"/>
      <point x="434" y="1253" type="line" smooth="yes"/>
      <point x="407" y="1277"/>
      <point x="385" y="1277" type="qcurve" smooth="yes"/>
      <point x="370" y="1277"/>
      <point x="358" y="1268" type="qcurve" smooth="yes"/>
      <point x="310" y="1230" type="line" smooth="yes"/>
      <point x="304" y="1224"/>
      <point x="304" y="1215" type="qcurve" smooth="yes"/>
      <point x="304" y="1181"/>
      <point x="488" y="1084" type="qcurve"/>
      <point x="488" y="598" type="line"/>
      <point x="611" y="589"/>
      <point x="647" y="541" type="qcurve" smooth="yes"/>
      <point x="690" y="481"/>
      <point x="690" y="415" type="qcurve" smooth="yes"/>
      <point x="690" y="337"/>
      <point x="650" y="250" type="qcurve" smooth="yes"/>
      <point x="610" y="162"/>
      <point x="488" y="0" type="qcurve"/>
      <point x="200" y="0" type="line"/>
      <point x="200" y="1062" type="line"/>
      <point x="100" y="1169"/>
      <point x="100" y="1212" type="qcurve" smooth="yes"/>
      <point x="100" y="1255"/>
      <point x="246" y="1378" type="qcurve" smooth="yes"/>
      <point x="390" y="1500"/>
      <point x="441" y="1500" type="qcurve" smooth="yes"/>
      <point x="493" y="1500"/>
      <point x="597" y="1412" type="qcurve" smooth="yes"/>
      <point x="678" y="1340" type="line" smooth="yes"/>
      <point x="685" y="1335"/>
      <point x="694" y="1335" type="qcurve" smooth="yes"/>
      <point x="716" y="1335"/>
      <point x="748" y="1367" type="qcurve" smooth="yes"/>
      <point x="793" y="1412" type="line" smooth="yes"/>
      <point x="884" y="1500"/>
      <point x="941" y="1500" type="qcurve" smooth="yes"/>
      <point x="982" y="1500"/>
      <point x="1048" y="1462" type="qcurve" smooth="yes"/>
      <point x="1116" y="1423" type="line" smooth="yes"/>
      <point x="1250" y="1346"/>
      <point x="1250" y="1169" type="qcurve" smooth="yes"/>
    </contour>
    <contour>
      <point x="1250" y="-250" type="qcurve" smooth="yes"/>
      <point x="1250" y="-320"/>
      <point x="1215" y="-374" type="qcurve"/>
      <point x="1225" y="-412"/>
      <point x="1271" y="-432" type="qcurve" smooth="yes"/>
      <point x="1317" y="-451"/>
      <point x="1399" y="-451" type="qcurve"/>
      <point x="1399" y="-500"/>
      <point x="1359" y="-525" type="qcurve" smooth="yes"/>
      <point x="1318" y="-550"/>
      <point x="1237" y="-550" type="qcurve" smooth="yes"/>
      <point x="1179" y="-550"/>
      <point x="1136" y="-534" type="qcurve" smooth="yes"/>
      <point x="1094" y="-518"/>
      <point x="1068" y="-487" type="qcurve"/>
      <point x="991" y="-518"/>
      <point x="882" y="-534" type="qcurve" smooth="yes"/>
      <point x="773" y="-550"/>
      <point x="631" y="-550" type="qcurve" smooth="yes"/>
      <point x="477" y="-550"/>
      <point x="369" y="-518" type="qcurve" smooth="yes"/>
      <point x="261" y="-485"/>
      <point x="200" y="-420" type="qcurve"/>
      <point x="385" y="-450"/>
      <point x="633" y="-450" type="qcurve" smooth="yes"/>
      <point x="803" y="-450"/>
      <point x="914" y="-400" type="qcurve" smooth="yes"/>
      <point x="1024" y="-350"/>
      <point x="1024" y="-250" type="qcurve" smooth="yes"/>
      <point x="1024" y="-200"/>
      <point x="949" y="-200" type="qcurve"/>
      <point x="949" y="-150"/>
      <point x="981" y="-125" type="qcurve" smooth="yes"/>
      <point x="1013" y="-100"/>
      <point x="1101" y="-100" type="qcurve" smooth="yes"/>
      <point x="1188" y="-100"/>
      <point x="1219" y="-138" type="qcurve" smooth="yes"/>
      <point x="1250" y="-175"/>
    </contour>
  </outline>
</glyph>
<glyph name="uni17AF" format="1">
  <advance width="1450"/>
  <unicode hex="17AF"/>
  <outline>
    <contour>
      <point x="962" y="227" type="line"/>
      <point x="962" y="1124" type="line"/>
      <point x="728" y="1322"/>
      <point x="694" y="1322" type="qcurve" smooth="yes"/>
      <point x="623" y="1322"/>
      <point x="506" y="1186" type="qcurve" smooth="yes"/>
      <point x="468" y="1143"/>
      <point x="426" y="1139" type="qcurve"/>
      <point x="417" y="1139" type="line" smooth="yes"/>
      <point x="330" y="1139"/>
      <point x="289" y="1169" type="qcurve" smooth="yes"/>
      <point x="200" y="1244"/>
      <point x="200" y="1360" type="qcurve" smooth="yes"/>
      <point x="200" y="1425"/>
      <point x="250" y="1560"/>
      <point x="250" y="1630" type="qcurve" smooth="yes"/>
      <point x="250" y="1700"/>
      <point x="150" y="1700" type="qcurve"/>
      <point x="150" y="1800"/>
      <point x="250" y="1800" type="qcurve" smooth="yes"/>
      <point x="538" y="1800"/>
      <point x="538" y="1630" type="qcurve" smooth="yes"/>
      <point x="538" y="1545"/>
      <point x="488" y="1450"/>
      <point x="488" y="1410" type="qcurve" smooth="yes"/>
      <point x="488" y="1367" type="line"/>
      <point x="612" y="1500"/>
      <point x="705" y="1500" type="qcurve" smooth="yes"/>
      <point x="850" y="1500"/>
      <point x="910" y="1459" type="qcurve" smooth="yes"/>
      <point x="1156" y="1287" type="line" smooth="yes"/>
      <point x="1250" y="1224"/>
      <point x="1250" y="1114" type="qcurve" smooth="yes"/>
      <point x="1250" y="0" type="line"/>
      <point x="1012" y="0" type="line"/>
      <point x="725" y="236" type="line"/>
      <point x="438" y="0" type="line"/>
      <point x="200" y="0" type="line"/>
      <point x="200" y="600" type="line"/>
      <point x="170" y="600"/>
      <point x="100" y="700"/>
      <point x="100" y="755" type="qcurve" smooth="yes"/>
      <point x="100" y="812"/>
      <point x="139" y="901"/>
      <point x="250" y="1000"/>
      <point x="344" y="1000" type="qcurve" smooth="yes"/>
      <point x="488" y="1000"/>
      <point x="488" y="900" type="qcurve" smooth="yes"/>
      <point x="488" y="227" type="line"/>
      <point x="725" y="423" type="line"/>
    </contour>
  </outline>
</glyph>
<glyph name="uni17B0" format="1">
  <advance width="1450"/>
  <unicode hex="17B0"/>
  <outline>
    <contour>
      <point x="1042" y="-129" type="line"/>
      <point x="917" y="-247"/>
      <point x="771" y="-315" type="qcurve"/>
      <point x="881" y="-339" type="line" smooth="yes"/>
      <point x="912" y="-345"/>
      <point x="936" y="-345" type="qcurve" smooth="yes"/>
      <point x="984" y="-345"/>
      <point x="1007" y="-323" type="qcurve" smooth="yes"/>
      <point x="1042" y="-290"/>
      <point x="1042" y="-186" type="qcurve" smooth="yes"/>
    </contour>
    <contour>
      <point x="488" y="465" type="qcurve"/>
      <point x="488" y="241" type="line"/>
      <point x="566" y="320"/>
      <point x="566" y="389" type="qcurve" smooth="yes"/>
      <point x="566" y="429"/>
      <point x="539" y="448" type="qcurve" smooth="yes"/>
      <point x="518" y="462"/>
    </contour>
    <contour>
      <point x="608" y="-494" type="qcurve" smooth="yes"/>
      <point x="638" y="-468"/>
      <point x="638" y="-416" type="qcurve" smooth="yes"/>
      <point x="638" y="-367" type="line"/>
      <point x="511" y="-421"/>
      <point x="416" y="-440" type="qcurve"/>
      <point x="416" y="-470" type="line" smooth="yes"/>
      <point x="416" y="-495"/>
      <point x="453" y="-508" type="qcurve" smooth="yes"/>
      <point x="490" y="-520"/>
      <point x="530" y="-520" type="qcurve" smooth="yes"/>
      <point x="578" y="-520"/>
    </contour>
    <contour>
      <point x="1250" y="-186" type="line" smooth="yes"/>
      <point x="1250" y="-360"/>
      <point x="1157" y="-431" type="qcurve" smooth="yes"/>
      <point x="1095" y="-478"/>
      <point x="991" y="-478" type="qcurve" smooth="yes"/>
      <point x="941" y="-478"/>
      <point x="880" y="-467" type="qcurve" smooth="yes"/>
      <point x="790" y="-449" type="line"/>
      <point x="790" y="-550"/>
      <point x="728" y="-600" type="qcurve" smooth="yes"/>
      <point x="666" y="-650"/>
      <point x="542" y="-650" type="qcurve" smooth="yes"/>
      <point x="370" y="-650"/>
      <point x="285" y="-612" type="qcurve" smooth="yes"/>
      <point x="200" y="-575"/>
      <point x="200" y="-500" type="qcurve" smooth="yes"/>
      <point x="200" y="-356"/>
      <point x="265" y="-333" type="qcurve"/>
      <point x="472" y="-281"/>
      <point x="647" y="-218" type="qcurve" smooth="yes"/>
      <point x="819" y="-156"/>
      <point x="962" y="-34" type="qcurve"/>
      <point x="962" y="1169" type="line" smooth="yes"/>
      <point x="962" y="1245"/>
      <point x="920" y="1313"/>
      <point x="908" y="1313" type="qcurve" smooth="yes"/>
      <point x="882" y="1313"/>
      <point x="856" y="1285" type="qcurve" smooth="yes"/>
      <point x="795" y="1225" type="line" smooth="yes"/>
      <point x="734" y="1165"/>
      <point x="671" y="1165" type="qcurve" smooth="yes"/>
      <point x="534" y="1166"/>
      <point x="474" y="1215" type="qcurve"/>
      <point x="434" y="1253" type="line" smooth="yes"/>
      <point x="407" y="1277"/>
      <point x="385" y="1277" type="qcurve" smooth="yes"/>
      <point x="370" y="1277"/>
      <point x="358" y="1268" type="qcurve" smooth="yes"/>
      <point x="310" y="1230" type="line" smooth="yes"/>
      <point x="304" y="1224"/>
      <point x="304" y="1215" type="qcurve" smooth="yes"/>
      <point x="304" y="1181"/>
      <point x="488" y="1084" type="qcurve"/>
      <point x="488" y="598" type="line"/>
      <point x="611" y="589"/>
      <point x="647" y="541" type="qcurve" smooth="yes"/>
      <point x="690" y="481"/>
      <point x="690" y="415" type="qcurve" smooth="yes"/>
      <point x="690" y="337"/>
      <point x="650" y="250" type="qcurve" smooth="yes"/>
      <point x="610" y="162"/>
      <point x="488" y="0" type="qcurve"/>
      <point x="200" y="0" type="line"/>
      <point x="200" y="1062" type="line"/>
      <point x="100" y="1169"/>
      <point x="100" y="1212" type="qcurve" smooth="yes"/>
      <point x="100" y="1255"/>
      <point x="246" y="1378" type="qcurve" smooth="yes"/>
      <point x="390" y="1500"/>
      <point x="441" y="1500" type="qcurve" smooth="yes"/>
      <point x="493" y="1500"/>
      <point x="597" y="1412" type="qcurve" smooth="yes"/>
      <point x="678" y="1340" type="line" smooth="yes"/>
      <point x="685" y="1335"/>
      <point x="694" y="1335" type="qcurve" smooth="yes"/>
      <point x="716" y="1335"/>
      <point x="748" y="1367" type="qcurve" smooth="yes"/>
      <point x="793" y="1412" type="line" smooth="yes"/>
      <point x="884" y="1500"/>
      <point x="941" y="1500" type="qcurve" smooth="yes"/>
      <point x="982" y="1500"/>
      <point x="1048" y="1462" type="qcurve" smooth="yes"/>
      <point x="1116" y="1423" type="line" smooth="yes"/>
      <point x="1250" y="1346"/>
      <point x="1250" y="1169" type="qcurve" smooth="yes"/>
    </contour>
  </outline>
</glyph>
<glyph name="uni17B2" format="1">
  <advance width="1450"/>
  <unicode hex="17B2"/>
  <outline>
    <contour>
      <point x="894" y="1000" type="qcurve" smooth="yes"/>
      <point x="828" y="1000"/>
      <point x="793" y="977" type="qcurve" smooth="yes"/>
      <point x="756" y="952"/>
      <point x="756" y="900" type="qcurve" smooth="yes"/>
      <point x="756" y="840"/>
      <point x="878" y="840" type="qcurve"/>
      <point x="811" y="750"/>
      <point x="741" y="750" type="qcurve" smooth="yes"/>
      <point x="676" y="750"/>
      <point x="632" y="788" type="qcurve" smooth="yes"/>
      <point x="589" y="825"/>
      <point x="589" y="900" type="qcurve" smooth="yes"/>
      <point x="589" y="1002"/>
      <point x="744" y="1144"/>
      <point x="894" y="1144" type="qcurve" smooth="yes"/>
      <point x="1043" y="1144"/>
      <point x="1250" y="1003"/>
      <point x="1250" y="900" type="qcurve" smooth="yes"/>
      <point x="1250" y="845"/>
      <point x="1217" y="784" type="qcurve" smooth="yes"/>
      <point x="1177" y="708"/>
      <point x="1037" y="623" type="qcurve"/>
      <point x="1158" y="602"/>
      <point x="1250" y="495"/>
      <point x="1250" y="390" type="qcurve" smooth="yes"/>
      <point x="1250" y="300" type="line" smooth="yes"/>
      <point x="1250" y="200"/>
      <point x="1000" y="0"/>
      <point x="750" y="0" type="qcurve" smooth="yes"/>
      <point x="700" y="0" type="line" smooth="yes"/>
      <point x="450" y="0"/>
      <point x="200" y="200"/>
      <point x="200" y="300" type="qcurve" smooth="yes"/>
      <point x="200" y="1200" type="line" smooth="yes"/>
      <point x="200" y="1300"/>
      <point x="450" y="1500"/>
      <point x="700" y="1500" type="qcurve" smooth="yes"/>
      <point x="750" y="1500" type="line" smooth="yes"/>
      <point x="1000" y="1500"/>
      <point x="1125" y="1400" type="qcurve" smooth="yes"/>
      <point x="1250" y="1300" type="line"/>
      <point x="962" y="1258" type="line"/>
      <point x="884" y="1307" type="line" smooth="yes"/>
      <point x="806" y="1356"/>
      <point x="750" y="1356" type="qcurve" smooth="yes"/>
      <point x="700" y="1356" type="line" smooth="yes"/>
      <point x="594" y="1356"/>
      <point x="488" y="1258"/>
      <point x="488" y="1200" type="qcurve" smooth="yes"/>
      <point x="488" y="300" type="line" smooth="yes"/>
      <point x="488" y="242"/>
      <point x="594" y="144"/>
      <point x="700" y="144" type="qcurve" smooth="yes"/>
      <point x="750" y="144" type="line" smooth="yes"/>
      <point x="856" y="144"/>
      <point x="962" y="242"/>
      <point x="962" y="300" type="qcurve" smooth="yes"/>
      <point x="962" y="390" type="line" smooth="yes"/>
      <point x="962" y="434"/>
      <point x="927" y="479"/>
      <point x="886" y="487" type="qcurve"/>
      <point x="876" y="478"/>
      <point x="864" y="470" type="qcurve" smooth="yes"/>
      <point x="700" y="355" type="line" smooth="yes"/>
      <point x="665" y="328"/>
      <point x="634" y="328" type="qcurve" smooth="yes"/>
      <point x="602" y="328"/>
      <point x="575" y="357" type="qcurve" smooth="yes"/>
      <point x="550" y="383"/>
      <point x="550" y="407" type="qcurve" smooth="yes"/>
      <point x="550" y="436"/>
      <point x="586" y="463" type="qcurve" smooth="yes"/>
      <point x="778" y="611" type="line" smooth="yes"/>
      <point x="934" y="732"/>
      <point x="983" y="865"/>
      <point x="983" y="900" type="qcurve" smooth="yes"/>
      <point x="983" y="953"/>
      <point x="939" y="1000"/>
    </contour>
  </outline>
</glyph>
<glyph name="uni17B3" format="1">
  <advance width="1450"/>
  <unicode hex="17B3"/>
  <outline>
    <contour>
      <point x="488" y="1025" type="qcurve"/>
      <point x="488" y="950" type="line"/>
      <point x="536" y="950"/>
      <point x="536" y="1000" type="qcurve" smooth="yes"/>
      <point x="536" y="1012"/>
      <point x="523" y="1019" type="qcurve" smooth="yes"/>
      <point x="511" y="1025"/>
    </contour>
    <contour>
      <point x="488" y="250" type="line" smooth="yes"/>
      <point x="488" y="197"/>
      <point x="512" y="171" type="qcurve" smooth="yes"/>
      <point x="536" y="144"/>
      <point x="577" y="144" type="qcurve" smooth="yes"/>
      <point x="616" y="144"/>
      <point x="738" y="312"/>
      <point x="885" y="400"/>
      <point x="962" y="400" type="qcurve"/>
      <point x="962" y="583" type="line"/>
      <point x="1250" y="673" type="line"/>
      <point x="1250" y="50" type="line" smooth="yes"/>
      <point x="1250" y="-100"/>
      <point x="1046" y="-100" type="qcurve" smooth="yes"/>
      <point x="892" y="-100"/>
      <point x="892" y="-28" type="qcurve"/>
      <point x="962" y="4"/>
      <point x="962" y="60" type="qcurve" smooth="yes"/>
      <point x="962" y="266" type="line"/>
      <point x="914" y="266"/>
      <point x="867" y="235" type="qcurve" smooth="yes"/>
      <point x="820" y="203"/>
      <point x="666" y="0"/>
      <point x="527" y="0" type="qcurve" smooth="yes"/>
      <point x="348" y="0"/>
      <point x="274" y="58" type="qcurve" smooth="yes"/>
      <point x="200" y="117"/>
      <point x="200" y="250" type="qcurve" smooth="yes"/>
      <point x="200" y="526" type="line"/>
      <point x="726" y="795" type="line"/>
      <point x="962" y="923"/>
      <point x="962" y="1050" type="qcurve" smooth="yes"/>
      <point x="962" y="1200" type="line" smooth="yes"/>
      <point x="962" y="1258"/>
      <point x="856" y="1356"/>
      <point x="750" y="1356" type="qcurve" smooth="yes"/>
      <point x="700" y="1356" type="line" smooth="yes"/>
      <point x="594" y="1356"/>
      <point x="488" y="1258"/>
      <point x="488" y="1200" type="qcurve" smooth="yes"/>
      <point x="488" y="1125" type="line"/>
      <point x="562" y="1125"/>
      <point x="599" y="1094" type="qcurve" smooth="yes"/>
      <point x="636" y="1062"/>
      <point x="636" y="1000" type="qcurve" smooth="yes"/>
      <point x="636" y="850"/>
      <point x="488" y="850" type="qcurve" smooth="yes"/>
      <point x="200" y="850"/>
      <point x="200" y="950" type="qcurve" smooth="yes"/>
      <point x="200" y="1200" type="line" smooth="yes"/>
      <point x="200" y="1300"/>
      <point x="450" y="1500"/>
      <point x="700" y="1500" type="qcurve" smooth="yes"/>
      <point x="750" y="1500" type="line" smooth="yes"/>
      <point x="1000" y="1500"/>
      <point x="1250" y="1300"/>
      <point x="1250" y="1200" type="qcurve" smooth="yes"/>
      <point x="1250" y="1050" type="line" smooth="yes"/>
      <point x="1250" y="901"/>
      <point x="819" y="681" type="qcurve" smooth="yes"/>
      <point x="488" y="512" type="line"/>
    </contour>
    <contour>
      <point x="1051" y="1914" type="qcurve"/>
      <point x="1039" y="2030"/>
      <point x="928" y="2085" type="qcurve" smooth="yes"/>
      <point x="862" y="2118" type="line" smooth="yes"/>
      <point x="823" y="2137"/>
      <point x="823" y="2163" type="qcurve" smooth="yes"/>
      <point x="823" y="2181"/>
      <point x="844" y="2203" type="qcurve" smooth="yes"/>
      <point x="871" y="2230"/>
      <point x="907" y="2230" type="qcurve" smooth="yes"/>
      <point x="941" y="2230"/>
      <point x="983" y="2209" type="qcurve" smooth="yes"/>
      <point x="1072" y="2164" type="line" smooth="yes"/>
      <point x="1250" y="2074"/>
      <point x="1250" y="1884" type="qcurve" smooth="yes"/>
      <point x="1250" y="1604" type="line" smooth="yes"/>
      <point x="1250" y="1507"/>
      <point x="1124" y="1435" type="qcurve"/>
      <point x="1127" y="1447"/>
      <point x="1127" y="1461" type="qcurve" smooth="yes"/>
      <point x="1127" y="1534"/>
      <point x="810" y="1722"/>
      <point x="700" y="1722" type="qcurve" smooth="yes"/>
      <point x="394" y="1722"/>
      <point x="330" y="1664"/>
      <point x="330" y="1628" type="qcurve" smooth="yes"/>
      <point x="330" y="1578"/>
      <point x="467" y="1508" type="qcurve"/>
      <point x="338" y="1417" type="line"/>
      <point x="180" y="1478"/>
      <point x="180" y="1577" type="qcurve" smooth="yes"/>
      <point x="180" y="1652" type="line" smooth="yes"/>
      <point x="180" y="1754"/>
      <point x="245" y="1815" type="qcurve" smooth="yes"/>
      <point x="311" y="1876" type="line"/>
      <point x="452" y="2000"/>
      <point x="700" y="2000" type="qcurve" smooth="yes"/>
      <point x="903" y="2000"/>
    </contour>
  </outline>
</glyph>
<glyph name="uni17B7" format="1">
  <advance width="0"/>
  <unicode hex="17B7"/>
  <outline>
    <contour>
      <point x="-1150" y="1950" type="qcurve" smooth="yes"/>
      <point x="-1150" y="2200"/>
      <point x="-850" y="2200" type="qcurve" smooth="yes"/>
      <point x="-590" y="2200"/>
      <point x="-335" y="1975" type="qcurve" smooth="yes"/>
      <point x="-250" y="1900"/>
      <point x="-250" y="1850" type="qcurve" smooth="yes"/>
      <point x="-250" y="1750"/>
      <point x="-350" y="1750" type="qcurve" smooth="yes"/>
      <point x="-950" y="1750" type="line" smooth="yes"/>
      <point x="-1150" y="1750"/>
    </contour>
    <contour>
      <point x="-950" y="1950" type="qcurve" smooth="yes"/>
      <point x="-950" y="1900"/>
      <point x="-900" y="1900" type="qcurve" smooth="yes"/>
      <point x="-430" y="1900" type="line"/>
      <point x="-560" y="1957"/>
      <point x="-739" y="2000"/>
      <point x="-850" y="2000" type="qcurve" smooth="yes"/>
      <point x="-950" y="2000"/>
    </contour>
  </outline>
</glyph>
<glyph name="uni17B8" format="1">
  <advance width="0"/>
  <unicode hex="17B8"/>
  <outline>
    <contour>
      <point x="-950" y="1950" type="qcurve" smooth="yes"/>
      <point x="-950" y="1900"/>
      <point x="-900" y="1900" type="qcurve" smooth="yes"/>
      <point x="-430" y="1900" type="line"/>
      <point x="-560" y="1957"/>
      <point x="-739" y="2000"/>
      <point x="-850" y="2000" type="qcurve" smooth="yes"/>
      <point x="-950" y="2000"/>
    </contour>
    <contour>
      <point x="-420" y="2044" type="qcurve"/>
      <point x="-420" y="2300" type="line"/>
      <point x="-250" y="2300" type="line"/>
      <point x="-250" y="1850" type="line" smooth="yes"/>
      <point x="-250" y="1750"/>
      <point x="-350" y="1750" type="qcurve" smooth="yes"/>
      <point x="-950" y="1750" type="line" smooth="yes"/>
      <point x="-1150" y="1750"/>
      <point x="-1150" y="1950" type="qcurve" smooth="yes"/>
      <point x="-1150" y="2200"/>
      <point x="-850" y="2200" type="qcurve" smooth="yes"/>
      <point x="-633" y="2200"/>
    </contour>
  </outline>
</glyph>
<glyph name="uni17B9" format="1">
  <advance width="0"/>
  <unicode hex="17B9"/>
  <outline>
    <contour>
      <point x="-646" y="2145" type="qcurve"/>
      <point x="-646" y="2149" type="line"/>
      <point x="-635" y="2224"/>
      <point x="-586" y="2262" type="qcurve" smooth="yes"/>
      <point x="-536" y="2300"/>
      <point x="-450" y="2300" type="qcurve" smooth="yes"/>
      <point x="-350" y="2300"/>
      <point x="-300" y="2250" type="qcurve" smooth="yes"/>
      <point x="-250" y="2200"/>
      <point x="-250" y="2100" type="qcurve" smooth="yes"/>
      <point x="-250" y="1985"/>
      <point x="-316" y="1936" type="qcurve"/>
      <point x="-318" y="1934" type="line"/>
      <point x="-250" y="1877"/>
      <point x="-250" y="1850" type="qcurve" smooth="yes"/>
      <point x="-250" y="1750"/>
      <point x="-350" y="1750" type="qcurve" smooth="yes"/>
      <point x="-950" y="1750" type="line" smooth="yes"/>
      <point x="-1150" y="1750"/>
      <point x="-1150" y="1950" type="qcurve" smooth="yes"/>
      <point x="-1150" y="2200"/>
      <point x="-870" y="2200" type="qcurve" smooth="yes"/>
      <point x="-762" y="2200"/>
    </contour>
    <contour>
      <point x="-529" y="2081" type="qcurve"/>
      <point x="-505" y="2066"/>
      <point x="-480" y="2050" type="qcurve" smooth="yes"/>
      <point x="-456" y="2035"/>
      <point x="-435" y="2020" type="qcurve"/>
      <point x="-370" y="2028"/>
      <point x="-370" y="2100" type="qcurve" smooth="yes"/>
      <point x="-370" y="2180"/>
      <point x="-450" y="2180" type="qcurve" smooth="yes"/>
      <point x="-530" y="2180"/>
      <point x="-530" y="2100" type="qcurve" smooth="yes"/>
      <point x="-530" y="2094"/>
    </contour>
    <contour>
      <point x="-950" y="1950" type="qcurve" smooth="yes"/>
      <point x="-950" y="1900"/>
      <point x="-900" y="1900" type="qcurve" smooth="yes"/>
      <point x="-430" y="1900" type="line"/>
      <point x="-560" y="1957"/>
      <point x="-739" y="2000"/>
      <point x="-850" y="2000" type="qcurve" smooth="yes"/>
      <point x="-950" y="2000"/>
    </contour>
  </outline>
</glyph>
<glyph name="uni17BB" format="1">
  <advance width="0"/>
  <unicode hex="17BB"/>
  <outline>
    <contour>
      <point x="-250" y="-650" type="line"/>
      <point x="-450" y="-650" type="line"/>
      <point x="-450" y="-267" type="line"/>
      <point x="-500" y="-249"/>
      <point x="-500" y="-187" type="qcurve" smooth="yes"/>
      <point x="-500" y="-100"/>
      <point x="-375" y="-100" type="qcurve" smooth="yes"/>
      <point x="-250" y="-100"/>
      <point x="-250" y="-187" type="qcurve" smooth="yes"/>
    </contour>
  </outline>
</glyph>
<glyph name="uni17BC" format="1">
  <advance width="0"/>
  <unicode hex="17BC"/>
  <outline>
    <contour>
      <point x="-561" y="-650" type="qcurve" smooth="yes"/>
      <point x="-840" y="-650"/>
      <point x="-840" y="-482" type="qcurve" smooth="yes"/>
      <point x="-840" y="-434"/>
      <point x="-821" y="-373" type="qcurve" smooth="yes"/>
      <point x="-771" y="-236" type="line"/>
      <point x="-851" y="-236"/>
      <point x="-851" y="-145" type="qcurve" smooth="yes"/>
      <point x="-851" y="-55"/>
      <point x="-681" y="-55" type="qcurve" smooth="yes"/>
      <point x="-558" y="-55"/>
      <point x="-558" y="-169" type="qcurve" smooth="yes"/>
      <point x="-558" y="-216"/>
      <point x="-579" y="-282" type="qcurve" smooth="yes"/>
      <point x="-620" y="-399" type="line" smooth="yes"/>
      <point x="-631" y="-430"/>
      <point x="-631" y="-452" type="qcurve" smooth="yes"/>
      <point x="-631" y="-509"/>
      <point x="-561" y="-509" type="qcurve" smooth="yes"/>
      <point x="-464" y="-509"/>
      <point x="-401" y="-304" type="qcurve" smooth="yes"/>
      <point x="-329" y="-55"/>
      <point x="-225" y="-55" type="qcurve" smooth="yes"/>
      <point x="-200" y="-55"/>
      <point x="-200" y="-116" type="qcurve" smooth="yes"/>
      <point x="-200" y="-196"/>
      <point x="-238" y="-373" type="qcurve" smooth="yes"/>
      <point x="-296" y="-650"/>
    </contour>
  </outline>
</glyph>
<glyph name="uni17BD" format="1">
  <advance width="0"/>
  <unicode hex="17BD"/>
  <outline>
    <contour>
      <point x="-613" y="-531" type="qcurve"/>
      <point x="-705" y="-650"/>
      <point x="-790" y="-650" type="qcurve" smooth="yes"/>
      <point x="-986" y="-650"/>
      <point x="-986" y="-528" type="qcurve" smooth="yes"/>
      <point x="-986" y="-457"/>
      <point x="-928" y="-346" type="qcurve" smooth="yes"/>
      <point x="-866" y="-232" type="line"/>
      <point x="-950" y="-232"/>
      <point x="-950" y="-140" type="qcurve" smooth="yes"/>
      <point x="-950" y="-49"/>
      <point x="-780" y="-49" type="qcurve" smooth="yes"/>
      <point x="-680" y="-49"/>
      <point x="-650" y="-110" type="qcurve" smooth="yes"/>
      <point x="-640" y="-132"/>
      <point x="-640" y="-159" type="qcurve" smooth="yes"/>
      <point x="-640" y="-210"/>
      <point x="-676" y="-282" type="qcurve" smooth="yes"/>
      <point x="-736" y="-394" type="line" smooth="yes"/>
      <point x="-774" y="-468"/>
      <point x="-774" y="-501" type="qcurve" smooth="yes"/>
      <point x="-774" y="-527"/>
      <point x="-750" y="-527" type="qcurve" smooth="yes"/>
      <point x="-698" y="-527"/>
      <point x="-557" y="-349" type="qcurve"/>
      <point x="-536" y="-527"/>
      <point x="-500" y="-527" type="qcurve" smooth="yes"/>
      <point x="-467" y="-527"/>
      <point x="-443" y="-413" type="qcurve" smooth="yes"/>
      <point x="-368" y="-49"/>
      <point x="-329" y="-49" type="qcurve" smooth="yes"/>
      <point x="-200" y="-49"/>
      <point x="-200" y="-138" type="qcurve" smooth="yes"/>
      <point x="-200" y="-269"/>
      <point x="-294" y="-650"/>
      <point x="-460" y="-650" type="qcurve" smooth="yes"/>
      <point x="-573" y="-650"/>
    </contour>
  </outline>
</glyph>
<glyph name="uni17BF" format="1">
  <advance width="688"/>
  <unicode hex="17BF"/>
  <outline>
    <contour>
      <point x="-374" y="2000" type="qcurve" smooth="yes"/>
      <point x="-374" y="1950"/>
      <point x="-324" y="1950" type="qcurve" smooth="yes"/>
      <point x="146" y="1950" type="line"/>
      <point x="16" y="2007"/>
      <point x="-163" y="2050"/>
      <point x="-274" y="2050" type="qcurve" smooth="yes"/>
      <point x="-374" y="2050"/>
    </contour>
    <contour>
      <point x="326" y="1947" type="line"/>
      <point x="488" y="1876"/>
      <point x="488" y="1700" type="qcurve" smooth="yes"/>
      <point x="488" y="-400" type="line" smooth="yes"/>
      <point x="488" y="-650"/>
      <point x="-12" y="-650" type="qcurve" smooth="yes"/>
      <point x="-512" y="-650"/>
      <point x="-512" y="-400" type="qcurve" smooth="yes"/>
      <point x="-512" y="-100" type="line"/>
      <point x="-224" y="-100" type="line"/>
      <point x="-224" y="-400" type="line" smooth="yes"/>
      <point x="-224" y="-506"/>
      <point x="-12" y="-506" type="qcurve" smooth="yes"/>
      <point x="200" y="-506"/>
      <point x="200" y="-400" type="qcurve" smooth="yes"/>
      <point x="200" y="1700" type="line" smooth="yes"/>
      <point x="200" y="1850"/>
      <point x="76" y="1850" type="qcurve" smooth="yes"/>
      <point x="-374" y="1850" type="line" smooth="yes"/>
      <point x="-574" y="1850"/>
      <point x="-574" y="2000" type="qcurve" smooth="yes"/>
      <point x="-574" y="2250"/>
      <point x="-274" y="2250" type="qcurve" smooth="yes"/>
      <point x="-199" y="2250"/>
      <point x="-124" y="2231" type="qcurve"/>
      <point x="-124" y="2350" type="line"/>
      <point x="46" y="2350" type="line"/>
      <point x="46" y="2164" type="line"/>
      <point x="101" y="2134"/>
      <point x="156" y="2094" type="qcurve"/>
      <point x="156" y="2350" type="line"/>
      <point x="326" y="2350" type="line"/>
    </contour>
  </outline>
</glyph>
<glyph name="uni17C0" format="1">
  <advance width="688"/>
  <unicode hex="17C0"/>
  <outline>
    <contour>
      <point x="-348" y="1800" type="qcurve"/>
      <point x="-357" y="1800" type="line" smooth="yes"/>
      <point x="-444" y="1800"/>
      <point x="-485" y="1830" type="qcurve" smooth="yes"/>
      <point x="-574" y="1905"/>
      <point x="-574" y="2021" type="qcurve" smooth="yes"/>
      <point x="-574" y="2086"/>
      <point x="-524" y="2221"/>
      <point x="-524" y="2291" type="qcurve" smooth="yes"/>
      <point x="-524" y="2361"/>
      <point x="-624" y="2361" type="qcurve"/>
      <point x="-624" y="2461"/>
      <point x="-434" y="2461" type="qcurve" smooth="yes"/>
      <point x="-236" y="2461"/>
      <point x="-236" y="2291" type="qcurve" smooth="yes"/>
      <point x="-236" y="2206"/>
      <point x="-286" y="2091"/>
      <point x="-286" y="2021" type="qcurve" smooth="yes"/>
      <point x="-286" y="1978" type="line"/>
      <point x="-174" y="2044"/>
      <point x="-24" y="2044" type="qcurve" smooth="yes"/>
      <point x="488" y="2044"/>
      <point x="488" y="1640" type="qcurve" smooth="yes"/>
      <point x="488" y="-400" type="line" smooth="yes"/>
      <point x="488" y="-650"/>
      <point x="-12" y="-650" type="qcurve" smooth="yes"/>
      <point x="-512" y="-650"/>
      <point x="-512" y="-400" type="qcurve" smooth="yes"/>
      <point x="-512" y="-100" type="line"/>
      <point x="-224" y="-100" type="line"/>
      <point x="-224" y="-400" type="line" smooth="yes"/>
      <point x="-224" y="-506"/>
      <point x="-12" y="-506" type="qcurve" smooth="yes"/>
      <point x="200" y="-506"/>
      <point x="200" y="-400" type="qcurve" smooth="yes"/>
      <point x="200" y="1640" type="line" smooth="yes"/>
      <point x="200" y="1900"/>
      <point x="-24" y="1900" type="qcurve" smooth="yes"/>
      <point x="-134" y="1900"/>
      <point x="-195" y="1852" type="qcurve" smooth="yes"/>
      <point x="-256" y="1804"/>
    </contour>
  </outline>
</glyph>
<glyph name="uni17C2" format="1">
  <advance width="713"/>
  <unicode hex="17C2"/>
  <outline>
    <contour>
      <point x="283" y="1800" type="qcurve"/>
      <point x="228" y="1800"/>
      <point x="228" y="1775" type="qcurve" smooth="yes"/>
      <point x="228" y="1750"/>
      <point x="283" y="1750" type="qcurve" smooth="yes"/>
      <point x="330" y="1750"/>
      <point x="372" y="1798" type="qcurve" smooth="yes"/>
      <point x="413" y="1845"/>
      <point x="413" y="1920" type="qcurve" smooth="yes"/>
      <point x="413" y="1975"/>
      <point x="383" y="2013" type="qcurve" smooth="yes"/>
      <point x="353" y="2050"/>
      <point x="303" y="2050" type="qcurve" smooth="yes"/>
      <point x="263" y="2050"/>
      <point x="263" y="2125" type="qcurve" smooth="yes"/>
      <point x="263" y="2200"/>
      <point x="353" y="2200" type="qcurve" smooth="yes"/>
      <point x="515" y="2200"/>
      <point x="589" y="2128" type="qcurve" smooth="yes"/>
      <point x="663" y="2055"/>
      <point x="663" y="1920" type="qcurve" smooth="yes"/>
      <point x="663" y="1815"/>
      <point x="591" y="1733" type="qcurve" smooth="yes"/>
      <point x="518" y="1650"/>
      <point x="283" y="1650" type="qcurve" smooth="yes"/>
      <point x="151" y="1650"/>
      <point x="82" y="1681" type="qcurve" smooth="yes"/>
      <point x="13" y="1712"/>
      <point x="13" y="1775" type="qcurve" smooth="yes"/>
      <point x="13" y="1838"/>
      <point x="41" y="1869" type="qcurve" smooth="yes"/>
      <point x="68" y="1900"/>
      <point x="123" y="1900" type="qcurve" smooth="yes"/>
      <point x="228" y="1900"/>
      <point x="255" y="1875" type="qcurve" smooth="yes"/>
      <point x="283" y="1850"/>
    </contour>
    <contour>
      <point x="513" y="500" type="line"/>
      <point x="538" y="500"/>
      <point x="575" y="450" type="qcurve" smooth="yes"/>
      <point x="613" y="400"/>
      <point x="613" y="345" type="qcurve" smooth="yes"/>
      <point x="613" y="288"/>
      <point x="579" y="179"/>
      <point x="513" y="0" type="qcurve"/>
      <point x="225" y="0" type="line"/>
      <point x="225" y="1002" type="line"/>
      <point x="147" y="1046" type="line" smooth="yes"/>
      <point x="50" y="1099"/>
      <point x="50" y="1131" type="qcurve" smooth="yes"/>
      <point x="50" y="1162"/>
      <point x="111" y="1247" type="qcurve" smooth="yes"/>
      <point x="296" y="1500" type="line"/>
      <point x="414" y="1438" type="line"/>
      <point x="474" y="1406" type="line" smooth="yes"/>
      <point x="525" y="1379"/>
      <point x="561" y="1379" type="qcurve" smooth="yes"/>
      <point x="568" y="1379"/>
      <point x="573" y="1380" type="qcurve" smooth="yes"/>
      <point x="613" y="1385" type="line"/>
      <point x="613" y="1350"/>
      <point x="503" y="1172"/>
      <point x="458" y="1166" type="qcurve" smooth="yes"/>
      <point x="451" y="1165"/>
      <point x="444" y="1165" type="qcurve" smooth="yes"/>
      <point x="402" y="1165"/>
      <point x="339" y="1199" type="qcurve" smooth="yes"/>
      <point x="265" y="1238" type="line"/>
      <point x="218" y="1163" type="line"/>
      <point x="513" y="1004" type="line"/>
    </contour>
  </outline>
</glyph>
<glyph name="uni17C3" format="1">
  <advance width="713"/>
  <unicode hex="17C3"/>
  <outline>
    <contour>
      <point x="188" y="1870" type="qcurve" smooth="yes"/>
      <point x="313" y="1870"/>
      <point x="313" y="1800" type="qcurve" smooth="yes"/>
      <point x="313" y="1750"/>
      <point x="333" y="1750" type="qcurve" smooth="yes"/>
      <point x="363" y="1750"/>
      <point x="413" y="1800"/>
      <point x="413" y="1850" type="qcurve" smooth="yes"/>
      <point x="413" y="1920"/>
      <point x="363" y="1970"/>
      <point x="333" y="1970" type="qcurve" smooth="yes"/>
      <point x="313" y="1970" type="line" smooth="yes"/>
      <point x="63" y="1970"/>
      <point x="63" y="2070" type="qcurve" smooth="yes"/>
      <point x="63" y="2150"/>
      <point x="-37" y="2150" type="qcurve"/>
      <point x="-37" y="2250"/>
      <point x="63" y="2250" type="qcurve" smooth="yes"/>
      <point x="241" y="2250"/>
      <point x="277" y="2205" type="qcurve" smooth="yes"/>
      <point x="313" y="2160"/>
      <point x="313" y="2070" type="qcurve"/>
      <point x="333" y="2070" type="line" smooth="yes"/>
      <point x="551" y="2070"/>
      <point x="607" y="2020" type="qcurve" smooth="yes"/>
      <point x="663" y="1970"/>
      <point x="663" y="1850" type="qcurve" smooth="yes"/>
      <point x="663" y="1750"/>
      <point x="607" y="1700" type="qcurve" smooth="yes"/>
      <point x="551" y="1650"/>
      <point x="333" y="1650" type="qcurve" smooth="yes"/>
      <point x="63" y="1650"/>
      <point x="63" y="1790" type="qcurve" smooth="yes"/>
      <point x="63" y="1870"/>
    </contour>
    <contour>
      <point x="513" y="500" type="line"/>
      <point x="538" y="500"/>
      <point x="575" y="450" type="qcurve" smooth="yes"/>
      <point x="613" y="400"/>
      <point x="613" y="345" type="qcurve" smooth="yes"/>
      <point x="613" y="288"/>
      <point x="579" y="179"/>
      <point x="513" y="0" type="qcurve"/>
      <point x="225" y="0" type="line"/>
      <point x="225" y="1002" type="line"/>
      <point x="147" y="1046" type="line" smooth="yes"/>
      <point x="50" y="1099"/>
      <point x="50" y="1131" type="qcurve" smooth="yes"/>
      <point x="50" y="1162"/>
      <point x="111" y="1247" type="qcurve" smooth="yes"/>
      <point x="296" y="1500" type="line"/>
      <point x="414" y="1438" type="line"/>
      <point x="474" y="1406" type="line" smooth="yes"/>
      <point x="525" y="1379"/>
      <point x="561" y="1379" type="qcurve" smooth="yes"/>
      <point x="568" y="1379"/>
      <point x="573" y="1380" type="qcurve" smooth="yes"/>
      <point x="613" y="1385" type="line"/>
      <point x="613" y="1350"/>
      <point x="503" y="1172"/>
      <point x="458" y="1166" type="qcurve" smooth="yes"/>
      <point x="451" y="1165"/>
      <point x="444" y="1165" type="qcurve" smooth="yes"/>
      <point x="402" y="1165"/>
      <point x="339" y="1199" type="qcurve" smooth="yes"/>
      <point x="265" y="1238" type="line"/>
      <point x="218" y="1163" type="line"/>
      <point x="513" y="1004" type="line"/>
    </contour>
  </outline>
</glyph>
<glyph name="uni17C4" format="1">
  <advance width="688"/>
  <unicode hex="17C4"/>
  <outline>
    <contour>
      <point x="-250" y="1359" type="qcurve" smooth="yes"/>
      <point x="-250" y="1396"/>
      <point x="-212" y="1422" type="qcurve" smooth="yes"/>
      <point x="-98" y="1500"/>
      <point x="-7" y="1500" type="qcurve" smooth="yes"/>
      <point x="132" y="1500"/>
      <point x="218" y="1433" type="qcurve" smooth="yes"/>
      <point x="410" y="1282" type="line" smooth="yes"/>
      <point x="488" y="1223"/>
      <point x="488" y="1128" type="qcurve" smooth="yes"/>
      <point x="488" y="0" type="line"/>
      <point x="200" y="0" type="line"/>
      <point x="200" y="1128" type="line"/>
      <point x="-37" y="1319" type="line" smooth="yes"/>
      <point x="-73" y="1346"/>
      <point x="-101" y="1346" type="qcurve" smooth="yes"/>
      <point x="-118" y="1346"/>
      <point x="-132" y="1336" type="qcurve"/>
      <point x="-201" y="1253" type="line"/>
      <point x="-250" y="1300"/>
    </contour>
  </outline>
</glyph>
<glyph name="uni17C5" format="1">
  <advance width="688"/>
  <unicode hex="17C5"/>
  <outline>
    <contour>
      <point x="465" y="1200" type="qcurve"/>
      <point x="276" y="1309" type="line"/>
      <point x="276" y="1700" type="line" smooth="yes"/>
      <point x="276" y="1800"/>
      <point x="176" y="1800" type="qcurve"/>
      <point x="176" y="1900"/>
      <point x="351" y="1900" type="qcurve" smooth="yes"/>
      <point x="564" y="1900"/>
      <point x="564" y="1700" type="qcurve" smooth="yes"/>
      <point x="564" y="1400" type="line" smooth="yes"/>
      <point x="564" y="1326"/>
    </contour>
    <contour>
      <point x="-250" y="1359" type="qcurve" smooth="yes"/>
      <point x="-250" y="1396"/>
      <point x="-212" y="1422" type="qcurve" smooth="yes"/>
      <point x="-98" y="1500"/>
      <point x="-7" y="1500" type="qcurve" smooth="yes"/>
      <point x="132" y="1500"/>
      <point x="218" y="1433" type="qcurve" smooth="yes"/>
      <point x="410" y="1282" type="line" smooth="yes"/>
      <point x="488" y="1223"/>
      <point x="488" y="1128" type="qcurve" smooth="yes"/>
      <point x="488" y="0" type="line"/>
      <point x="200" y="0" type="line"/>
      <point x="200" y="1128" type="line"/>
      <point x="-37" y="1319" type="line" smooth="yes"/>
      <point x="-73" y="1346"/>
      <point x="-101" y="1346" type="qcurve" smooth="yes"/>
      <point x="-118" y="1346"/>
      <point x="-132" y="1336" type="qcurve"/>
      <point x="-201" y="1253" type="line"/>
      <point x="-250" y="1300"/>
    </contour>
  </outline>
</glyph>
<glyph name="uni17C6" format="1">
  <advance width="0"/>
  <unicode hex="17C6"/>
  <outline>
    <contour>
      <point x="-780" y="2025" type="qcurve" smooth="yes"/>
      <point x="-780" y="1975"/>
      <point x="-740" y="1925"/>
      <point x="-700" y="1925" type="qcurve" smooth="yes"/>
      <point x="-660" y="1925"/>
      <point x="-620" y="1975"/>
      <point x="-620" y="2025" type="qcurve" smooth="yes"/>
      <point x="-620" y="2075"/>
      <point x="-660" y="2125"/>
      <point x="-700" y="2125" type="qcurve" smooth="yes"/>
      <point x="-740" y="2125"/>
      <point x="-780" y="2075"/>
    </contour>
    <contour>
      <point x="-425" y="2025" type="qcurve" smooth="yes"/>
      <point x="-425" y="1912"/>
      <point x="-493" y="1856" type="qcurve" smooth="yes"/>
      <point x="-562" y="1800"/>
      <point x="-700" y="1800" type="qcurve" smooth="yes"/>
      <point x="-838" y="1800"/>
      <point x="-907" y="1856" type="qcurve" smooth="yes"/>
      <point x="-975" y="1912"/>
      <point x="-975" y="2025" type="qcurve" smooth="yes"/>
      <point x="-975" y="2138"/>
      <point x="-907" y="2194" type="qcurve" smooth="yes"/>
      <point x="-838" y="2250"/>
      <point x="-700" y="2250" type="qcurve" smooth="yes"/>
      <point x="-562" y="2250"/>
      <point x="-493" y="2194" type="qcurve" smooth="yes"/>
      <point x="-425" y="2138"/>
    </contour>
  </outline>
</glyph>
<glyph name="uni17C7" format="1">
  <advance width="950"/>
  <unicode hex="17C7"/>
  <outline>
    <contour>
      <point x="395" y="1225" type="qcurve" smooth="yes"/>
      <point x="395" y="1175"/>
      <point x="435" y="1125"/>
      <point x="475" y="1125" type="qcurve" smooth="yes"/>
      <point x="515" y="1125"/>
      <point x="555" y="1175"/>
      <point x="555" y="1225" type="qcurve" smooth="yes"/>
      <point x="555" y="1275"/>
      <point x="515" y="1325"/>
      <point x="475" y="1325" type="qcurve" smooth="yes"/>
      <point x="435" y="1325"/>
      <point x="395" y="1275"/>
    </contour>
    <contour>
      <point x="750" y="1225" type="qcurve" smooth="yes"/>
      <point x="750" y="1112"/>
      <point x="682" y="1056" type="qcurve" smooth="yes"/>
      <point x="613" y="1000"/>
      <point x="475" y="1000" type="qcurve" smooth="yes"/>
      <point x="337" y="1000"/>
      <point x="268" y="1056" type="qcurve" smooth="yes"/>
      <point x="200" y="1112"/>
      <point x="200" y="1225" type="qcurve" smooth="yes"/>
      <point x="200" y="1338"/>
      <point x="268" y="1394" type="qcurve" smooth="yes"/>
      <point x="337" y="1450"/>
      <point x="475" y="1450" type="qcurve" smooth="yes"/>
      <point x="613" y="1450"/>
      <point x="682" y="1394" type="qcurve" smooth="yes"/>
      <point x="750" y="1338"/>
    </contour>
    <contour>
      <point x="395" y="275" type="qcurve" smooth="yes"/>
      <point x="395" y="225"/>
      <point x="435" y="175"/>
      <point x="475" y="175" type="qcurve" smooth="yes"/>
      <point x="515" y="175"/>
      <point x="555" y="225"/>
      <point x="555" y="275" type="qcurve" smooth="yes"/>
      <point x="555" y="325"/>
      <point x="515" y="375"/>
      <point x="475" y="375" type="qcurve" smooth="yes"/>
      <point x="435" y="375"/>
      <point x="395" y="325"/>
    </contour>
    <contour>
      <point x="750" y="275" type="qcurve" smooth="yes"/>
      <point x="750" y="162"/>
      <point x="682" y="106" type="qcurve" smooth="yes"/>
      <point x="613" y="50"/>
      <point x="475" y="50" type="qcurve" smooth="yes"/>
      <point x="337" y="50"/>
      <point x="268" y="106" type="qcurve" smooth="yes"/>
      <point x="200" y="162"/>
      <point x="200" y="275" type="qcurve" smooth="yes"/>
      <point x="200" y="388"/>
      <point x="268" y="444" type="qcurve" smooth="yes"/>
      <point x="337" y="500"/>
      <point x="475" y="500" type="qcurve" smooth="yes"/>
      <point x="613" y="500"/>
      <point x="682" y="444" type="qcurve" smooth="yes"/>
      <point x="750" y="388"/>
    </contour>
  </outline>
</glyph>
<glyph name="uni17C8" format="1">
  <advance width="850"/>
  <unicode hex="17C8"/>
  <outline>
    <contour>
      <point x="361" y="150" type="qcurve" smooth="yes"/>
      <point x="280" y="150"/>
      <point x="240" y="181" type="qcurve" smooth="yes"/>
      <point x="200" y="212"/>
      <point x="200" y="275" type="qcurve" smooth="yes"/>
      <point x="200" y="338"/>
      <point x="240" y="369" type="qcurve" smooth="yes"/>
      <point x="280" y="400"/>
      <point x="361" y="400" type="qcurve" smooth="yes"/>
      <point x="442" y="400"/>
      <point x="482" y="368" type="qcurve" smooth="yes"/>
      <point x="521" y="337"/>
      <point x="521" y="274" type="qcurve" smooth="yes"/>
      <point x="521" y="244"/>
      <point x="554" y="244" type="qcurve" smooth="yes"/>
      <point x="586" y="244"/>
      <point x="650" y="274" type="qcurve"/>
      <point x="618" y="212"/>
      <point x="546" y="181" type="qcurve" smooth="yes"/>
      <point x="473" y="150"/>
    </contour>
    <contour>
      <point x="361" y="1098" type="qcurve" smooth="yes"/>
      <point x="280" y="1098"/>
      <point x="240" y="1129" type="qcurve" smooth="yes"/>
      <point x="200" y="1160"/>
      <point x="200" y="1223" type="qcurve" smooth="yes"/>
      <point x="200" y="1286"/>
      <point x="240" y="1317" type="qcurve" smooth="yes"/>
      <point x="280" y="1348"/>
      <point x="361" y="1348" type="qcurve" smooth="yes"/>
      <point x="442" y="1348"/>
      <point x="482" y="1316" type="qcurve" smooth="yes"/>
      <point x="521" y="1285"/>
      <point x="521" y="1222" type="qcurve" smooth="yes"/>
      <point x="521" y="1192"/>
      <point x="554" y="1192" type="qcurve" smooth="yes"/>
      <point x="586" y="1192"/>
      <point x="650" y="1222" type="qcurve"/>
      <point x="618" y="1160"/>
      <point x="546" y="1129" type="qcurve" smooth="yes"/>
      <point x="473" y="1098"/>
    </contour>
  </outline>
</glyph>
<glyph name="uni17C9" format="1">
  <advance width="0"/>
  <unicode hex="17C9"/>
  <outline>
    <contour>
      <point x="-780" y="2250" type="line"/>
      <point x="-780" y="1910" type="line" smooth="yes"/>
      <point x="-780" y="1830"/>
      <point x="-887" y="1800" type="qcurve"/>
      <point x="-995" y="1830"/>
      <point x="-995" y="1910" type="qcurve" smooth="yes"/>
      <point x="-995" y="2250" type="line"/>
    </contour>
    <contour>
      <point x="-405" y="2250" type="line"/>
      <point x="-405" y="1910" type="line" smooth="yes"/>
      <point x="-405" y="1830"/>
      <point x="-512" y="1800" type="qcurve"/>
      <point x="-620" y="1830"/>
      <point x="-620" y="1910" type="qcurve" smooth="yes"/>
      <point x="-620" y="2250" type="line"/>
    </contour>
  </outline>
</glyph>
<glyph name="uni17CA" format="1">
  <advance width="0"/>
  <unicode hex="17CA"/>
  <outline>
    <contour>
      <point x="-1156" y="1524" type="line"/>
      <point x="-1275" y="1578"/>
      <point x="-1275" y="1621" type="qcurve" smooth="yes"/>
      <point x="-1275" y="1671"/>
      <point x="-1210" y="1729" type="qcurve" smooth="yes"/>
      <point x="-1144" y="1787" type="line" smooth="yes"/>
      <point x="-1013" y="1906"/>
      <point x="-981" y="1906" type="qcurve" smooth="yes"/>
      <point x="-947" y="1906"/>
      <point x="-836" y="1799" type="qcurve" smooth="yes"/>
      <point x="-780" y="1745" type="line" smooth="yes"/>
      <point x="-753" y="1718"/>
      <point x="-725" y="1718" type="qcurve" smooth="yes"/>
      <point x="-700" y="1718"/>
      <point x="-674" y="1745" type="qcurve" smooth="yes"/>
      <point x="-624" y="1799" type="line" smooth="yes"/>
      <point x="-523" y="1906"/>
      <point x="-487" y="1906" type="qcurve" smooth="yes"/>
      <point x="-452" y="1906"/>
      <point x="-395" y="1846" type="qcurve" smooth="yes"/>
      <point x="-281" y="1727" type="line" smooth="yes"/>
      <point x="-248" y="1692"/>
      <point x="-199" y="1692" type="qcurve" smooth="yes"/>
      <point x="-166" y="1692"/>
      <point x="-125" y="1709" type="qcurve"/>
      <point x="-225" y="1549"/>
      <point x="-290" y="1549" type="qcurve" smooth="yes"/>
      <point x="-356" y="1549"/>
      <point x="-392" y="1587" type="qcurve" smooth="yes"/>
      <point x="-465" y="1664" type="line" smooth="yes"/>
      <point x="-502" y="1703"/>
      <point x="-545" y="1703" type="qcurve" smooth="yes"/>
      <point x="-588" y="1703"/>
      <point x="-656" y="1626" type="qcurve" smooth="yes"/>
      <point x="-725" y="1549"/>
      <point x="-765" y="1549" type="qcurve" smooth="yes"/>
      <point x="-832" y="1549"/>
      <point x="-873" y="1587" type="qcurve" smooth="yes"/>
      <point x="-954" y="1664" type="line" smooth="yes"/>
      <point x="-995" y="1703"/>
      <point x="-1038" y="1703" type="qcurve" smooth="yes"/>
      <point x="-1071" y="1703"/>
      <point x="-1098" y="1675" type="qcurve" smooth="yes"/>
      <point x="-1125" y="1646"/>
      <point x="-1125" y="1623" type="qcurve" smooth="yes"/>
      <point x="-1125" y="1600"/>
      <point x="-1051" y="1591" type="qcurve"/>
    </contour>
  </outline>
</glyph>
<glyph name="uni17CB" format="1">
  <advance width="0"/>
  <unicode hex="17CB"/>
  <outline>
    <contour>
      <point x="-565" y="2300" type="line"/>
      <point x="-565" y="1920" type="line" smooth="yes"/>
      <point x="-565" y="1830"/>
      <point x="-700" y="1800" type="qcurve"/>
      <point x="-835" y="1830"/>
      <point x="-835" y="1920" type="qcurve" smooth="yes"/>
      <point x="-835" y="2300" type="line"/>
    </contour>
  </outline>
</glyph>
<glyph name="uni17CC" format="1">
  <advance width="0"/>
  <unicode hex="17CC"/>
  <outline>
    <contour>
      <point x="-776" y="1916" type="qcurve" smooth="yes"/>
      <point x="-819" y="1897"/>
      <point x="-880" y="1849" type="qcurve" smooth="yes"/>
      <point x="-941" y="1800"/>
      <point x="-979" y="1800" type="qcurve" smooth="yes"/>
      <point x="-1061" y="1800"/>
      <point x="-1081" y="1827" type="qcurve" smooth="yes"/>
      <point x="-1094" y="1846"/>
      <point x="-1094" y="1865" type="qcurve" smooth="yes"/>
      <point x="-1094" y="1926"/>
      <point x="-1030" y="1971" type="qcurve" smooth="yes"/>
      <point x="-936" y="2035" type="line" smooth="yes"/>
      <point x="-794" y="2132"/>
      <point x="-731" y="2282"/>
      <point x="-731" y="2325" type="qcurve" smooth="yes"/>
      <point x="-731" y="2425"/>
      <point x="-596" y="2425" type="qcurve" smooth="yes"/>
      <point x="-512" y="2425"/>
      <point x="-512" y="2325" type="qcurve" smooth="yes"/>
      <point x="-513" y="2252"/>
      <point x="-577" y="2136"/>
      <point x="-715" y="2026" type="qcurve"/>
      <point x="-646" y="2051"/>
      <point x="-584" y="2051" type="qcurve" smooth="yes"/>
      <point x="-503" y="2051"/>
      <point x="-474" y="2045" type="qcurve" smooth="yes"/>
      <point x="-387" y="2026"/>
      <point x="-326" y="1934" type="qcurve" smooth="yes"/>
      <point x="-306" y="1899"/>
      <point x="-306" y="1872" type="qcurve" smooth="yes"/>
      <point x="-306" y="1834"/>
      <point x="-344" y="1813" type="qcurve" smooth="yes"/>
      <point x="-365" y="1800"/>
      <point x="-435" y="1800" type="qcurve" smooth="yes"/>
      <point x="-473" y="1800"/>
      <point x="-503" y="1850" type="qcurve" smooth="yes"/>
      <point x="-547" y="1925"/>
      <point x="-615" y="1935" type="qcurve"/>
      <point x="-733" y="1935"/>
    </contour>
  </outline>
</glyph>
<glyph name="uni17CD" format="1">
  <advance width="0"/>
  <unicode hex="17CD"/>
  <outline>
    <contour>
      <point x="-775" y="1976" type="qcurve" smooth="yes"/>
      <point x="-775" y="1938"/>
      <point x="-763" y="1920" type="qcurve" smooth="yes"/>
      <point x="-750" y="1901"/>
      <point x="-715" y="1901" type="qcurve" smooth="yes"/>
      <point x="-695" y="1901"/>
      <point x="-695" y="1919" type="qcurve" smooth="yes"/>
      <point x="-695" y="1950"/>
      <point x="-625" y="1950" type="qcurve" smooth="yes"/>
      <point x="-555" y="1950"/>
      <point x="-555" y="1919" type="qcurve" smooth="yes"/>
      <point x="-555" y="1860"/>
      <point x="-599" y="1830" type="qcurve" smooth="yes"/>
      <point x="-643" y="1800"/>
      <point x="-740" y="1800" type="qcurve" smooth="yes"/>
      <point x="-887" y="1800"/>
      <point x="-931" y="1844" type="qcurve" smooth="yes"/>
      <point x="-975" y="1888"/>
      <point x="-975" y="1975" type="qcurve" smooth="yes"/>
      <point x="-975" y="2052"/>
      <point x="-930" y="2111" type="qcurve" smooth="yes"/>
      <point x="-885" y="2170"/>
      <point x="-735" y="2170" type="qcurve" smooth="yes"/>
      <point x="-608" y="2170"/>
      <point x="-560" y="2111" type="qcurve"/>
      <point x="-484" y="2136"/>
      <point x="-419" y="2180" type="qcurve" smooth="yes"/>
      <point x="-355" y="2223"/>
      <point x="-313" y="2295" type="qcurve"/>
      <point x="-302" y="2297" type="line" smooth="yes"/>
      <point x="-283" y="2297"/>
      <point x="-260" y="2268" type="qcurve" smooth="yes"/>
      <point x="-245" y="2248"/>
      <point x="-245" y="2234" type="qcurve" smooth="yes"/>
      <point x="-245" y="2220"/>
      <point x="-257" y="2210" type="qcurve" smooth="yes"/>
      <point x="-302" y="2147"/>
      <point x="-362" y="2097" type="qcurve" smooth="yes"/>
      <point x="-423" y="2048"/>
      <point x="-498" y="2011" type="qcurve"/>
      <point x="-534" y="2000"/>
      <point x="-568" y="2000" type="qcurve"/>
      <point x="-642" y="2070"/>
      <point x="-705" y="2070" type="qcurve" smooth="yes"/>
      <point x="-720" y="2070"/>
      <point x="-747" y="2042" type="qcurve" smooth="yes"/>
      <point x="-775" y="2013"/>
    </contour>
  </outline>
</glyph>
<glyph name="uni17CE" format="1">
  <advance width="0"/>
  <unicode hex="17CE"/>
  <outline>
    <contour>
      <point x="-810" y="1949" type="line"/>
      <point x="-960" y="1949" type="line"/>
      <point x="-960" y="2070" type="line"/>
      <point x="-810" y="2070" type="line"/>
      <point x="-810" y="2219" type="line"/>
      <point x="-590" y="2219" type="line"/>
      <point x="-590" y="2070" type="line"/>
      <point x="-440" y="2070" type="line"/>
      <point x="-440" y="1949" type="line"/>
      <point x="-590" y="1949" type="line"/>
      <point x="-590" y="1800" type="line"/>
      <point x="-810" y="1800" type="line"/>
    </contour>
  </outline>
</glyph>
<glyph name="uni17CF" format="1">
  <advance width="0"/>
  <unicode hex="17CF"/>
  <outline>
    <contour>
      <point x="-480" y="2450" type="qcurve" smooth="yes"/>
      <point x="-381" y="2450"/>
      <point x="-381" y="2350" type="qcurve" smooth="yes"/>
      <point x="-381" y="2250"/>
      <point x="-480" y="2250" type="qcurve" smooth="yes"/>
      <point x="-515" y="2250"/>
      <point x="-562" y="2200" type="qcurve"/>
      <point x="-578" y="2150" type="line"/>
      <point x="-680" y="2150" type="line" smooth="yes"/>
      <point x="-890" y="2150"/>
      <point x="-890" y="2000" type="qcurve" smooth="yes"/>
      <point x="-890" y="1900"/>
      <point x="-850" y="1900" type="qcurve" smooth="yes"/>
      <point x="-810" y="1900"/>
      <point x="-700" y="2036" type="qcurve"/>
      <point x="-590" y="1900"/>
      <point x="-540" y="1900" type="qcurve" smooth="yes"/>
      <point x="-510" y="1900"/>
      <point x="-510" y="1950" type="qcurve" smooth="yes"/>
      <point x="-510" y="2000"/>
      <point x="-560" y="2000" type="qcurve"/>
      <point x="-560" y="2100"/>
      <point x="-435" y="2100" type="qcurve" smooth="yes"/>
      <point x="-310" y="2100"/>
      <point x="-310" y="1950" type="qcurve" smooth="yes"/>
      <point x="-310" y="1800"/>
      <point x="-535" y="1800" type="qcurve" smooth="yes"/>
      <point x="-630" y="1800"/>
      <point x="-700" y="1900" type="qcurve"/>
      <point x="-770" y="1800"/>
      <point x="-855" y="1800" type="qcurve" smooth="yes"/>
      <point x="-1090" y="1800"/>
      <point x="-1090" y="2000" type="qcurve" smooth="yes"/>
      <point x="-1090" y="2250"/>
      <point x="-680" y="2250" type="qcurve"/>
      <point x="-607" y="2450"/>
    </contour>
  </outline>
</glyph>
<glyph name="uni17D0" format="1">
  <advance width="0"/>
  <unicode hex="17D0"/>
  <outline>
    <contour>
      <point x="-730" y="2150" type="qcurve" smooth="yes"/>
      <point x="-600" y="2150"/>
      <point x="-600" y="2045" type="qcurve" smooth="yes"/>
      <point x="-600" y="1950"/>
      <point x="-675" y="1950" type="qcurve" smooth="yes"/>
      <point x="-740" y="1950"/>
      <point x="-750" y="2000" type="qcurve"/>
      <point x="-750" y="1901"/>
      <point x="-650" y="1901" type="qcurve" smooth="yes"/>
      <point x="-475" y="1901"/>
      <point x="-412" y="1954" type="qcurve" smooth="yes"/>
      <point x="-350" y="2007"/>
      <point x="-350" y="2113" type="qcurve" smooth="yes"/>
      <point x="-350" y="2233"/>
      <point x="-400" y="2233" type="qcurve" smooth="yes"/>
      <point x="-450" y="2233"/>
      <point x="-450" y="2283" type="qcurve" smooth="yes"/>
      <point x="-450" y="2333"/>
      <point x="-400" y="2333" type="qcurve" smooth="yes"/>
      <point x="-275" y="2333"/>
      <point x="-212" y="2278" type="qcurve" smooth="yes"/>
      <point x="-150" y="2223"/>
      <point x="-150" y="2113" type="qcurve" smooth="yes"/>
      <point x="-150" y="1956"/>
      <point x="-262" y="1878" type="qcurve" smooth="yes"/>
      <point x="-375" y="1800"/>
      <point x="-650" y="1800" type="qcurve" smooth="yes"/>
      <point x="-825" y="1800"/>
      <point x="-888" y="1850" type="qcurve" smooth="yes"/>
      <point x="-950" y="1900"/>
      <point x="-950" y="2000" type="qcurve" smooth="yes"/>
      <point x="-950" y="2150"/>
    </contour>
  </outline>
</glyph>
<glyph name="uni17D1" format="1">
  <advance width="0"/>
  <unicode hex="17D1"/>
  <outline>
    <contour>
      <point x="-225" y="1800" type="line"/>
      <point x="-225" y="1650" type="line"/>
      <point x="-1175" y="1650" type="line"/>
      <point x="-1175" y="1800" type="line"/>
    </contour>
  </outline>
</glyph>
<glyph name="uni17D2" format="1">
  <advance width="0"/>
  <unicode hex="17D2"/>
  <outline>
    <contour>
      <point x="-500" y="-450" type="line"/>
      <point x="-650" y="-450" type="line"/>
      <point x="-650" y="-600" type="line"/>
      <point x="-750" y="-600" type="line"/>
      <point x="-750" y="-450" type="line"/>
      <point x="-900" y="-450" type="line"/>
      <point x="-900" y="-350" type="line"/>
      <point x="-750" y="-350" type="line"/>
      <point x="-750" y="-200" type="line"/>
      <point x="-650" y="-200" type="line"/>
      <point x="-650" y="-350" type="line"/>
      <point x="-500" y="-350" type="line"/>
    </contour>
  </outline>
</glyph>
<glyph name="uni17D3" format="1">
  <advance width="0"/>
  <unicode hex="17D3"/>
  <outline>
    <contour>
      <point x="-850" y="1850" type="qcurve" smooth="yes"/>
      <point x="-850" y="1800"/>
      <point x="-813" y="1775" type="qcurve" smooth="yes"/>
      <point x="-775" y="1750"/>
      <point x="-700" y="1750" type="qcurve" smooth="yes"/>
      <point x="-625" y="1750"/>
      <point x="-587" y="1775" type="qcurve" smooth="yes"/>
      <point x="-550" y="1800"/>
      <point x="-550" y="1850" type="qcurve" smooth="yes"/>
      <point x="-550" y="1900"/>
      <point x="-587" y="1925" type="qcurve" smooth="yes"/>
      <point x="-625" y="1950"/>
      <point x="-700" y="1950" type="qcurve" smooth="yes"/>
      <point x="-775" y="1950"/>
      <point x="-813" y="1925" type="qcurve" smooth="yes"/>
      <point x="-850" y="1900"/>
    </contour>
    <contour>
      <point x="-450" y="1850" type="qcurve" smooth="yes"/>
      <point x="-450" y="1750"/>
      <point x="-513" y="1700" type="qcurve" smooth="yes"/>
      <point x="-575" y="1650"/>
      <point x="-700" y="1650" type="qcurve" smooth="yes"/>
      <point x="-825" y="1650"/>
      <point x="-887" y="1700" type="qcurve" smooth="yes"/>
      <point x="-950" y="1750"/>
      <point x="-950" y="1850" type="qcurve" smooth="yes"/>
      <point x="-950" y="1950"/>
      <point x="-887" y="2000" type="qcurve" smooth="yes"/>
      <point x="-825" y="2050"/>
      <point x="-700" y="2050" type="qcurve" smooth="yes"/>
      <point x="-575" y="2050"/>
      <point x="-513" y="2000" type="qcurve" smooth="yes"/>
      <point x="-450" y="1950"/>
    </contour>
  </outline>
</glyph>
<glyph name="uni17D4" format="1">
  <advance width="1538"/>
  <unicode hex="17D4"/>
  <outline>
    <contour>
      <point x="1050" y="1392" type="line"/>
      <point x="1050" y="1500" type="line"/>
      <point x="1338" y="1500" type="line"/>
      <point x="1338" y="205" type="line" smooth="yes"/>
      <point x="1338" y="88"/>
      <point x="1155" y="0"/>
      <point x="1060" y="0" type="qcurve" smooth="yes"/>
      <point x="1005" y="0"/>
      <point x="978" y="25" type="qcurve" smooth="yes"/>
      <point x="950" y="50"/>
      <point x="950" y="101" type="qcurve"/>
      <point x="1013" y="101"/>
      <point x="1050" y="138"/>
      <point x="1050" y="205" type="qcurve" smooth="yes"/>
      <point x="1050" y="1221" type="line"/>
      <point x="946" y="1151" type="line"/>
      <point x="692" y="1000"/>
      <point x="550" y="1000" type="qcurve" smooth="yes"/>
      <point x="200" y="1000"/>
      <point x="200" y="1250" type="qcurve" smooth="yes"/>
      <point x="200" y="1500"/>
      <point x="550" y="1500" type="qcurve" smooth="yes"/>
      <point x="650" y="1500"/>
      <point x="650" y="1425" type="qcurve" smooth="yes"/>
      <point x="650" y="1350"/>
      <point x="550" y="1350" type="qcurve" smooth="yes"/>
      <point x="488" y="1350"/>
      <point x="488" y="1250" type="qcurve" smooth="yes"/>
      <point x="488" y="1150"/>
      <point x="550" y="1150" type="qcurve" smooth="yes"/>
      <point x="648" y="1150"/>
      <point x="876" y="1283" type="qcurve"/>
    </contour>
  </outline>
</glyph>
<glyph name="uni17D6" format="1">
  <advance width="1150"/>
  <unicode hex="17D6"/>
  <outline>
    <contour>
      <point x="525" y="1225" type="qcurve" smooth="yes"/>
      <point x="525" y="1175"/>
      <point x="538" y="1150" type="qcurve" smooth="yes"/>
      <point x="550" y="1125"/>
      <point x="575" y="1125" type="qcurve" smooth="yes"/>
      <point x="600" y="1125"/>
      <point x="613" y="1150" type="qcurve" smooth="yes"/>
      <point x="625" y="1175"/>
      <point x="625" y="1225" type="qcurve" smooth="yes"/>
      <point x="625" y="1275"/>
      <point x="613" y="1300" type="qcurve" smooth="yes"/>
      <point x="600" y="1325"/>
      <point x="575" y="1325" type="qcurve" smooth="yes"/>
      <point x="550" y="1325"/>
      <point x="538" y="1300" type="qcurve" smooth="yes"/>
      <point x="525" y="1275"/>
    </contour>
    <contour>
      <point x="850" y="1225" type="qcurve" smooth="yes"/>
      <point x="850" y="1112"/>
      <point x="794" y="1056" type="qcurve" smooth="yes"/>
      <point x="738" y="1000"/>
      <point x="575" y="1000" type="qcurve" smooth="yes"/>
      <point x="412" y="1000"/>
      <point x="356" y="1056" type="qcurve" smooth="yes"/>
      <point x="300" y="1112"/>
      <point x="300" y="1225" type="qcurve" smooth="yes"/>
      <point x="300" y="1338"/>
      <point x="356" y="1394" type="qcurve" smooth="yes"/>
      <point x="412" y="1450"/>
      <point x="575" y="1450" type="qcurve" smooth="yes"/>
      <point x="738" y="1450"/>
      <point x="794" y="1394" type="qcurve" smooth="yes"/>
      <point x="850" y="1338"/>
    </contour>
    <contour>
      <point x="525" y="275" type="qcurve" smooth="yes"/>
      <point x="525" y="225"/>
      <point x="538" y="200" type="qcurve" smooth="yes"/>
      <point x="550" y="175"/>
      <point x="575" y="175" type="qcurve" smooth="yes"/>
      <point x="600" y="175"/>
      <point x="613" y="200" type="qcurve" smooth="yes"/>
      <point x="625" y="225"/>
      <point x="625" y="275" type="qcurve" smooth="yes"/>
      <point x="625" y="325"/>
      <point x="613" y="350" type="qcurve" smooth="yes"/>
      <point x="600" y="375"/>
      <point x="575" y="375" type="qcurve" smooth="yes"/>
      <point x="550" y="375"/>
      <point x="538" y="350" type="qcurve" smooth="yes"/>
      <point x="525" y="325"/>
    </contour>
    <contour>
      <point x="850" y="275" type="qcurve" smooth="yes"/>
      <point x="850" y="162"/>
      <point x="794" y="106" type="qcurve" smooth="yes"/>
      <point x="738" y="50"/>
      <point x="575" y="50" type="qcurve" smooth="yes"/>
      <point x="412" y="50"/>
      <point x="356" y="106" type="qcurve" smooth="yes"/>
      <point x="300" y="162"/>
      <point x="300" y="275" type="qcurve" smooth="yes"/>
      <point x="300" y="388"/>
      <point x="356" y="444" type="qcurve" smooth="yes"/>
      <point x="412" y="500"/>
      <point x="575" y="500" type="qcurve" smooth="yes"/>
      <point x="738" y="500"/>
      <point x="794" y="444" type="qcurve" smooth="yes"/>
      <point x="850" y="388"/>
    </contour>
    <contour>
      <point x="950" y="825" type="line"/>
      <point x="950" y="674" type="line"/>
      <point x="200" y="674" type="line"/>
      <point x="200" y="825" type="line"/>
    </contour>
  </outline>
</glyph>
<glyph name="uni17D7" format="1">
  <advance width="1488"/>
  <unicode hex="17D7"/>
  <outline>
    <contour>
      <point x="1288" y="350" type="line" smooth="yes"/>
      <point x="1288" y="175"/>
      <point x="1042" y="0"/>
      <point x="784" y="0" type="qcurve" smooth="yes"/>
      <point x="577" y="0"/>
      <point x="473" y="44" type="qcurve" smooth="yes"/>
      <point x="369" y="87"/>
      <point x="369" y="175" type="qcurve" smooth="yes"/>
      <point x="369" y="233"/>
      <point x="428" y="291"/>
      <point x="488" y="291" type="qcurve"/>
      <point x="488" y="246"/>
      <point x="562" y="198" type="qcurve" smooth="yes"/>
      <point x="636" y="151"/>
      <point x="784" y="151" type="qcurve" smooth="yes"/>
      <point x="855" y="151"/>
      <point x="1000" y="275"/>
      <point x="1000" y="350" type="qcurve" smooth="yes"/>
      <point x="1000" y="1256" type="line"/>
      <point x="786" y="1115" type="line"/>
      <point x="562" y="1289" type="line"/>
      <point x="465" y="1209" type="line"/>
      <point x="465" y="1179"/>
      <point x="481" y="1165" type="qcurve" smooth="yes"/>
      <point x="496" y="1150"/>
      <point x="528" y="1150" type="qcurve" smooth="yes"/>
      <point x="557" y="1150"/>
      <point x="572" y="1163" type="qcurve" smooth="yes"/>
      <point x="587" y="1175"/>
      <point x="587" y="1200" type="qcurve"/>
      <point x="617" y="1200"/>
      <point x="631" y="1179" type="qcurve" smooth="yes"/>
      <point x="646" y="1157"/>
      <point x="646" y="1113" type="qcurve" smooth="yes"/>
      <point x="646" y="1069"/>
      <point x="617" y="1047" type="qcurve" smooth="yes"/>
      <point x="587" y="1026"/>
      <point x="528" y="1026" type="qcurve" smooth="yes"/>
      <point x="308" y="1026"/>
      <point x="254" y="1074" type="qcurve" smooth="yes"/>
      <point x="200" y="1122"/>
      <point x="200" y="1209" type="qcurve"/>
      <point x="231" y="1281"/>
      <point x="299" y="1354" type="qcurve" smooth="yes"/>
      <point x="367" y="1427"/>
      <point x="522" y="1500" type="qcurve"/>
      <point x="784" y="1290" type="line"/>
      <point x="1073" y="1499" type="line"/>
      <point x="1288" y="1499" type="line"/>
    </contour>
  </outline>
</glyph>
<glyph name="uni17D8" format="1">
  <advance width="5238"/>
  <unicode hex="17D8"/>
  <outline>
    <contour>
      <point x="4750" y="1392" type="line"/>
      <point x="4750" y="1500" type="line"/>
      <point x="5038" y="1500" type="line"/>
      <point x="5038" y="205" type="line" smooth="yes"/>
      <point x="5038" y="88"/>
      <point x="4855" y="0"/>
      <point x="4760" y="0" type="qcurve" smooth="yes"/>
      <point x="4705" y="0"/>
      <point x="4678" y="25" type="qcurve" smooth="yes"/>
      <point x="4650" y="50"/>
      <point x="4650" y="101" type="qcurve"/>
      <point x="4713" y="101"/>
      <point x="4750" y="138"/>
      <point x="4750" y="205" type="qcurve" smooth="yes"/>
      <point x="4750" y="1221" type="line"/>
      <point x="4646" y="1151" type="line"/>
      <point x="4392" y="1000"/>
      <point x="4250" y="1000" type="qcurve" smooth="yes"/>
      <point x="3900" y="1000"/>
      <point x="3900" y="1250" type="qcurve" smooth="yes"/>
      <point x="3900" y="1500"/>
      <point x="4250" y="1500" type="qcurve" smooth="yes"/>
      <point x="4350" y="1500"/>
      <point x="4350" y="1425" type="qcurve" smooth="yes"/>
      <point x="4350" y="1350"/>
      <point x="4250" y="1350" type="qcurve" smooth="yes"/>
      <point x="4188" y="1350"/>
      <point x="4188" y="1250" type="qcurve" smooth="yes"/>
      <point x="4188" y="1150"/>
      <point x="4250" y="1150" type="qcurve" smooth="yes"/>
      <point x="4348" y="1150"/>
      <point x="4576" y="1283" type="qcurve"/>
    </contour>
    <contour>
      <point x="1050" y="1392" type="line"/>
      <point x="1050" y="1500" type="line"/>
      <point x="1338" y="1500" type="line"/>
      <point x="1338" y="205" type="line" smooth="yes"/>
      <point x="1338" y="88"/>
      <point x="1155" y="0"/>
      <point x="1060" y="0" type="qcurve" smooth="yes"/>
      <point x="1005" y="0"/>
      <point x="978" y="25" type="qcurve" smooth="yes"/>
      <point x="950" y="50"/>
      <point x="950" y="101" type="qcurve"/>
      <point x="1013" y="101"/>
      <point x="1050" y="138"/>
      <point x="1050" y="205" type="qcurve" smooth="yes"/>
      <point x="1050" y="1221" type="line"/>
      <point x="946" y="1151" type="line"/>
      <point x="692" y="1000"/>
      <point x="550" y="1000" type="qcurve" smooth="yes"/>
      <point x="200" y="1000"/>
      <point x="200" y="1250" type="qcurve" smooth="yes"/>
      <point x="200" y="1500"/>
      <point x="550" y="1500" type="qcurve" smooth="yes"/>
      <point x="650" y="1500"/>
      <point x="650" y="1425" type="qcurve" smooth="yes"/>
      <point x="650" y="1350"/>
      <point x="550" y="1350" type="qcurve" smooth="yes"/>
      <point x="488" y="1350"/>
      <point x="488" y="1250" type="qcurve" smooth="yes"/>
      <point x="488" y="1150"/>
      <point x="550" y="1150" type="qcurve" smooth="yes"/>
      <point x="648" y="1150"/>
      <point x="876" y="1283" type="qcurve"/>
    </contour>
    <contour>
      <point x="2023" y="465" type="qcurve"/>
      <point x="2023" y="241" type="line"/>
      <point x="2101" y="320"/>
      <point x="2101" y="389" type="qcurve" smooth="yes"/>
      <point x="2101" y="429"/>
      <point x="2074" y="448" type="qcurve" smooth="yes"/>
      <point x="2053" y="462"/>
    </contour>
    <contour>
      <point x="2500" y="605" type="line"/>
      <point x="2497" y="605" type="line"/>
      <point x="2497" y="1050" type="line" smooth="yes"/>
      <point x="2497" y="1126"/>
      <point x="2264" y="1322"/>
      <point x="2175" y="1322" type="qcurve" smooth="yes"/>
      <point x="2071" y="1322"/>
      <point x="1924" y="1173" type="qcurve"/>
      <point x="1962" y="1148" type="line" smooth="yes"/>
      <point x="2023" y="1110"/>
      <point x="2023" y="1050" type="qcurve" smooth="yes"/>
      <point x="2023" y="598" type="line"/>
      <point x="2146" y="589"/>
      <point x="2182" y="541" type="qcurve" smooth="yes"/>
      <point x="2225" y="481"/>
      <point x="2225" y="415" type="qcurve" smooth="yes"/>
      <point x="2225" y="337"/>
      <point x="2185" y="250" type="qcurve" smooth="yes"/>
      <point x="2145" y="162"/>
      <point x="2023" y="0" type="qcurve"/>
      <point x="1735" y="0" type="line"/>
      <point x="1735" y="1008" type="line"/>
      <point x="1673" y="1046" type="line" smooth="yes"/>
      <point x="1625" y="1075"/>
      <point x="1625" y="1140" type="qcurve" smooth="yes"/>
      <point x="1625" y="1205"/>
      <point x="2073" y="1500"/>
      <point x="2175" y="1500" type="qcurve" smooth="yes"/>
      <point x="2333" y="1500"/>
      <point x="2785" y="1225"/>
      <point x="2785" y="1050" type="qcurve" smooth="yes"/>
      <point x="2785" y="676" type="line"/>
      <point x="2788" y="676" type="line"/>
      <point x="2788" y="300" type="line" smooth="yes"/>
      <point x="2788" y="242"/>
      <point x="2894" y="144"/>
      <point x="3000" y="144" type="qcurve" smooth="yes"/>
      <point x="3106" y="144"/>
      <point x="3212" y="242"/>
      <point x="3212" y="300" type="qcurve" smooth="yes"/>
      <point x="3212" y="1002" type="line"/>
      <point x="3134" y="1046" type="line" smooth="yes"/>
      <point x="3037" y="1099"/>
      <point x="3037" y="1131" type="qcurve" smooth="yes"/>
      <point x="3037" y="1162"/>
      <point x="3098" y="1247" type="qcurve" smooth="yes"/>
      <point x="3283" y="1500" type="line"/>
      <point x="3401" y="1438" type="line"/>
      <point x="3461" y="1406" type="line" smooth="yes"/>
      <point x="3512" y="1379"/>
      <point x="3548" y="1379" type="qcurve" smooth="yes"/>
      <point x="3555" y="1379"/>
      <point x="3560" y="1380" type="qcurve" smooth="yes"/>
      <point x="3600" y="1385" type="line"/>
      <point x="3600" y="1350"/>
      <point x="3490" y="1172"/>
      <point x="3445" y="1166" type="qcurve" smooth="yes"/>
      <point x="3438" y="1165"/>
      <point x="3431" y="1165" type="qcurve" smooth="yes"/>
      <point x="3389" y="1165"/>
      <point x="3326" y="1199" type="qcurve" smooth="yes"/>
      <point x="3252" y="1238" type="line"/>
      <point x="3205" y="1163" type="line"/>
      <point x="3500" y="1004" type="line"/>
      <point x="3500" y="300" type="line" smooth="yes"/>
      <point x="3500" y="200"/>
      <point x="3250" y="0"/>
      <point x="3000" y="0" type="qcurve" smooth="yes"/>
      <point x="2750" y="0"/>
      <point x="2500" y="200"/>
      <point x="2500" y="300" type="qcurve" smooth="yes"/>
    </contour>
  </outline>
</glyph>
<glyph name="uni17DD" format="1">
  <advance width="0"/>
  <unicode hex="17DD"/>
  <outline>
    <contour>
      <point x="-153" y="1650" type="qcurve"/>
      <point x="-292" y="1650" type="line"/>
      <point x="-429" y="1650" type="line"/>
      <point x="-429" y="1755"/>
      <point x="-547" y="1807" type="qcurve" smooth="yes"/>
      <point x="-665" y="1861"/>
      <point x="-901" y="1861" type="qcurve" smooth="yes"/>
      <point x="-1139" y="1861"/>
      <point x="-1257" y="1807" type="qcurve" smooth="yes"/>
      <point x="-1377" y="1755"/>
      <point x="-1377" y="1650" type="qcurve"/>
      <point x="-1512" y="1650" type="line"/>
      <point x="-1649" y="1650" type="line"/>
      <point x="-1649" y="1826"/>
      <point x="-1462" y="1914" type="qcurve" smooth="yes"/>
      <point x="-1274" y="2001"/>
      <point x="-901" y="2001" type="qcurve" smooth="yes"/>
      <point x="-528" y="2001"/>
      <point x="-340" y="1914" type="qcurve" smooth="yes"/>
      <point x="-153" y="1826"/>
    </contour>
  </outline>
</glyph>
<glyph name="uni17E0" format="1">
  <advance width="1550"/>
  <unicode hex="17E0"/>
  <outline>
    <contour>
      <point x="200" y="600" type="qcurve" smooth="yes"/>
      <point x="200" y="900" type="line" smooth="yes"/>
      <point x="200" y="1125"/>
      <point x="488" y="1500"/>
      <point x="776" y="1500" type="qcurve" smooth="yes"/>
      <point x="1063" y="1500"/>
      <point x="1350" y="1125"/>
      <point x="1350" y="900" type="qcurve" smooth="yes"/>
      <point x="1350" y="600" type="line" smooth="yes"/>
      <point x="1350" y="375"/>
      <point x="1063" y="0"/>
      <point x="776" y="0" type="qcurve" smooth="yes"/>
      <point x="488" y="0"/>
      <point x="200" y="375"/>
    </contour>
    <contour>
      <point x="500" y="900" type="qcurve" smooth="yes"/>
      <point x="500" y="600" type="line" smooth="yes"/>
      <point x="500" y="447"/>
      <point x="632" y="144"/>
      <point x="776" y="144" type="qcurve" smooth="yes"/>
      <point x="919" y="144"/>
      <point x="1050" y="447"/>
      <point x="1050" y="600" type="qcurve" smooth="yes"/>
      <point x="1050" y="900" type="line" smooth="yes"/>
      <point x="1050" y="1053"/>
      <point x="919" y="1356"/>
      <point x="776" y="1356" type="qcurve" smooth="yes"/>
      <point x="632" y="1356"/>
      <point x="500" y="1053"/>
    </contour>
  </outline>
</glyph>
<glyph name="uni17E1" format="1">
  <advance width="1550"/>
  <unicode hex="17E1"/>
  <outline>
    <contour>
      <point x="1172" y="233" type="qcurve" smooth="yes"/>
      <point x="993" y="0"/>
      <point x="600" y="0" type="qcurve" smooth="yes"/>
      <point x="500" y="0"/>
      <point x="500" y="72" type="qcurve" smooth="yes"/>
      <point x="500" y="144"/>
      <point x="600" y="144" type="qcurve" smooth="yes"/>
      <point x="839" y="144"/>
      <point x="1050" y="527"/>
      <point x="1050" y="900" type="qcurve" smooth="yes"/>
      <point x="1050" y="1173"/>
      <point x="889" y="1356"/>
      <point x="756" y="1356" type="qcurve" smooth="yes"/>
      <point x="622" y="1356"/>
      <point x="450" y="1183"/>
      <point x="450" y="1030" type="qcurve" smooth="yes"/>
      <point x="450" y="905"/>
      <point x="535" y="780"/>
      <point x="632" y="780" type="qcurve" smooth="yes"/>
      <point x="703" y="780"/>
      <point x="731" y="850" type="qcurve"/>
      <point x="650" y="864"/>
      <point x="650" y="940" type="qcurve" smooth="yes"/>
      <point x="650" y="1070"/>
      <point x="775" y="1070" type="qcurve" smooth="yes"/>
      <point x="900" y="1070"/>
      <point x="900" y="940" type="qcurve" smooth="yes"/>
      <point x="900" y="803"/>
      <point x="831" y="725" type="qcurve" smooth="yes"/>
      <point x="761" y="646"/>
      <point x="632" y="646" type="qcurve" smooth="yes"/>
      <point x="401" y="646"/>
      <point x="301" y="755" type="qcurve" smooth="yes"/>
      <point x="200" y="863"/>
      <point x="200" y="1030" type="qcurve" smooth="yes"/>
      <point x="200" y="1225"/>
      <point x="329" y="1363" type="qcurve" smooth="yes"/>
      <point x="458" y="1500"/>
      <point x="756" y="1500" type="qcurve" smooth="yes"/>
      <point x="1053" y="1500"/>
      <point x="1202" y="1358" type="qcurve" smooth="yes"/>
      <point x="1350" y="1215"/>
      <point x="1350" y="900" type="qcurve" smooth="yes"/>
      <point x="1350" y="465"/>
    </contour>
  </outline>
</glyph>
<glyph name="uni17E2" format="1">
  <advance width="1860"/>
  <unicode hex="17E2"/>
  <outline>
    <contour>
      <point x="960" y="875" type="qcurve"/>
      <point x="960" y="800" type="line"/>
      <point x="1008" y="800"/>
      <point x="1008" y="850" type="qcurve" smooth="yes"/>
      <point x="1008" y="862"/>
      <point x="995" y="869" type="qcurve" smooth="yes"/>
      <point x="983" y="875"/>
    </contour>
    <contour>
      <point x="800" y="0" type="line" smooth="yes"/>
      <point x="480" y="0"/>
      <point x="340" y="115" type="qcurve" smooth="yes"/>
      <point x="200" y="230"/>
      <point x="200" y="400" type="qcurve" smooth="yes"/>
      <point x="200" y="1450" type="line" smooth="yes"/>
      <point x="200" y="1566"/>
      <point x="100" y="1566" type="qcurve"/>
      <point x="100" y="1700"/>
      <point x="230" y="1700" type="qcurve" smooth="yes"/>
      <point x="500" y="1700"/>
      <point x="500" y="1450" type="qcurve" smooth="yes"/>
      <point x="500" y="400" type="line" smooth="yes"/>
      <point x="500" y="272"/>
      <point x="674" y="144"/>
      <point x="800" y="144" type="qcurve" smooth="yes"/>
      <point x="1010" y="144" type="line" smooth="yes"/>
      <point x="1186" y="144"/>
      <point x="1360" y="272"/>
      <point x="1360" y="400" type="qcurve" smooth="yes"/>
      <point x="1360" y="1200" type="line" smooth="yes"/>
      <point x="1360" y="1264"/>
      <point x="1316" y="1264" type="qcurve" smooth="yes"/>
      <point x="1272" y="1264"/>
      <point x="1161" y="1150" type="qcurve"/>
      <point x="1051" y="1264"/>
      <point x="1006" y="1264" type="qcurve" smooth="yes"/>
      <point x="960" y="1264"/>
      <point x="960" y="1200" type="qcurve" smooth="yes"/>
      <point x="960" y="975" type="line"/>
      <point x="1034" y="975"/>
      <point x="1071" y="944" type="qcurve" smooth="yes"/>
      <point x="1108" y="912"/>
      <point x="1108" y="850" type="qcurve" smooth="yes"/>
      <point x="1108" y="700"/>
      <point x="960" y="700" type="qcurve" smooth="yes"/>
      <point x="810" y="700" type="line" smooth="yes"/>
      <point x="660" y="700"/>
      <point x="660" y="800" type="qcurve" smooth="yes"/>
      <point x="660" y="1200" type="line" smooth="yes"/>
      <point x="660" y="1322"/>
      <point x="878" y="1500"/>
      <point x="958" y="1500" type="qcurve" smooth="yes"/>
      <point x="1038" y="1500"/>
      <point x="1161" y="1326" type="qcurve"/>
      <point x="1284" y="1500"/>
      <point x="1364" y="1500" type="qcurve" smooth="yes"/>
      <point x="1443" y="1500"/>
      <point x="1660" y="1322"/>
      <point x="1660" y="1200" type="qcurve" smooth="yes"/>
      <point x="1660" y="400" type="line" smooth="yes"/>
      <point x="1660" y="230"/>
      <point x="1520" y="115" type="qcurve" smooth="yes"/>
      <point x="1380" y="0"/>
      <point x="1010" y="0" type="qcurve" smooth="yes"/>
    </contour>
  </outline>
</glyph>
<glyph name="uni17E3" format="1">
  <advance width="1810"/>
  <unicode hex="17E3"/>
  <outline>
    <contour>
      <point x="500" y="175" type="qcurve"/>
      <point x="500" y="100" type="line"/>
      <point x="548" y="100"/>
      <point x="548" y="150" type="qcurve" smooth="yes"/>
      <point x="548" y="162"/>
      <point x="535" y="169" type="qcurve" smooth="yes"/>
      <point x="523" y="175"/>
    </contour>
    <contour>
      <point x="760" y="1150" type="line" smooth="yes"/>
      <point x="760" y="1366"/>
      <point x="625" y="1366" type="qcurve" smooth="yes"/>
      <point x="500" y="1366"/>
      <point x="500" y="1150" type="qcurve" smooth="yes"/>
      <point x="500" y="275" type="line"/>
      <point x="574" y="275"/>
      <point x="611" y="244" type="qcurve" smooth="yes"/>
      <point x="648" y="212"/>
      <point x="648" y="150" type="qcurve" smooth="yes"/>
      <point x="648" y="0"/>
      <point x="500" y="0" type="qcurve" smooth="yes"/>
      <point x="200" y="0"/>
      <point x="200" y="100" type="qcurve" smooth="yes"/>
      <point x="200" y="1150" type="line" smooth="yes"/>
      <point x="200" y="1500"/>
      <point x="625" y="1500" type="qcurve" smooth="yes"/>
      <point x="822" y="1500"/>
      <point x="916" y="1413" type="qcurve"/>
      <point x="1010" y="1500"/>
      <point x="1187" y="1500" type="qcurve" smooth="yes"/>
      <point x="1610" y="1500"/>
      <point x="1610" y="1150" type="qcurve" smooth="yes"/>
      <point x="1610" y="100" type="line" smooth="yes"/>
      <point x="1610" y="0"/>
      <point x="1460" y="0" type="qcurve" smooth="yes"/>
      <point x="1310" y="0"/>
      <point x="1310" y="100" type="qcurve" smooth="yes"/>
      <point x="1310" y="1150" type="line" smooth="yes"/>
      <point x="1310" y="1366"/>
      <point x="1187" y="1366" type="qcurve" smooth="yes"/>
      <point x="1060" y="1366"/>
      <point x="1060" y="1150" type="qcurve" smooth="yes"/>
      <point x="1060" y="100" type="line" smooth="yes"/>
      <point x="1060" y="0"/>
      <point x="910" y="0" type="qcurve" smooth="yes"/>
      <point x="760" y="0"/>
      <point x="760" y="100" type="qcurve" smooth="yes"/>
    </contour>
  </outline>
</glyph>
<glyph name="uni17E4" format="1">
  <advance width="1550"/>
  <unicode hex="17E4"/>
  <outline>
    <contour>
      <point x="1230" y="700" type="qcurve" smooth="yes"/>
      <point x="1240" y="710"/>
      <point x="1240" y="735" type="qcurve" smooth="yes"/>
      <point x="1240" y="766"/>
      <point x="1200" y="786" type="qcurve"/>
      <point x="1200" y="689" type="line"/>
      <point x="1220" y="689"/>
    </contour>
    <contour>
      <point x="200" y="800" type="line" smooth="yes"/>
      <point x="200" y="1134"/>
      <point x="615" y="1254" type="qcurve"/>
      <point x="898" y="1345" type="line"/>
      <point x="1050" y="1413"/>
      <point x="1050" y="1530" type="qcurve" smooth="yes"/>
      <point x="1050" y="1600"/>
      <point x="962" y="1600" type="qcurve"/>
      <point x="962" y="1700"/>
      <point x="1112" y="1700" type="qcurve" smooth="yes"/>
      <point x="1350" y="1700"/>
      <point x="1350" y="1530" type="qcurve" smooth="yes"/>
      <point x="1350" y="1320"/>
      <point x="958" y="1212" type="qcurve"/>
      <point x="654" y="1117" type="line"/>
      <point x="500" y="1058"/>
      <point x="500" y="800" type="qcurve" smooth="yes"/>
      <point x="500" y="300" type="line" smooth="yes"/>
      <point x="500" y="242"/>
      <point x="594" y="144"/>
      <point x="700" y="144" type="qcurve" smooth="yes"/>
      <point x="1112" y="144" type="line"/>
      <point x="900" y="371"/>
      <point x="900" y="450" type="qcurve" smooth="yes"/>
      <point x="900" y="700" type="line" smooth="yes"/>
      <point x="900" y="900"/>
      <point x="1096" y="900" type="qcurve" smooth="yes"/>
      <point x="1220" y="900"/>
      <point x="1311" y="851"/>
      <point x="1350" y="762"/>
      <point x="1350" y="705" type="qcurve" smooth="yes"/>
      <point x="1350" y="650"/>
      <point x="1280" y="550"/>
      <point x="1200" y="550" type="qcurve"/>
      <point x="1200" y="450" type="line" smooth="yes"/>
      <point x="1200" y="349"/>
      <point x="1275" y="237" type="qcurve" smooth="yes"/>
      <point x="1350" y="125" type="line"/>
      <point x="1350" y="0" type="line"/>
      <point x="700" y="0" type="line" smooth="yes"/>
      <point x="450" y="0"/>
      <point x="325" y="100" type="qcurve" smooth="yes"/>
      <point x="200" y="200"/>
      <point x="200" y="300" type="qcurve" smooth="yes"/>
    </contour>
  </outline>
</glyph>
<glyph name="uni17E5" format="1">
  <advance width="1550"/>
  <unicode hex="17E5"/>
  <outline>
    <contour>
      <point x="672" y="1212" type="qcurve"/>
      <point x="706" y="1246"/>
      <point x="706" y="1278" type="qcurve" smooth="yes"/>
      <point x="706" y="1366"/>
      <point x="628" y="1366" type="qcurve" smooth="yes"/>
      <point x="550" y="1366"/>
      <point x="550" y="1278" type="qcurve" smooth="yes"/>
      <point x="550" y="1234"/>
    </contour>
    <contour>
      <point x="1230" y="600" type="qcurve" smooth="yes"/>
      <point x="1240" y="610"/>
      <point x="1240" y="635" type="qcurve" smooth="yes"/>
      <point x="1240" y="666"/>
      <point x="1200" y="686" type="qcurve"/>
      <point x="1200" y="589" type="line"/>
      <point x="1220" y="589"/>
    </contour>
    <contour>
      <point x="815" y="1187" type="qcurve"/>
      <point x="933" y="1173" type="line" smooth="yes"/>
      <point x="944" y="1172"/>
      <point x="953" y="1172" type="qcurve" smooth="yes"/>
      <point x="1050" y="1172"/>
      <point x="1050" y="1300" type="qcurve" smooth="yes"/>
      <point x="1050" y="1530" type="line" smooth="yes"/>
      <point x="1050" y="1700"/>
      <point x="1330" y="1700" type="qcurve" smooth="yes"/>
      <point x="1450" y="1700"/>
      <point x="1450" y="1600" type="qcurve"/>
      <point x="1350" y="1600"/>
      <point x="1350" y="1530" type="qcurve" smooth="yes"/>
      <point x="1350" y="1300" type="line" smooth="yes"/>
      <point x="1350" y="1000"/>
      <point x="1075" y="1000" type="qcurve"/>
      <point x="689" y="1065" type="line"/>
      <point x="658" y="1045"/>
      <point x="620" y="1025" type="qcurve" smooth="yes"/>
      <point x="500" y="956"/>
      <point x="500" y="710" type="qcurve" smooth="yes"/>
      <point x="500" y="300" type="line" smooth="yes"/>
      <point x="500" y="242"/>
      <point x="594" y="144"/>
      <point x="700" y="144" type="qcurve" smooth="yes"/>
      <point x="1112" y="144" type="line"/>
      <point x="900" y="321"/>
      <point x="900" y="400" type="qcurve" smooth="yes"/>
      <point x="900" y="600" type="line" smooth="yes"/>
      <point x="900" y="800"/>
      <point x="1096" y="800" type="qcurve" smooth="yes"/>
      <point x="1220" y="800"/>
      <point x="1311" y="751"/>
      <point x="1350" y="662"/>
      <point x="1350" y="605" type="qcurve" smooth="yes"/>
      <point x="1350" y="550"/>
      <point x="1280" y="450"/>
      <point x="1200" y="450" type="qcurve"/>
      <point x="1200" y="400" type="line" smooth="yes"/>
      <point x="1200" y="299"/>
      <point x="1350" y="125" type="qcurve"/>
      <point x="1350" y="0" type="line"/>
      <point x="700" y="0" type="line" smooth="yes"/>
      <point x="450" y="0"/>
      <point x="325" y="100" type="qcurve" smooth="yes"/>
      <point x="200" y="200"/>
      <point x="200" y="300" type="qcurve" smooth="yes"/>
      <point x="200" y="710" type="line" smooth="yes"/>
      <point x="200" y="990"/>
      <point x="516" y="1117" type="qcurve"/>
      <point x="416" y="1172"/>
      <point x="416" y="1278" type="qcurve" smooth="yes"/>
      <point x="416" y="1500"/>
      <point x="628" y="1500" type="qcurve" smooth="yes"/>
      <point x="840" y="1500"/>
      <point x="840" y="1278" type="qcurve" smooth="yes"/>
      <point x="840" y="1231"/>
    </contour>
  </outline>
</glyph>
<glyph name="uni17E6" format="1">
  <advance width="1550"/>
  <unicode hex="17E6"/>
  <outline>
    <contour>
      <point x="500" y="1365" type="line"/>
      <point x="618" y="1500"/>
      <point x="781" y="1500" type="qcurve" smooth="yes"/>
      <point x="1083" y="1500"/>
      <point x="1350" y="1185"/>
      <point x="1350" y="800" type="qcurve" smooth="yes"/>
      <point x="1350" y="600" type="line" smooth="yes"/>
      <point x="1350" y="315"/>
      <point x="1083" y="0"/>
      <point x="776" y="0" type="qcurve" smooth="yes"/>
      <point x="438" y="0"/>
      <point x="319" y="142" type="qcurve" smooth="yes"/>
      <point x="200" y="285"/>
      <point x="200" y="470" type="qcurve" smooth="yes"/>
      <point x="200" y="623"/>
      <point x="291" y="711" type="qcurve" smooth="yes"/>
      <point x="381" y="800"/>
      <point x="592" y="800" type="qcurve" smooth="yes"/>
      <point x="721" y="800"/>
      <point x="850" y="683"/>
      <point x="850" y="546" type="qcurve" smooth="yes"/>
      <point x="850" y="446"/>
      <point x="750" y="446" type="qcurve" smooth="yes"/>
      <point x="650" y="446"/>
      <point x="650" y="546" type="qcurve" smooth="yes"/>
      <point x="650" y="602"/>
      <point x="681" y="626" type="qcurve"/>
      <point x="653" y="666"/>
      <point x="592" y="666" type="qcurve" smooth="yes"/>
      <point x="500" y="666"/>
      <point x="500" y="470" type="qcurve" smooth="yes"/>
      <point x="500" y="327"/>
      <point x="612" y="144"/>
      <point x="776" y="144" type="qcurve" smooth="yes"/>
      <point x="919" y="144"/>
      <point x="1050" y="357"/>
      <point x="1050" y="600" type="qcurve" smooth="yes"/>
      <point x="1050" y="800" type="line" smooth="yes"/>
      <point x="1050" y="1143"/>
      <point x="919" y="1356"/>
      <point x="781" y="1356" type="qcurve" smooth="yes"/>
      <point x="602" y="1356"/>
      <point x="500" y="1100" type="qcurve"/>
      <point x="500" y="1000"/>
      <point x="294" y="1000" type="qcurve" smooth="yes"/>
      <point x="200" y="1000"/>
      <point x="200" y="1100" type="qcurve" smooth="yes"/>
      <point x="200" y="1500" type="line" smooth="yes"/>
      <point x="200" y="1616"/>
      <point x="50" y="1616" type="qcurve"/>
      <point x="50" y="1750"/>
      <point x="230" y="1750" type="qcurve" smooth="yes"/>
      <point x="500" y="1750"/>
      <point x="500" y="1500" type="qcurve" smooth="yes"/>
    </contour>
  </outline>
</glyph>
<glyph name="uni17E7" format="1">
  <advance width="1900"/>
  <unicode hex="17E7"/>
  <outline>
    <contour>
      <point x="450" y="222" type="qcurve"/>
      <point x="548" y="312"/>
      <point x="548" y="389" type="qcurve" smooth="yes"/>
      <point x="548" y="449"/>
      <point x="499" y="449" type="qcurve" smooth="yes"/>
      <point x="450" y="449"/>
    </contour>
    <contour>
      <point x="1325" y="144" type="qcurve" smooth="yes"/>
      <point x="1400" y="144"/>
      <point x="1400" y="200" type="qcurve" smooth="yes"/>
      <point x="1400" y="1450" type="line" smooth="yes"/>
      <point x="1400" y="1566"/>
      <point x="1250" y="1566" type="qcurve"/>
      <point x="1250" y="1700"/>
      <point x="1380" y="1700" type="qcurve" smooth="yes"/>
      <point x="1700" y="1700"/>
      <point x="1700" y="1450" type="qcurve" smooth="yes"/>
      <point x="1700" y="200" type="line" smooth="yes"/>
      <point x="1700" y="0"/>
      <point x="1325" y="0" type="qcurve" smooth="yes"/>
      <point x="950" y="0"/>
      <point x="950" y="200" type="qcurve" smooth="yes"/>
      <point x="950" y="1200" type="line" smooth="yes"/>
      <point x="950" y="1264"/>
      <point x="891" y="1282" type="qcurve" smooth="yes"/>
      <point x="884" y="1283"/>
      <point x="878" y="1283" type="qcurve" smooth="yes"/>
      <point x="820" y="1283"/>
      <point x="726" y="1149" type="qcurve"/>
      <point x="631" y="1283"/>
      <point x="573" y="1283" type="qcurve" smooth="yes"/>
      <point x="566" y="1283"/>
      <point x="560" y="1282" type="qcurve" smooth="yes"/>
      <point x="500" y="1264"/>
      <point x="500" y="1200" type="qcurve" smooth="yes"/>
      <point x="500" y="600" type="line"/>
      <point x="595" y="600"/>
      <point x="639" y="541" type="qcurve" smooth="yes"/>
      <point x="682" y="481"/>
      <point x="682" y="415" type="qcurve" smooth="yes"/>
      <point x="682" y="337"/>
      <point x="642" y="250" type="qcurve" smooth="yes"/>
      <point x="602" y="162"/>
      <point x="526" y="81" type="qcurve" smooth="yes"/>
      <point x="450" y="0"/>
      <point x="374" y="0" type="qcurve" smooth="yes"/>
      <point x="200" y="0"/>
      <point x="200" y="100" type="qcurve" smooth="yes"/>
      <point x="200" y="1200" type="line" smooth="yes"/>
      <point x="200" y="1322"/>
      <point x="482" y="1500"/>
      <point x="545" y="1500" type="qcurve" smooth="yes"/>
      <point x="597" y="1500"/>
      <point x="726" y="1366" type="qcurve"/>
      <point x="854" y="1500"/>
      <point x="907" y="1500" type="qcurve" smooth="yes"/>
      <point x="969" y="1500"/>
      <point x="1250" y="1322"/>
      <point x="1250" y="1200" type="qcurve" smooth="yes"/>
      <point x="1250" y="200" type="line" smooth="yes"/>
      <point x="1250" y="144"/>
    </contour>
  </outline>
</glyph>
<glyph name="uni17E8" format="1">
  <advance width="1550"/>
  <unicode hex="17E8"/>
  <outline>
    <contour>
      <point x="1050" y="589" type="qcurve"/>
      <point x="1050" y="686" type="line"/>
      <point x="1010" y="666"/>
      <point x="1010" y="635" type="qcurve" smooth="yes"/>
      <point x="1010" y="610"/>
      <point x="1020" y="600" type="qcurve" smooth="yes"/>
      <point x="1030" y="589"/>
    </contour>
    <contour>
      <point x="200" y="1000" type="line" smooth="yes"/>
      <point x="200" y="1215"/>
      <point x="318" y="1357" type="qcurve" smooth="yes"/>
      <point x="437" y="1500"/>
      <point x="759" y="1500" type="qcurve" smooth="yes"/>
      <point x="932" y="1500"/>
      <point x="1050" y="1365" type="qcurve"/>
      <point x="1050" y="1500" type="line" smooth="yes"/>
      <point x="1050" y="1750"/>
      <point x="1320" y="1750" type="qcurve" smooth="yes"/>
      <point x="1500" y="1750"/>
      <point x="1500" y="1616" type="qcurve"/>
      <point x="1350" y="1616"/>
      <point x="1350" y="1500" type="qcurve" smooth="yes"/>
      <point x="1350" y="1150" type="line" smooth="yes"/>
      <point x="1350" y="1050"/>
      <point x="1206" y="1050" type="qcurve" smooth="yes"/>
      <point x="1084" y="1050"/>
      <point x="1062" y="1100" type="qcurve" smooth="yes"/>
      <point x="948" y="1356"/>
      <point x="759" y="1356" type="qcurve" smooth="yes"/>
      <point x="581" y="1356"/>
      <point x="500" y="1173"/>
      <point x="500" y="1000" type="qcurve" smooth="yes"/>
      <point x="500" y="300" type="line" smooth="yes"/>
      <point x="500" y="236"/>
      <point x="537" y="184" type="qcurve"/>
      <point x="556" y="172"/>
      <point x="578" y="172" type="qcurve" smooth="yes"/>
      <point x="657" y="172"/>
      <point x="776" y="321" type="qcurve"/>
      <point x="895" y="172"/>
      <point x="974" y="172" type="qcurve" smooth="yes"/>
      <point x="995" y="172"/>
      <point x="1014" y="184" type="qcurve"/>
      <point x="1050" y="236"/>
      <point x="1050" y="300" type="qcurve" smooth="yes"/>
      <point x="1050" y="450" type="line"/>
      <point x="970" y="450"/>
      <point x="900" y="550"/>
      <point x="900" y="605" type="qcurve" smooth="yes"/>
      <point x="900" y="662"/>
      <point x="939" y="751"/>
      <point x="1030" y="800"/>
      <point x="1166" y="800" type="qcurve" smooth="yes"/>
      <point x="1350" y="800"/>
      <point x="1350" y="600" type="qcurve" smooth="yes"/>
      <point x="1350" y="300" type="line" smooth="yes"/>
      <point x="1350" y="178"/>
      <point x="1222" y="89" type="qcurve" smooth="yes"/>
      <point x="1095" y="0"/>
      <point x="1007" y="0" type="qcurve" smooth="yes"/>
      <point x="918" y="0"/>
      <point x="776" y="144" type="qcurve"/>
      <point x="634" y="0"/>
      <point x="545" y="0" type="qcurve" smooth="yes"/>
      <point x="456" y="0"/>
      <point x="328" y="89" type="qcurve" smooth="yes"/>
      <point x="200" y="178"/>
      <point x="200" y="300" type="qcurve" smooth="yes"/>
    </contour>
  </outline>
</glyph>
<glyph name="uni17E9" format="1">
  <advance width="1550"/>
  <unicode hex="17E9"/>
  <outline>
    <contour>
      <point x="1054" y="257" type="qcurve"/>
      <point x="1111" y="290" type="line"/>
      <point x="1111" y="314"/>
      <point x="1095" y="314" type="qcurve" smooth="yes"/>
      <point x="1090" y="314"/>
      <point x="1082" y="311" type="qcurve" smooth="yes"/>
      <point x="1059" y="302"/>
      <point x="1053" y="289" type="qcurve" smooth="yes"/>
      <point x="1050" y="283"/>
      <point x="1050" y="275" type="qcurve" smooth="yes"/>
      <point x="1050" y="267"/>
    </contour>
    <contour>
      <point x="944" y="197" type="qcurve"/>
      <point x="928" y="243"/>
      <point x="928" y="279" type="qcurve" smooth="yes"/>
      <point x="928" y="309"/>
      <point x="939" y="332" type="qcurve" smooth="yes"/>
      <point x="963" y="383"/>
      <point x="1014" y="403" type="qcurve" smooth="yes"/>
      <point x="1062" y="422"/>
      <point x="1107" y="422" type="qcurve" smooth="yes"/>
      <point x="1116" y="422" type="line" smooth="yes"/>
      <point x="1164" y="420"/>
      <point x="1207" y="387" type="qcurve" smooth="yes"/>
      <point x="1250" y="353"/>
      <point x="1250" y="249" type="qcurve" smooth="yes"/>
      <point x="1250" y="144"/>
      <point x="1104" y="72" type="qcurve" smooth="yes"/>
      <point x="957" y="0"/>
      <point x="750" y="0" type="qcurve" smooth="yes"/>
      <point x="452" y="0"/>
      <point x="334" y="104" type="qcurve" smooth="yes"/>
      <point x="200" y="221"/>
      <point x="200" y="450" type="qcurve" smooth="yes"/>
      <point x="200" y="620"/>
      <point x="274" y="731" type="qcurve" smooth="yes"/>
      <point x="349" y="843"/>
      <point x="548" y="896" type="qcurve"/>
      <point x="400" y="983"/>
      <point x="400" y="1150" type="qcurve" smooth="yes"/>
      <point x="400" y="1337"/>
      <point x="503" y="1424" type="qcurve" smooth="yes"/>
      <point x="592" y="1500"/>
      <point x="829" y="1500" type="qcurve" smooth="yes"/>
      <point x="982" y="1500"/>
      <point x="1050" y="1405" type="qcurve"/>
      <point x="1050" y="1500" type="line" smooth="yes"/>
      <point x="1050" y="1616"/>
      <point x="962" y="1616" type="qcurve"/>
      <point x="962" y="1750"/>
      <point x="1092" y="1750" type="qcurve" smooth="yes"/>
      <point x="1350" y="1750"/>
      <point x="1350" y="1500" type="qcurve" smooth="yes"/>
      <point x="1350" y="1200" type="line" smooth="yes"/>
      <point x="1350" y="1100"/>
      <point x="1206" y="1100" type="qcurve" smooth="yes"/>
      <point x="1084" y="1100"/>
      <point x="1062" y="1150" type="qcurve" smooth="yes"/>
      <point x="968" y="1366"/>
      <point x="829" y="1366" type="qcurve" smooth="yes"/>
      <point x="762" y="1366"/>
      <point x="700" y="1271"/>
      <point x="700" y="1155" type="qcurve" smooth="yes"/>
      <point x="700" y="1050"/>
      <point x="759" y="944"/>
      <point x="880" y="944" type="qcurve" smooth="yes"/>
      <point x="1074" y="944"/>
      <point x="1244" y="807" type="qcurve" smooth="yes"/>
      <point x="1300" y="758"/>
      <point x="1300" y="668" type="qcurve" smooth="yes"/>
      <point x="1300" y="627"/>
      <point x="1277" y="627" type="qcurve" smooth="yes"/>
      <point x="1248" y="627"/>
      <point x="1185" y="689" type="qcurve" smooth="yes"/>
      <point x="1070" y="800"/>
      <point x="880" y="800" type="qcurve" smooth="yes"/>
      <point x="689" y="800"/>
      <point x="500" y="625"/>
      <point x="500" y="450" type="qcurve" smooth="yes"/>
      <point x="500" y="293"/>
      <point x="625" y="144"/>
      <point x="750" y="144" type="qcurve" smooth="yes"/>
      <point x="836" y="144"/>
    </contour>
  </outline>
</glyph>
<glyph name="uni19E0" format="1">
  <advance width="1550"/>
  <unicode hex="19E0"/>
  <outline>
    <contour>
      <point x="1112" y="-411" type="qcurve"/>
      <point x="1112" y="-314" type="line"/>
      <point x="1072" y="-334"/>
      <point x="1072" y="-365" type="qcurve" smooth="yes"/>
      <point x="1072" y="-390"/>
      <point x="1082" y="-400" type="qcurve" smooth="yes"/>
      <point x="1092" y="-411"/>
    </contour>
    <contour>
      <point x="250" y="0" type="line" smooth="yes"/>
      <point x="250" y="215"/>
      <point x="368" y="357" type="qcurve" smooth="yes"/>
      <point x="487" y="500"/>
      <point x="759" y="500" type="qcurve" smooth="yes"/>
      <point x="982" y="500"/>
      <point x="1112" y="365" type="qcurve"/>
      <point x="1112" y="500" type="line" smooth="yes"/>
      <point x="1112" y="750"/>
      <point x="1320" y="750" type="qcurve" smooth="yes"/>
      <point x="1450" y="750"/>
      <point x="1450" y="616" type="qcurve"/>
      <point x="1300" y="616"/>
      <point x="1300" y="500" type="qcurve" smooth="yes"/>
      <point x="1300" y="150" type="line" smooth="yes"/>
      <point x="1300" y="50"/>
      <point x="1206" y="50" type="qcurve" smooth="yes"/>
      <point x="1134" y="50"/>
      <point x="1112" y="100" type="qcurve" smooth="yes"/>
      <point x="998" y="356"/>
      <point x="759" y="356" type="qcurve" smooth="yes"/>
      <point x="581" y="356"/>
      <point x="509" y="264" type="qcurve" smooth="yes"/>
      <point x="438" y="173"/>
      <point x="438" y="0" type="qcurve" smooth="yes"/>
      <point x="438" y="-700" type="line" smooth="yes"/>
      <point x="438" y="-764"/>
      <point x="531" y="-816" type="qcurve" smooth="yes"/>
      <point x="551" y="-828"/>
      <point x="574" y="-828" type="qcurve" smooth="yes"/>
      <point x="657" y="-828"/>
      <point x="776" y="-679" type="qcurve"/>
      <point x="895" y="-828"/>
      <point x="977" y="-828" type="qcurve" smooth="yes"/>
      <point x="1000" y="-828"/>
      <point x="1020" y="-816" type="qcurve" smooth="yes"/>
      <point x="1112" y="-764"/>
      <point x="1112" y="-700" type="qcurve" smooth="yes"/>
      <point x="1112" y="-550" type="line"/>
      <point x="1032" y="-550"/>
      <point x="962" y="-450"/>
      <point x="962" y="-395" type="qcurve" smooth="yes"/>
      <point x="962" y="-338"/>
      <point x="1001" y="-249"/>
      <point x="1092" y="-200"/>
      <point x="1166" y="-200" type="qcurve" smooth="yes"/>
      <point x="1300" y="-200"/>
      <point x="1300" y="-400" type="qcurve" smooth="yes"/>
      <point x="1300" y="-700" type="line" smooth="yes"/>
      <point x="1300" y="-822"/>
      <point x="1172" y="-911" type="qcurve" smooth="yes"/>
      <point x="1045" y="-1000"/>
      <point x="976" y="-1000" type="qcurve" smooth="yes"/>
      <point x="918" y="-1000"/>
      <point x="776" y="-856" type="qcurve"/>
      <point x="634" y="-1000"/>
      <point x="576" y="-1000" type="qcurve" smooth="yes"/>
      <point x="506" y="-1000"/>
      <point x="378" y="-911" type="qcurve" smooth="yes"/>
      <point x="250" y="-822"/>
      <point x="250" y="-700" type="qcurve" smooth="yes"/>
    </contour>
    <contour>
      <point x="250" y="1300" type="qcurve" smooth="yes"/>
      <point x="250" y="1600" type="line" smooth="yes"/>
      <point x="250" y="1825"/>
      <point x="369" y="2013" type="qcurve" smooth="yes"/>
      <point x="488" y="2200"/>
      <point x="776" y="2200" type="qcurve" smooth="yes"/>
      <point x="1063" y="2200"/>
      <point x="1181" y="2013" type="qcurve" smooth="yes"/>
      <point x="1300" y="1825"/>
      <point x="1300" y="1600" type="qcurve" smooth="yes"/>
      <point x="1300" y="1300" type="line" smooth="yes"/>
      <point x="1300" y="1075"/>
      <point x="1181" y="888" type="qcurve" smooth="yes"/>
      <point x="1063" y="700"/>
      <point x="776" y="700" type="qcurve" smooth="yes"/>
      <point x="488" y="700"/>
      <point x="369" y="888" type="qcurve" smooth="yes"/>
      <point x="250" y="1075"/>
    </contour>
    <contour>
      <point x="438" y="1600" type="qcurve" smooth="yes"/>
      <point x="438" y="1300" type="line" smooth="yes"/>
      <point x="438" y="1147"/>
      <point x="510" y="996" type="qcurve" smooth="yes"/>
      <point x="582" y="844"/>
      <point x="776" y="844" type="qcurve" smooth="yes"/>
      <point x="969" y="844"/>
      <point x="1040" y="996" type="qcurve" smooth="yes"/>
      <point x="1112" y="1147"/>
      <point x="1112" y="1300" type="qcurve" smooth="yes"/>
      <point x="1112" y="1600" type="line" smooth="yes"/>
      <point x="1112" y="1753"/>
      <point x="1040" y="1905" type="qcurve" smooth="yes"/>
      <point x="969" y="2056"/>
      <point x="776" y="2056" type="qcurve" smooth="yes"/>
      <point x="582" y="2056"/>
      <point x="510" y="1905" type="qcurve" smooth="yes"/>
      <point x="438" y="1753"/>
    </contour>
  </outline>
</glyph>
<glyph name="uni19E1" format="1">
  <advance width="1550"/>
  <unicode hex="19E1"/>
  <outline>
    <contour>
      <point x="1122" y="933" type="qcurve" smooth="yes"/>
      <point x="943" y="700"/>
      <point x="600" y="700" type="qcurve" smooth="yes"/>
      <point x="500" y="700" type="line"/>
      <point x="500" y="844" type="line"/>
      <point x="600" y="844" type="line" smooth="yes"/>
      <point x="889" y="844"/>
      <point x="1001" y="1036" type="qcurve" smooth="yes"/>
      <point x="1112" y="1227"/>
      <point x="1112" y="1600" type="qcurve" smooth="yes"/>
      <point x="1112" y="1873"/>
      <point x="1011" y="1965" type="qcurve" smooth="yes"/>
      <point x="909" y="2056"/>
      <point x="756" y="2056" type="qcurve" smooth="yes"/>
      <point x="602" y="2056"/>
      <point x="520" y="1970" type="qcurve" smooth="yes"/>
      <point x="438" y="1883"/>
      <point x="438" y="1730" type="qcurve" smooth="yes"/>
      <point x="438" y="1605"/>
      <point x="487" y="1543" type="qcurve" smooth="yes"/>
      <point x="535" y="1480"/>
      <point x="632" y="1480" type="qcurve" smooth="yes"/>
      <point x="703" y="1480"/>
      <point x="731" y="1550" type="qcurve"/>
      <point x="650" y="1564"/>
      <point x="650" y="1640" type="qcurve" smooth="yes"/>
      <point x="650" y="1770"/>
      <point x="775" y="1770" type="qcurve" smooth="yes"/>
      <point x="900" y="1770"/>
      <point x="900" y="1640" type="qcurve" smooth="yes"/>
      <point x="900" y="1503"/>
      <point x="831" y="1425" type="qcurve" smooth="yes"/>
      <point x="761" y="1346"/>
      <point x="632" y="1346" type="qcurve" smooth="yes"/>
      <point x="451" y="1346"/>
      <point x="351" y="1455" type="qcurve" smooth="yes"/>
      <point x="250" y="1563"/>
      <point x="250" y="1730" type="qcurve" smooth="yes"/>
      <point x="250" y="1925"/>
      <point x="379" y="2063" type="qcurve" smooth="yes"/>
      <point x="508" y="2200"/>
      <point x="756" y="2200" type="qcurve" smooth="yes"/>
      <point x="1003" y="2200"/>
      <point x="1152" y="2058" type="qcurve" smooth="yes"/>
      <point x="1300" y="1915"/>
      <point x="1300" y="1600" type="qcurve" smooth="yes"/>
      <point x="1300" y="1165"/>
    </contour>
    <contour>
      <point x="1100" y="392" type="line"/>
      <point x="1100" y="500" type="line"/>
      <point x="1288" y="500" type="line"/>
      <point x="1288" y="-795" type="line" smooth="yes"/>
      <point x="1288" y="-912"/>
      <point x="1155" y="-1000"/>
      <point x="1060" y="-1000" type="qcurve" smooth="yes"/>
      <point x="1005" y="-1000"/>
      <point x="978" y="-975" type="qcurve" smooth="yes"/>
      <point x="950" y="-950"/>
      <point x="950" y="-899" type="qcurve"/>
      <point x="1013" y="-899"/>
      <point x="1100" y="-862"/>
      <point x="1100" y="-795" type="qcurve" smooth="yes"/>
      <point x="1100" y="221" type="line"/>
      <point x="966" y="151" type="line"/>
      <point x="692" y="0"/>
      <point x="500" y="0" type="qcurve" smooth="yes"/>
      <point x="250" y="0"/>
      <point x="250" y="250" type="qcurve" smooth="yes"/>
      <point x="250" y="500"/>
      <point x="500" y="500" type="qcurve" smooth="yes"/>
      <point x="600" y="500"/>
      <point x="600" y="425" type="qcurve" smooth="yes"/>
      <point x="600" y="350"/>
      <point x="500" y="350" type="qcurve" smooth="yes"/>
      <point x="438" y="350"/>
      <point x="438" y="250" type="qcurve" smooth="yes"/>
      <point x="438" y="150"/>
      <point x="500" y="150" type="qcurve" smooth="yes"/>
      <point x="648" y="150"/>
      <point x="896" y="283" type="qcurve" smooth="yes"/>
    </contour>
  </outline>
</glyph>
<glyph name="uni19E4" format="1">
  <advance width="1550"/>
  <unicode hex="19E4"/>
  <outline>
    <contour>
      <point x="1180" y="1400" type="qcurve" smooth="yes"/>
      <point x="1190" y="1410"/>
      <point x="1190" y="1435" type="qcurve" smooth="yes"/>
      <point x="1190" y="1466"/>
      <point x="1150" y="1486" type="qcurve"/>
      <point x="1150" y="1389" type="line"/>
      <point x="1170" y="1389"/>
    </contour>
    <contour>
      <point x="250" y="1500" type="line" smooth="yes"/>
      <point x="250" y="1844"/>
      <point x="615" y="1954" type="qcurve"/>
      <point x="898" y="2045" type="line" smooth="yes"/>
      <point x="1112" y="2113"/>
      <point x="1112" y="2230" type="qcurve" smooth="yes"/>
      <point x="1112" y="2300"/>
      <point x="1012" y="2300" type="qcurve"/>
      <point x="1012" y="2400"/>
      <point x="1112" y="2400" type="qcurve" smooth="yes"/>
      <point x="1300" y="2400"/>
      <point x="1300" y="2230" type="qcurve" smooth="yes"/>
      <point x="1300" y="2020"/>
      <point x="958" y="1912" type="qcurve" smooth="yes"/>
      <point x="654" y="1817" type="line" smooth="yes"/>
      <point x="438" y="1747"/>
      <point x="438" y="1500" type="qcurve" smooth="yes"/>
      <point x="438" y="1000" type="line" smooth="yes"/>
      <point x="438" y="942"/>
      <point x="516" y="893" type="qcurve" smooth="yes"/>
      <point x="594" y="844"/>
      <point x="700" y="844" type="qcurve" smooth="yes"/>
      <point x="1112" y="844" type="line"/>
      <point x="962" y="1071"/>
      <point x="962" y="1150" type="qcurve" smooth="yes"/>
      <point x="962" y="1400" type="line" smooth="yes"/>
      <point x="962" y="1600"/>
      <point x="1096" y="1600" type="qcurve" smooth="yes"/>
      <point x="1170" y="1600"/>
      <point x="1261" y="1551"/>
      <point x="1300" y="1462"/>
      <point x="1300" y="1405" type="qcurve" smooth="yes"/>
      <point x="1300" y="1350"/>
      <point x="1230" y="1250"/>
      <point x="1150" y="1250" type="qcurve"/>
      <point x="1150" y="1150" type="line" smooth="yes"/>
      <point x="1150" y="1049"/>
      <point x="1225" y="937" type="qcurve" smooth="yes"/>
      <point x="1300" y="825" type="line"/>
      <point x="1300" y="700" type="line"/>
      <point x="700" y="700" type="line" smooth="yes"/>
      <point x="500" y="700"/>
      <point x="375" y="800" type="qcurve" smooth="yes"/>
      <point x="250" y="900"/>
      <point x="250" y="1000" type="qcurve" smooth="yes"/>
    </contour>
    <contour>
      <point x="1100" y="392" type="line"/>
      <point x="1100" y="500" type="line"/>
      <point x="1288" y="500" type="line"/>
      <point x="1288" y="-795" type="line" smooth="yes"/>
      <point x="1288" y="-912"/>
      <point x="1155" y="-1000"/>
      <point x="1060" y="-1000" type="qcurve" smooth="yes"/>
      <point x="1005" y="-1000"/>
      <point x="978" y="-975" type="qcurve" smooth="yes"/>
      <point x="950" y="-950"/>
      <point x="950" y="-899" type="qcurve"/>
      <point x="1013" y="-899"/>
      <point x="1100" y="-862"/>
      <point x="1100" y="-795" type="qcurve" smooth="yes"/>
      <point x="1100" y="221" type="line"/>
      <point x="966" y="151" type="line"/>
      <point x="692" y="0"/>
      <point x="500" y="0" type="qcurve" smooth="yes"/>
      <point x="250" y="0"/>
      <point x="250" y="250" type="qcurve" smooth="yes"/>
      <point x="250" y="500"/>
      <point x="500" y="500" type="qcurve" smooth="yes"/>
      <point x="600" y="500"/>
      <point x="600" y="425" type="qcurve" smooth="yes"/>
      <point x="600" y="350"/>
      <point x="500" y="350" type="qcurve" smooth="yes"/>
      <point x="438" y="350"/>
      <point x="438" y="250" type="qcurve" smooth="yes"/>
      <point x="438" y="150"/>
      <point x="500" y="150" type="qcurve" smooth="yes"/>
      <point x="648" y="150"/>
      <point x="896" y="283" type="qcurve" smooth="yes"/>
    </contour>
  </outline>
</glyph>
